<svg width="82" height="82" viewBox="0 0 82 82" fill="none" xmlns="http://www.w3.org/2000/svg">
<circle cx="41" cy="41" r="41" fill="#FF9800"/>
<path d="M33.1643 29.865L33.2635 35.2341C33.2776 35.9708 32.8101 36.9483 32.2151 37.3875L28.7018 40.0508C26.4493 41.7508 26.8176 43.8333 29.5093 44.6833L34.0851 46.1141C34.8501 46.355 35.6576 47.1908 35.856 47.97L36.9468 52.135C37.811 55.4216 39.9643 55.7475 41.7493 52.8575L44.2426 48.82C44.696 48.0833 45.7726 47.5308 46.6226 47.5733L51.3543 47.8141C54.7401 47.9841 55.7035 46.0291 53.4935 43.4508L50.6885 40.1925C50.1643 39.5833 49.9235 38.45 50.1643 37.685L51.6093 33.095C52.4451 30.4033 50.9435 28.9158 48.266 29.7941L44.0868 31.1683C43.3785 31.395 42.316 31.2391 41.721 30.8L37.3576 27.655C34.9918 25.9691 33.1076 26.9608 33.1643 29.865Z" fill="white"/>
<path d="M27.2854 52.9992L31.5779 48.7067C31.7778 48.5091 32.0476 48.3983 32.3287 48.3983C32.6098 48.3983 32.8796 48.5091 33.0796 48.7067C33.4904 49.1175 33.4904 49.7975 33.0796 50.2083L28.7871 54.5008C28.5746 54.7133 28.3054 54.8125 28.0362 54.8125C27.7671 54.8125 27.4979 54.7133 27.2854 54.5008C26.8746 54.09 26.8746 53.41 27.2854 52.9992Z" fill="white"/>
</svg>
