<svg width="234" height="177" viewBox="0 0 234 177" fill="none" xmlns="http://www.w3.org/2000/svg">
<path d="M136.003 95.053L133.188 121.18C133.188 121.18 127.704 112.907 123.994 116.594C120.458 120.112 114.212 145.769 114.212 145.769C114.212 145.769 114.131 154.136 118.585 156.348C132.874 163.455 148.797 150.101 148.797 150.101L146.523 75.3181C140.599 80.2964 136.83 87.3666 136.003 95.053Z" fill="#F98A73"/>
<path d="M184.208 76.8916L159.487 74.9233C159.335 72.0203 159.539 60.89 159.539 60.89C159.539 60.89 149.251 59.2934 149.129 49.0282C149.007 38.763 150.781 15.1787 150.781 15.1787C156.627 12.6691 163.039 11.764 169.354 12.5572C175.668 13.3503 181.656 15.8128 186.697 19.69L188.221 20.8512L184.208 76.8916Z" fill="#FFAF80"/>
<path d="M159.521 60.7449C164.271 60.8345 168.939 59.5106 172.932 56.942C172.932 56.942 169.762 64.3273 159.498 63.4041L159.521 60.7449Z" fill="#AA6550"/>
<path d="M186.959 31.4939C187.133 31.4184 194.025 29.4095 193.798 36.429C193.571 43.4486 186.563 41.7764 186.558 41.5732C186.552 41.37 186.959 31.4939 186.959 31.4939Z" fill="#FFAF80"/>
<path d="M188.786 38.9835C188.82 38.9835 188.908 39.0706 189.111 39.1751C189.398 39.3093 189.726 39.3259 190.024 39.2216C190.78 38.9719 191.443 37.8165 191.519 36.5508C191.55 35.956 191.451 35.3616 191.228 34.8089C191.17 34.5871 191.059 34.3828 190.904 34.2138C190.749 34.0448 190.555 33.9162 190.338 33.8393C190.199 33.7965 190.048 33.8045 189.914 33.8619C189.78 33.9193 189.671 34.0224 189.606 34.1529C189.507 34.3445 189.542 34.4838 189.507 34.4954C189.472 34.507 189.361 34.3735 189.425 34.0832C189.473 33.9125 189.575 33.7618 189.716 33.6535C189.915 33.5167 190.158 33.4607 190.396 33.4968C190.687 33.5671 190.955 33.7109 191.174 33.9142C191.393 34.1176 191.556 34.3737 191.647 34.658C191.922 35.276 192.046 35.9509 192.007 36.6263C191.914 38.0371 191.147 39.3377 190.123 39.599C189.932 39.649 189.733 39.6551 189.539 39.6169C189.346 39.5786 189.164 39.4971 189.007 39.3783C188.797 39.1519 188.762 38.9951 188.786 38.9835Z" fill="#AA6550"/>
<path d="M153.048 31.0758C153.045 31.4585 153.191 31.8273 153.456 32.1039C153.721 32.3804 154.084 32.5427 154.467 32.5563C154.654 32.5713 154.842 32.5487 155.02 32.4899C155.198 32.431 155.362 32.3371 155.503 32.2136C155.644 32.0902 155.759 31.9397 155.841 31.7712C155.922 31.6027 155.969 31.4195 155.979 31.2325C155.982 30.8508 155.837 30.4828 155.573 30.2064C155.309 29.93 154.948 29.7671 154.566 29.752C154.379 29.7378 154.191 29.7609 154.013 29.82C153.835 29.8791 153.67 29.973 153.529 30.0963C153.388 30.2195 153.272 30.3696 153.19 30.5377C153.107 30.7059 153.059 30.8888 153.048 31.0758Z" fill="#263238"/>
<path d="M152.729 29.6241C152.91 29.8157 154.026 28.9912 155.602 28.997C157.178 29.0028 158.341 29.7925 158.51 29.5777C158.591 29.4906 158.405 29.1422 157.928 28.7764C157.245 28.3051 156.433 28.0557 155.602 28.0623C154.779 28.0592 153.977 28.3175 153.311 28.7996C152.805 29.1945 152.642 29.537 152.729 29.6241Z" fill="#263238"/>
<path d="M168.53 31.6563C168.527 32.0381 168.673 32.4061 168.936 32.6825C169.2 32.9588 169.561 33.1218 169.943 33.1369C170.131 33.1511 170.319 33.128 170.497 33.0688C170.675 33.0097 170.839 32.9158 170.98 32.7926C171.122 32.6694 171.237 32.5193 171.32 32.3511C171.402 32.183 171.45 32.0001 171.461 31.8131C171.463 31.4308 171.316 31.0628 171.051 30.7866C170.787 30.5104 170.425 30.3476 170.042 30.3325C169.856 30.3184 169.668 30.3415 169.49 30.4007C169.313 30.4599 169.148 30.5539 169.008 30.6771C168.867 30.8004 168.752 30.9505 168.67 31.1187C168.588 31.2868 168.541 31.4696 168.53 31.6563Z" fill="#263238"/>
<path d="M168.262 29.9145C168.448 30.1061 169.559 29.2816 171.141 29.2874C172.723 29.2932 173.88 30.0828 174.049 29.868C174.136 29.7867 173.95 29.4384 173.467 29.0726C172.783 28.6012 171.972 28.35 171.141 28.3526C170.318 28.3516 169.517 28.6096 168.85 29.09C168.344 29.4906 168.175 29.8332 168.262 29.9145Z" fill="#263238"/>
<path d="M162.528 41.6196C162.528 41.5325 161.551 41.3641 159.963 41.1609C159.556 41.1203 159.178 41.039 159.108 40.7603C159.076 40.3458 159.169 39.9312 159.376 39.5701C159.763 38.5946 160.161 37.5708 160.568 36.4986C162.231 32.1324 163.429 28.5385 163.249 28.4746C163.069 28.4108 161.586 31.9002 159.928 36.2664C159.533 37.3405 159.149 38.3682 158.765 39.3552C158.507 39.8394 158.433 40.4 158.556 40.9345C158.614 41.0759 158.704 41.2019 158.819 41.3027C158.934 41.4034 159.071 41.4761 159.219 41.5151C159.442 41.5784 159.673 41.6116 159.905 41.6138C161.527 41.7067 162.522 41.7125 162.528 41.6196Z" fill="#263238"/>
<path d="M167.855 23.7368C168.012 24.1665 169.6 23.9633 171.443 24.1839C173.287 24.4045 174.799 24.9097 175.043 24.5264C175.154 24.3407 174.892 23.9458 174.287 23.522C173.478 23.0189 172.566 22.7052 171.618 22.6047C170.67 22.5041 169.712 22.6192 168.815 22.9414C168.134 23.1969 167.791 23.5278 167.855 23.7368Z" fill="#263238"/>
<path d="M153.311 25.0605C153.59 25.4147 154.678 25.0605 155.986 25.0257C157.295 24.9908 158.405 25.2695 158.661 24.8921C158.772 24.7121 158.597 24.3522 158.115 24.0154C157.465 23.6065 156.708 23.4002 155.94 23.423C155.173 23.4457 154.429 23.6965 153.805 24.1431C153.34 24.5147 153.189 24.8805 153.311 25.0605Z" fill="#263238"/>
<path d="M145.773 8.69903C145.701 8.06162 145.791 7.41618 146.036 6.82316C146.281 6.23013 146.673 5.7089 147.175 5.30826C147.693 4.93196 148.329 4.75167 148.968 4.79952C149.607 4.84737 150.208 5.12027 150.664 5.56955C150.568 5.14084 150.562 4.69662 150.649 4.2657C150.735 3.83478 150.911 3.42679 151.165 3.0682C151.42 2.70961 151.747 2.40843 152.125 2.18419C152.504 1.95995 152.926 1.81766 153.363 1.76656C155.043 1.66205 156.474 2.92777 158.091 3.36903C159.707 3.8103 161.371 3.4271 162.894 2.81746C164.418 2.20782 165.837 1.36013 167.378 0.79694C170.634 -0.390297 174.228 -0.246352 177.379 1.19748C180.529 2.64132 182.981 5.26832 184.203 8.50743C186.453 7.80489 189.006 8.94869 190.396 10.8299C191.786 12.711 192.141 15.2309 191.862 17.5649C191.645 19.1397 191.255 20.6857 190.698 22.175C190.698 22.3085 190.698 22.4362 190.698 22.5698C190.588 28.2133 189.948 34.8438 187.535 34.8845C183.33 34.9483 184.336 27.0346 184.336 27.0346C179.172 25.049 181.097 17.3269 179.806 16.154C178.515 14.9812 175.817 12.264 165.011 17.7739C160.812 19.9164 155.235 19.8525 152.188 19.1616L151.92 19.1035H151.857C151.827 19.0934 151.798 19.0818 151.769 19.0687C150.79 18.8281 149.854 18.4363 148.995 17.9075C147.984 17.3254 147.186 16.4366 146.716 15.3702C146.489 14.8366 146.424 14.2486 146.527 13.6783C146.63 13.108 146.898 12.5801 147.297 12.1595C146.462 11.1793 145.932 9.9763 145.773 8.69903Z" fill="#263238"/>
<path d="M204.436 141.327L205.209 155.906L206.954 176.808H140.872L143.745 145.885L138.115 97.0269C138.604 79.7596 145.245 72.5833 158.83 70.9343L157.76 71.0679C159.633 70.8472 157.76 71.0679 158.83 70.9343C167.408 73.6399 176.614 73.6399 185.192 70.9343C189.263 71.1085 192.642 72.3568 196.108 73.0245C207.023 75.1089 216.008 83.5277 218.207 90.8608C220.004 96.8934 233.001 149.218 233.001 149.218H207.128L204.436 141.327Z" fill="#F98A73"/>
<path d="M161.184 46.4734C161.404 47.1116 161.713 47.7156 162.103 48.2675C162.3 48.5427 162.553 48.7731 162.846 48.9433C163.138 49.1134 163.464 49.2195 163.801 49.2545C164.161 49.2532 164.515 49.1622 164.831 48.9899C165.146 48.8175 165.414 48.5692 165.61 48.2675C165.993 47.6536 166.17 46.9336 166.115 46.2121C166.115 45.5618 165.79 44.7896 165.144 44.7141C164.873 44.7037 164.603 44.7616 164.359 44.8825L160.969 46.2586" fill="#AA6550"/>
<path d="M162.54 49.2604C163.153 49.3016 163.769 49.2267 164.355 49.0397C164.947 48.8067 165.434 48.3646 165.721 47.7972C165.883 47.4521 165.971 47.0767 165.978 46.6955C165.985 46.3143 165.911 45.936 165.762 45.5851C165.686 45.4037 165.588 45.2321 165.471 45.0742C165.332 44.9348 165.361 44.9406 165.215 44.9639C165.029 45.0247 164.846 45.0964 164.669 45.1787L164.087 45.4051C163.36 45.6954 162.703 45.9509 162.15 46.1599C161.04 46.5721 160.336 46.7928 160.301 46.7405C160.266 46.6883 160.912 46.3051 161.982 45.7883C162.517 45.5329 163.145 45.2077 163.872 44.9116L164.419 44.6678C164.621 44.5718 164.829 44.4865 165.041 44.4123C165.203 44.3579 165.379 44.3579 165.541 44.4123C165.69 44.4741 165.819 44.5767 165.913 44.7084C166.07 44.9029 166.199 45.1178 166.297 45.3471C166.482 45.7786 166.568 46.2456 166.55 46.7145C166.532 47.1834 166.41 47.6425 166.192 48.0585C166.009 48.3943 165.76 48.69 165.46 48.9283C165.161 49.1666 164.816 49.3427 164.448 49.4462C163.972 49.6016 163.463 49.6217 162.976 49.5042C162.686 49.4113 162.529 49.2952 162.54 49.2604Z" fill="#263238"/>
<path d="M138.004 138.413L122.441 90.7099L121.034 82.7033C121.034 82.7033 116.8 64.8438 116.608 63.0787C116.393 61.035 115.352 60.6518 114.608 60.7563C113.445 60.9653 112.764 62.4981 112.898 64.24C112.944 64.8206 114.061 74.4006 114.061 74.4006C113.406 73.5582 112.693 72.7627 111.927 72.0201C110.316 70.3828 106.879 69.6977 103.477 70.1912C100.075 70.6847 99.1616 71.1028 99.2895 72.4324C99.3246 72.6822 99.4155 72.9209 99.5554 73.1309C99.6953 73.341 99.8807 73.5169 100.098 73.6458C100.781 74.1045 101.609 74.2948 102.424 74.18C107.885 73.489 109.67 76.2528 109.67 76.2528L109.856 77.2978C109.856 77.2978 106.274 75.2889 103.738 76.5721C103.363 76.7617 103.027 77.0219 102.75 77.3385C102.004 77.4223 101.294 77.6991 100.689 78.1416C100.083 78.584 99.6046 79.1767 99.2996 79.8609C98.9946 80.545 98.874 81.2969 98.9497 82.042C99.0255 82.787 99.295 83.4994 99.7315 84.1084C100.15 84.689 100.895 85.2115 101.563 84.9967C101.919 84.8452 102.23 84.6077 102.471 84.3058C102.607 84.155 102.757 84.0171 102.918 83.8936L103.843 86.756C103.843 86.756 106.274 93.0788 107.018 95.947L114.579 143.981C114.829 145.563 115.392 147.079 116.235 148.442C117.078 149.804 118.184 150.985 119.489 151.917C120.794 152.848 122.272 153.51 123.836 153.865C125.4 154.22 127.02 154.261 128.6 153.985C130.299 153.686 131.915 153.027 133.338 152.052C134.762 151.078 135.959 149.81 136.85 148.335C137.741 146.859 138.305 145.21 138.504 143.498C138.703 141.787 138.532 140.053 138.004 138.413Z" fill="#FFAF80"/>
<path d="M120.795 90.2223C119.824 90.6055 118.714 89.9784 118.074 89.154C117.434 88.3295 117.103 87.3018 116.527 86.4309C114.782 83.8182 111.211 82.8718 109.618 80.1836C109.391 79.8062 109.234 79.2778 109.554 78.9817C109.874 78.6856 110.328 78.8482 110.717 78.9817L120.278 82.9937" fill="#FFAF80"/>
<path d="M120.262 83.0169C119.956 82.7962 119.624 82.6148 119.273 82.477C118.622 82.1634 117.668 81.7338 116.487 81.2054L112.335 79.3939L111.125 78.8772C110.67 78.5925 110.12 78.4986 109.596 78.6159C109.436 78.6873 109.302 78.8054 109.21 78.9546C109.119 79.1039 109.075 79.2773 109.084 79.452C109.1 79.7377 109.181 80.016 109.323 80.2648C109.583 80.7036 109.891 81.1125 110.242 81.4841C111.666 82.9705 113.388 83.8065 114.679 84.8691C115.303 85.343 115.852 85.9087 116.307 86.547C116.72 87.1276 117.005 87.7953 117.331 88.3643C117.548 88.8497 117.869 89.2818 118.271 89.6308C118.672 89.9797 119.145 90.2371 119.657 90.3848C120.425 90.53 120.82 90.2339 120.785 90.2223C120.428 90.2693 120.065 90.2496 119.715 90.1642C119.257 89.9897 118.841 89.722 118.493 89.3782C118.144 89.0343 117.871 88.6218 117.691 88.1669C117.395 87.5863 117.11 86.9418 116.703 86.2741C116.237 85.5824 115.666 84.9673 115.01 84.451C113.684 83.3304 111.975 82.4595 110.666 81.0777C110.347 80.7443 110.066 80.3763 109.829 79.9803C109.613 79.6088 109.596 79.2081 109.829 79.1443C110.061 79.0804 110.503 79.2197 110.91 79.3939L112.12 79.8932L116.325 81.5944C117.528 82.0647 118.505 82.4421 119.18 82.6918C119.524 82.8498 119.888 82.9593 120.262 83.0169Z" fill="#AA6550"/>
<path d="M109.985 77.3793C109.855 76.7302 109.572 76.1213 109.159 75.6027C108.687 75.0757 108.057 74.7152 107.362 74.575C106.496 74.4076 105.609 74.3763 104.734 74.4821C103.829 74.5915 102.915 74.609 102.006 74.5343C101.242 74.4619 100.511 74.1918 99.8836 73.7505C99.6727 73.5912 99.5007 73.3862 99.3808 73.1508C99.261 72.9154 99.1962 72.6559 99.1916 72.3919C99.1789 72.2032 99.2235 72.015 99.3195 71.8519C99.3544 71.8519 99.3195 72.0493 99.3195 72.3861C99.3456 72.6196 99.4227 72.8446 99.5452 73.0453C99.6678 73.2459 99.833 73.4172 100.029 73.5473C100.629 73.9268 101.315 74.1504 102.024 74.1976C102.91 74.2504 103.8 74.2212 104.681 74.1105C105.598 74.0029 106.526 74.05 107.426 74.2498C108.182 74.4221 108.858 74.8435 109.345 75.4459C109.663 75.8502 109.875 76.3271 109.962 76.8335C110.016 77.0106 110.024 77.1984 109.985 77.3793Z" fill="#AA6550"/>
<path d="M112.858 63.5898C112.989 64.215 113.067 64.8501 113.091 65.4884C113.213 66.7948 113.364 68.3508 113.533 70.0694C113.701 71.788 113.899 73.3383 114.044 74.6446C114.156 75.2733 114.213 75.9105 114.213 76.549C113.997 75.9463 113.851 75.321 113.777 74.6853C113.573 73.5241 113.341 71.9042 113.155 70.1101C112.969 68.316 112.858 66.6845 112.817 65.5058C112.759 64.8677 112.773 64.225 112.858 63.5898Z" fill="#AA6550"/>
<path d="M108.055 79.7656C107.855 79.7362 107.66 79.6836 107.473 79.6089C107.235 79.5135 106.978 79.4719 106.722 79.487C106.465 79.502 106.216 79.5734 105.99 79.696C105.854 79.7892 105.744 79.9166 105.673 80.0654C105.601 80.2142 105.57 80.3791 105.583 80.5437C105.604 80.9598 105.678 81.3716 105.804 81.7687C105.971 82.2664 105.948 82.808 105.74 83.2899C105.599 83.5405 105.4 83.7542 105.161 83.9136C104.921 84.0731 104.648 84.1737 104.362 84.2073C104.08 84.236 103.796 84.2076 103.527 84.1238C103.257 84.04 103.007 83.9025 102.791 83.7196C102.392 83.3934 102.097 82.9574 101.942 82.4655C101.747 81.6642 101.671 80.8387 101.716 80.0153C101.725 79.4588 101.834 78.9085 102.035 78.3896C102.1 78.1922 102.217 78.0158 102.373 77.8787C102.373 77.8787 102.28 78.0761 102.175 78.4593C102.039 78.9763 101.976 79.5099 101.989 80.0443C101.982 80.8279 102.08 81.609 102.28 82.3668C102.41 82.801 102.68 83.1802 103.048 83.4458C103.416 83.7113 103.861 83.8484 104.315 83.8357C104.54 83.8084 104.756 83.7297 104.945 83.6059C105.135 83.4821 105.293 83.3163 105.408 83.1216C105.577 82.7196 105.596 82.2704 105.461 81.8558C105.34 81.4267 105.275 80.9837 105.269 80.5379C105.265 80.3255 105.316 80.1158 105.418 79.9294C105.52 79.7431 105.669 79.5865 105.85 79.4753C106.109 79.3434 106.395 79.2745 106.685 79.2745C106.975 79.2745 107.261 79.3434 107.519 79.4753C107.886 79.6263 108.089 79.7424 108.055 79.7656Z" fill="#AA6550"/>
<path d="M102.925 83.4118C102.925 83.4118 103.018 83.6034 102.925 83.9576C102.853 84.2063 102.725 84.4351 102.551 84.6265C102.376 84.8178 102.16 84.9664 101.919 85.0607C101.551 85.1841 101.158 85.2099 100.778 85.1355C100.397 85.0612 100.043 84.8894 99.7494 84.6369C99.0521 84.0161 98.621 83.1512 98.5455 82.2216C98.4457 81.3062 98.6348 80.3826 99.0864 79.5798C99.4582 78.9316 99.9988 78.3959 100.651 78.0296C101.08 77.7808 101.551 77.6135 102.041 77.536C102.218 77.4936 102.404 77.4936 102.582 77.536C101.954 77.6948 101.351 77.939 100.79 78.2618C100.139 78.6726 99.618 79.2595 99.2875 79.9543C98.9571 80.6491 98.8309 81.4232 98.9236 82.1867C98.9896 83.0216 99.3649 83.802 99.9762 84.3756C100.223 84.5979 100.522 84.7543 100.845 84.8304C101.168 84.9066 101.505 84.8999 101.825 84.8111C102.04 84.7386 102.236 84.6214 102.402 84.4672C102.567 84.3131 102.698 84.1255 102.785 83.9169C102.907 83.6092 102.89 83.4118 102.925 83.4118Z" fill="#AA6550"/>
<path d="M110.211 89.0958C110.499 88.9731 110.818 88.9426 111.124 89.0087C111.923 89.0917 112.671 89.4415 113.247 90.0015L112.938 90.1293C112.933 89.6945 112.958 89.2599 113.014 88.8287C113.299 86.3089 114.485 84.5612 114.555 84.6251C114.625 84.689 113.665 86.4482 113.392 88.8752C113.341 89.2914 113.312 89.71 113.305 90.1293V90.5647L113.002 90.257C112.481 89.7393 111.821 89.3842 111.101 89.2351C110.548 89.1364 110.211 89.1364 110.211 89.0958Z" fill="#AA6550"/>
<path d="M108.275 72.8389C108.368 72.8738 108.071 73.5995 107.269 74.0466C106.466 74.4937 105.699 74.3891 105.716 74.2904C105.734 74.1917 106.391 74.1163 107.083 73.7098C107.775 73.3034 108.176 72.7809 108.275 72.8389Z" fill="#AA6550"/>
<path d="M144.028 98.4265C144.039 98.4783 144.039 98.5315 144.028 98.5833C144.028 98.6994 144.028 98.8504 144.028 99.0361C144.028 99.46 143.976 100.046 143.941 100.778C143.848 102.299 143.761 104.5 143.639 107.217C143.412 112.657 143.185 120.17 143.011 128.479C142.836 136.787 142.726 144.306 142.644 149.747C142.604 152.452 142.569 154.647 142.545 156.197C142.545 156.934 142.516 157.521 142.511 157.939C142.511 158.125 142.511 158.276 142.511 158.398C142.518 158.45 142.518 158.502 142.511 158.554C142.502 158.502 142.502 158.449 142.511 158.398C142.511 158.276 142.511 158.125 142.511 157.939C142.511 157.515 142.511 156.929 142.511 156.197V149.752C142.511 144.306 142.609 136.787 142.79 128.473C142.97 120.159 143.22 112.651 143.505 107.211C143.656 104.494 143.778 102.293 143.906 100.778C143.964 100.035 144.011 99.4484 144.046 99.0361C144.046 98.8504 144.081 98.6994 144.092 98.5775C144.065 98.5301 144.043 98.4793 144.028 98.4265Z" fill="#263238"/>
<g opacity="0.2">
<path d="M132.914 152.382C136.159 153.932 140.399 150.954 142.056 147.772C142.056 147.772 142.923 140.747 142.806 137.159C142.579 130.517 143.068 123.938 142.841 117.296C142.332 121.273 140.684 125.019 138.096 128.084C137.38 128.926 136.578 129.762 136.31 130.83C135.833 132.746 137.299 136.189 138.241 137.925C141.149 143.232 134.81 152.44 133.123 152.249" fill="black"/>
</g>
<g opacity="0.2">
<path d="M193.647 109.04C194.706 122.278 195.768 135.518 196.834 148.759C196.865 150.014 197.101 151.255 197.532 152.435C197.753 153.023 198.111 153.552 198.576 153.976C199.041 154.399 199.6 154.707 200.207 154.873C202.092 155.256 203.924 153.636 204.453 151.79C204.982 149.944 204.563 147.975 204.098 146.112C203.307 142.936 202.417 139.789 201.522 136.642C198.928 127.507 196.332 118.374 193.735 109.243" fill="black"/>
</g>
<path d="M203.831 143.789C203.831 143.789 203.801 143.737 203.767 143.627C203.732 143.516 203.679 143.342 203.615 143.139C203.487 142.692 203.301 142.065 203.063 141.264L201.086 134.337C199.434 128.467 197.166 120.402 194.688 111.461C193.444 106.99 192.263 102.752 191.199 98.8559C190.662 97.0238 190.248 95.1578 189.96 93.2704C189.716 91.6169 189.716 89.9365 189.96 88.283C190.307 85.8652 191.468 83.6373 193.252 81.966C193.748 81.5326 194.297 81.1638 194.886 80.8686L195.357 80.6712C195.408 80.6432 195.463 80.6236 195.52 80.6132C194.724 80.9861 193.986 81.471 193.328 82.0531C191.604 83.7298 190.494 85.936 190.176 88.3178C189.953 89.9509 189.97 91.6077 190.228 93.2356C190.523 95.1096 190.943 96.962 191.484 98.7804C192.566 102.659 193.758 106.909 195.008 111.38C197.48 120.315 199.719 128.403 201.341 134.279C202.138 137.182 202.778 139.568 203.232 141.246C203.441 142.053 203.61 142.692 203.726 143.145C203.778 143.348 203.819 143.511 203.848 143.638C203.848 143.689 203.842 143.74 203.831 143.789Z" fill="#263238"/>
<path d="M180.144 15.2134C180.191 14.8006 180.191 14.3837 180.144 13.9709C179.967 12.845 179.399 11.8171 178.539 11.0679C177.245 9.97619 175.577 9.42873 173.886 9.54088C171.985 9.54088 169.961 10.1795 167.867 10.8821C166.82 11.2246 165.779 11.5556 164.756 11.782C163.768 12 162.761 12.1225 161.749 12.1478C160.035 12.1924 158.324 11.9691 156.678 11.4859C155.575 11.1543 154.512 10.7026 153.509 10.1389C153.234 9.9916 152.968 9.82877 152.712 9.6512C152.617 9.59627 152.529 9.52997 152.45 9.45378C152.45 9.45378 152.846 9.67442 153.567 10.0344C154.581 10.5516 155.645 10.9659 156.742 11.2711C158.368 11.7182 160.052 11.914 161.738 11.8517C162.732 11.8185 163.721 11.6941 164.692 11.4801C165.698 11.2537 166.722 10.8995 167.774 10.5802C169.862 9.87763 171.926 9.24476 173.88 9.24476C175.629 9.14911 177.345 9.74106 178.661 10.8937C179.537 11.678 180.099 12.7526 180.243 13.9187C180.312 14.352 180.278 14.7955 180.144 15.2134Z" fill="#455A64"/>
<path d="M188.146 32.568C188.146 32.568 188.088 32.4984 188.006 32.3532C187.925 32.208 187.82 31.9874 187.687 31.6971C187.329 30.8774 187.056 30.0234 186.872 29.1482C186.593 27.844 186.503 26.5066 186.605 25.1769C186.8 23.5666 187.107 21.9718 187.524 20.4043C187.929 18.8587 187.929 17.2353 187.524 15.6897C187.331 15.0275 186.995 14.4153 186.541 13.8956C186.136 13.4576 185.628 13.1264 185.064 12.9318C184.241 12.6201 183.328 12.6431 182.522 12.9957C182.242 13.1513 181.979 13.3362 181.737 13.5473C181.921 13.2691 182.173 13.043 182.47 12.8912C182.881 12.6875 183.328 12.5682 183.785 12.5403C184.243 12.5124 184.701 12.5764 185.134 12.7286C185.74 12.9237 186.288 13.267 186.727 13.7273C187.213 14.2684 187.576 14.9082 187.791 15.6026C188.214 17.197 188.214 18.8737 187.791 20.4681C187.377 22.0235 187.064 23.6042 186.855 25.2001C186.745 26.5036 186.812 27.816 187.053 29.1018C187.217 29.9705 187.456 30.8234 187.768 31.6507C188.018 32.2371 188.169 32.5564 188.146 32.568Z" fill="#455A64"/>
<path d="M181.131 14.3831C181.118 14.246 181.118 14.108 181.131 13.9708C181.131 13.6747 181.131 13.2857 181.178 12.8096C181.242 11.371 181.081 9.93119 180.701 8.54216C180.415 7.59852 179.949 6.7191 179.328 5.95264C178.626 5.07056 177.66 4.43419 176.572 4.13534C175.354 3.85322 174.082 3.90538 172.891 4.2863C171.601 4.6924 170.365 5.25186 169.209 5.95264C168.037 6.65914 166.816 7.28382 165.557 7.8222C164.356 8.2902 163.083 8.54562 161.795 8.57699C160.633 8.60635 159.473 8.46551 158.352 8.15896C157.381 7.87741 156.444 7.48789 155.56 6.99774C154.285 6.27889 153.162 5.32071 152.251 4.17598C152.001 3.86942 151.775 3.54323 151.577 3.20056C151.499 3.08754 151.432 2.96693 151.379 2.84058C151.474 2.93951 151.558 3.04854 151.629 3.16572C151.843 3.49343 152.08 3.80578 152.338 4.1005C153.272 5.19627 154.397 6.11313 155.659 6.80614C156.535 7.27252 157.459 7.64055 158.416 7.90349C159.516 8.19168 160.652 8.32073 161.789 8.28669C163.042 8.24899 164.28 7.99561 165.447 7.53771C166.691 6.99848 167.898 6.37581 169.058 5.67395C170.237 4.96535 171.496 4.40008 172.809 3.99019C174.051 3.60067 175.375 3.55253 176.642 3.85084C177.784 4.17074 178.793 4.84851 179.52 5.78427C180.157 6.57904 180.627 7.49311 180.904 8.47249C181.278 9.88207 181.409 11.3446 181.294 12.798C181.265 13.3148 181.224 13.7096 181.189 13.9592C181.188 14.1024 181.168 14.2448 181.131 14.3831Z" fill="#455A64"/>
<path d="M165.773 159.564L209.279 153.091L208.581 149.224H231.96L232.64 155.169C233.139 157.753 233.062 160.415 232.417 162.966C231.771 165.518 230.571 167.896 228.903 169.933C227.235 171.971 225.138 173.617 222.762 174.756C220.386 175.895 217.788 176.498 215.153 176.524L164.43 175.943L165.773 159.564Z" fill="#FFAF80"/>
<path d="M168.913 160.313C168.681 160.389 165.75 159.077 163.127 157.863C160.342 156.571 157.285 155.973 154.218 156.121L142.127 156.737C142.127 156.737 142.871 158.728 144.157 159.437C145.442 160.145 152.956 160.296 152.956 160.296L152.566 160.691C150.984 162.32 148.825 163.264 146.553 163.321L145.39 163.35C144.532 163.282 143.685 163.117 142.866 162.857L139.882 161.655C138.981 161.248 138.027 161.312 137.632 162.235C137.277 163.054 137.539 164.186 140.004 165.423C141.377 166.114 146.483 167.879 146.483 167.879C146.516 168.602 146.615 169.321 146.779 170.027C147 170.77 149.007 171.508 149.007 171.508C149.527 172.611 150.122 173.678 150.786 174.701C151.019 174.962 152.839 175.525 154.77 176.071C157.888 176.947 161.192 176.92 164.296 175.996L168.908 174.625V160.615" fill="#FFAF80"/>
<path d="M152.368 169.464C150.238 169.408 148.149 168.859 146.268 167.861C146.302 167.78 147.623 168.291 149.303 168.726C150.984 169.162 152.38 169.377 152.368 169.464Z" fill="#AA6550"/>
<path d="M151.943 172.291C151.377 172.414 150.788 172.371 150.245 172.169C149.675 172.066 149.145 171.805 148.716 171.415C149.263 171.531 149.802 171.686 150.327 171.879C150.875 171.978 151.415 172.116 151.943 172.291Z" fill="#AA6550"/>
<path d="M220.752 163.216C220.694 163.216 220.409 162.375 219.711 161.103C219.302 160.359 218.836 159.649 218.316 158.978C217.679 158.158 216.973 157.395 216.204 156.696C215.425 156.01 214.588 155.39 213.704 154.844C212.98 154.4 212.224 154.012 211.442 153.683C210.098 153.131 209.208 152.934 209.226 152.876C209.441 152.893 209.654 152.936 209.86 153.004C210.104 153.052 210.345 153.116 210.581 153.195C210.86 153.282 211.162 153.369 211.523 153.509C212.329 153.812 213.108 154.185 213.849 154.623C214.758 155.165 215.614 155.789 216.408 156.487C217.187 157.197 217.901 157.974 218.542 158.81C219.057 159.501 219.51 160.235 219.897 161.004C220.078 161.324 220.194 161.637 220.316 161.904C220.418 162.131 220.506 162.363 220.578 162.601C220.661 162.798 220.72 163.005 220.752 163.216Z" fill="#AA6550"/>
<path d="M154.154 159.228C153.886 159.596 153.574 159.93 153.223 160.22C152.42 160.978 151.537 161.645 150.589 162.212C149.629 162.77 148.587 163.172 147.501 163.402C147.058 163.522 146.598 163.571 146.14 163.547C146.111 163.437 148.234 163.245 150.432 161.951C151.364 161.392 152.249 160.759 153.078 160.058C153.409 159.747 153.769 159.469 154.154 159.228Z" fill="#AA6550"/>
<path d="M29.0437 145.456C30.0788 145.456 21.1229 169.481 18.8141 175.618C18.5583 176.298 18.3838 176.896 18.3838 176.896L81.0868 177L80.3483 118.748C80.3508 118.709 80.3508 118.67 80.3483 118.632L75.1143 76.9671C75.0885 76.7651 75.0035 76.5753 74.87 76.4214C74.7366 76.2675 74.5606 76.1564 74.3641 76.102C71.8808 75.4343 62.9307 73.1292 56.0859 72.8738C48.0663 72.5777 36.4585 74.1685 36.4585 74.1685C36.4585 74.1685 26.0312 75.202 20.2738 77.2922C20.0513 77.3716 19.863 77.5254 19.7411 77.7275C19.6192 77.9296 19.5711 78.1677 19.605 78.4012L29.0437 145.456Z" fill="#3D8BFD"/>
<path d="M57.9995 119.619C57.9195 119.882 57.8144 120.136 57.6854 120.379C57.5573 120.673 57.4097 120.958 57.2434 121.233C57.0424 121.606 56.8211 121.969 56.5805 122.318C56.2982 122.752 55.9915 123.168 55.6616 123.567C55.299 124.031 54.9107 124.475 54.4985 124.896C53.5405 125.86 52.4885 126.725 51.3581 127.48C50.2113 128.212 48.996 128.83 47.7292 129.326C47.1477 129.53 46.5661 129.739 46.0369 129.872C45.5397 130.013 45.0349 130.125 44.5249 130.209C44.1076 130.289 43.6863 130.347 43.2629 130.383C42.943 130.427 42.6204 130.448 42.2975 130.447C42.025 130.477 41.75 130.477 41.4775 130.447C41.4775 130.383 42.6406 130.389 44.4842 130.017C44.9845 129.919 45.4795 129.795 45.9671 129.646C46.5021 129.506 47.0488 129.292 47.6245 129.065C48.8677 128.564 50.0612 127.948 51.1895 127.225C52.3044 126.483 53.3462 125.637 54.3008 124.699C54.7253 124.252 55.144 123.84 55.4639 123.404C55.7979 123.019 56.1104 122.616 56.4002 122.197C57.4935 120.67 57.9413 119.59 57.9995 119.619Z" fill="#263238"/>
<g opacity="0.2">
<path d="M20.5137 171.06C23.4521 172.263 26.6517 172.688 29.8028 172.294C32.9539 171.901 35.95 170.702 38.5011 168.814C40.7633 167.176 42.6592 165.034 45.1017 163.669C48.4864 161.788 52.5165 161.608 56.3839 161.347C61.5539 160.975 66.7704 160.342 71.6322 158.543C72.6466 158.247 73.5664 157.692 74.3015 156.934C74.9703 156.127 75.1971 154.856 74.5399 154.031C73.8828 153.207 72.6324 153.149 71.5566 153.184C55.3429 153.66 40.5249 154.954 24.7416 158.699" fill="black"/>
</g>
<path d="M37.9883 12.9375C43.0013 7.83973 50.9104 4.80896 57.4587 7.712C61.8668 9.63962 64.856 13.7678 68.7234 16.6185C71.5381 18.6971 75.0158 20.3054 76.4929 23.4755C77.7956 26.2683 77.1675 29.5255 76.8535 32.5911C76.5394 35.6567 76.7604 39.1926 79.139 41.1609C80.3835 42.1886 82.0467 42.6008 83.4366 43.402C86.2688 45.0219 87.9495 48.1746 88.5543 51.3738C89.1591 54.573 88.8335 57.8708 88.5078 61.1164L75.0099 63.6827L72.7942 59.961L72.0324 65.7961L54.8068 67.3463L37.9883 12.9375Z" fill="#FDDEC0"/>
<path d="M35.7596 18.7447V22.4896L34.6954 78.6984C34.6023 85.2128 40.8482 90.7576 47.8385 90.8041C54.8927 90.8505 57.7714 85.5786 57.9749 78.9771C58.1843 72.0736 58.5565 64.8044 58.5565 64.8044C58.5565 64.8044 67.5066 63.5735 69.6758 52.031C70.7516 46.283 70.7226 36.8133 70.4492 29.0621C70.3914 27.4082 69.9991 25.783 69.2957 24.2844C68.5924 22.7859 67.5926 21.4448 66.3566 20.3421C65.1205 19.2393 63.6738 18.3976 62.1035 17.8677C60.5331 17.3377 58.8716 17.1305 57.2189 17.2584L35.7596 18.7447Z" fill="#FFAF80"/>
<path d="M67.333 36.2662C67.3269 36.6538 67.1688 37.0236 66.8926 37.2961C66.6164 37.5686 66.2442 37.7221 65.8559 37.7235C65.6659 37.7337 65.4758 37.7057 65.2968 37.6414C65.1178 37.577 64.9535 37.4774 64.8137 37.3486C64.6738 37.2198 64.5612 37.0644 64.4825 36.8914C64.4038 36.7185 64.3606 36.5316 64.3555 36.3417C64.363 35.954 64.5214 35.5844 64.7971 35.3113C65.0729 35.0382 65.4442 34.883 65.8326 34.8786C66.0231 34.8684 66.2136 34.8965 66.393 34.9613C66.5724 35.026 66.7369 35.1261 66.8769 35.2555C67.0168 35.3849 67.1293 35.541 67.2076 35.7146C67.286 35.8883 67.3286 36.0758 67.333 36.2662Z" fill="#263238"/>
<path d="M68.2116 33.6652C68.0197 33.8568 66.9147 32.9858 65.3038 32.951C63.6929 32.9162 62.5008 33.6768 62.3321 33.4736C62.2507 33.3865 62.4484 33.0439 62.9718 32.6839C63.6776 32.2195 64.5116 31.9879 65.3562 32.022C66.199 32.0358 67.0149 32.3209 67.6824 32.8349C68.1476 33.2239 68.3047 33.5781 68.2116 33.6652Z" fill="#263238"/>
<path d="M51.5274 36.2662C51.5198 36.6534 51.3612 37.0223 51.0853 37.2945C50.8094 37.5666 50.4381 37.7206 50.0502 37.7235C49.8602 37.7337 49.6701 37.7057 49.4911 37.6414C49.3121 37.577 49.1479 37.4774 49.008 37.3486C48.8682 37.2198 48.7556 37.0644 48.6769 36.8914C48.5982 36.7185 48.555 36.5316 48.5498 36.3417C48.5573 35.954 48.7157 35.5844 48.9915 35.3113C49.2672 35.0382 49.6386 34.883 50.027 34.8786C50.2174 34.8684 50.408 34.8965 50.5874 34.9613C50.7667 35.026 50.9313 35.1261 51.0712 35.2555C51.2111 35.3849 51.3236 35.541 51.402 35.7146C51.4803 35.8883 51.523 36.0758 51.5274 36.2662Z" fill="#263238"/>
<path d="M52.4274 33.5317C52.2355 33.7175 51.1306 32.8524 49.5197 32.8117C47.9088 32.7711 46.7166 33.5433 46.5479 33.3401C46.4665 33.253 46.6643 32.9046 47.1877 32.5505C47.8937 32.0861 48.7271 31.8527 49.572 31.8828C50.4146 31.8982 51.2299 32.1831 51.8982 32.6956C52.3635 33.0904 52.5205 33.4446 52.4274 33.5317Z" fill="#263238"/>
<path d="M57.9236 45.5909C57.9236 45.498 58.9238 45.3529 60.5405 45.1903C60.9535 45.1613 61.3431 45.0916 61.4187 44.8129C61.4663 44.3917 61.3831 43.9661 61.1803 43.5936C60.8255 42.5892 60.4475 41.5441 60.052 40.4409C58.4935 35.9645 57.3769 32.3124 57.5572 32.2195C57.7375 32.1266 59.1506 35.7438 60.7092 40.2261C61.0872 41.3293 61.4478 42.3802 61.7851 43.3904C62.0325 43.8891 62.0923 44.4598 61.9537 44.9987C61.8906 45.1419 61.7954 45.2688 61.6754 45.3694C61.5554 45.4701 61.4138 45.5419 61.2617 45.5793C61.0335 45.6359 60.7988 45.6613 60.5638 45.6548C58.9355 45.6838 57.9294 45.6606 57.9236 45.5909Z" fill="#263238"/>
<path d="M58.5104 64.5595C53.0328 64.4935 47.6813 62.9095 43.0527 59.9843C43.0527 59.9843 46.606 68.0605 58.2778 67.2941L58.5104 64.5595Z" fill="#EB996E"/>
<path d="M57.1381 49.4112C56.8442 49.0166 56.4546 48.7031 56.006 48.5C55.5574 48.2969 55.0645 48.2108 54.5735 48.25C54.2185 48.2728 53.8718 48.3668 53.5541 48.5264C53.2363 48.686 52.954 48.908 52.7242 49.179C52.5034 49.4403 52.3678 49.7627 52.3356 50.103C52.3034 50.4434 52.376 50.7854 52.5439 51.0834C52.7961 51.3762 53.1297 51.5876 53.5024 51.691C53.8751 51.7944 54.2701 51.785 54.6375 51.664C55.4005 51.4159 56.1078 51.0215 56.7194 50.5028C56.9053 50.3801 57.0653 50.2223 57.1905 50.0383C57.2473 49.9521 57.2775 49.8512 57.2775 49.748C57.2775 49.6448 57.2473 49.5439 57.1905 49.4577" fill="#EB996E"/>
<path d="M53.1731 46.5491C53.4348 46.5491 53.3883 48.2909 54.8422 49.5566C56.2961 50.8223 58.1629 50.6888 58.1687 50.9327C58.1687 51.043 57.7441 51.2636 56.959 51.2578C55.9388 51.2469 54.9557 50.8744 54.185 50.2069C53.4434 49.5685 52.9803 48.6667 52.894 47.6929C52.8416 46.9613 53.051 46.5374 53.1731 46.5491Z" fill="#263238"/>
<path d="M52.9402 28.8694C52.7658 29.299 51.1956 29.0494 49.2823 29.2235C47.369 29.3977 45.8569 29.868 45.6185 29.4732C45.5138 29.2816 45.7871 28.8926 46.4152 28.4746C47.2492 27.9812 48.1847 27.6835 49.1509 27.6041C50.117 27.5246 51.0886 27.6654 51.9923 28.0159C52.6727 28.312 53.01 28.6662 52.9402 28.8694Z" fill="#263238"/>
<path d="M68.2695 30.4313C67.9147 30.7855 66.583 30.3675 64.9604 30.3036C63.3379 30.2397 61.9713 30.4662 61.663 30.0772C61.5293 29.8914 61.7561 29.5314 62.3667 29.2062C63.2061 28.7968 64.1391 28.6165 65.0709 28.6837C65.999 28.7143 66.9022 28.9908 67.6879 29.4849C68.2462 29.8739 68.4265 30.2572 68.2695 30.4313Z" fill="#263238"/>
<path d="M23.7636 76.2296C23.7636 76.2296 5.0609 80.6074 1.43201 98.2928C-0.237049 106.421 -2.56908 153.143 8.32923 160.418C22.397 169.789 40.3146 161.266 40.3146 161.266L37.9884 138.668H26.3574L24.793 113.911C25.2466 115.845 23.7636 76.2296 23.7636 76.2296Z" fill="#3D8BFD"/>
<path d="M90.294 153.997C93.9626 153.621 97.3489 151.86 99.7606 149.075C102.172 146.29 103.427 142.689 103.268 139.011L95.6268 106.596C95.6268 106.596 90.672 78.7845 75.0107 76.2762L80.3494 118.661L79.8376 127.596C79.8376 127.596 80.0819 133.507 80.6809 144.585L90.294 153.997Z" fill="#3D8BFD"/>
<path d="M92.3167 133.716C91.3723 133.75 90.4316 133.853 89.502 134.023C87.2579 134.479 85.2018 135.595 83.5992 137.228C81.9966 138.861 80.921 140.936 80.5112 143.185C80.3592 144.119 80.2756 145.062 80.2611 146.007C80.2 145.756 80.1707 145.499 80.1739 145.241C80.1427 144.54 80.1856 143.837 80.3018 143.145C80.6736 140.835 81.7572 138.697 83.4019 137.03C85.0466 135.363 87.1706 134.249 89.4788 133.843C90.1711 133.716 90.8743 133.658 91.5782 133.669C91.8253 133.655 92.0734 133.67 92.3167 133.716Z" fill="#263238"/>
<path d="M44.0643 11.6428C46.1695 14.4646 47.1698 16.6303 48.4317 21.6525C49.054 24.1085 47.0476 25.8445 45.0587 27.3483C44.8449 27.5105 44.5936 27.6164 44.328 27.6561C44.0624 27.6959 43.791 27.6682 43.539 27.5756C43.2869 27.483 43.0623 27.3286 42.8858 27.1265C42.7092 26.9244 42.5865 26.6812 42.529 26.4193C42.529 26.4193 43.2152 34.1124 40.4296 37.5612C39.1269 39.1811 39.0687 41.2539 39.377 43.0015C39.7265 44.779 40.5921 46.4146 41.866 47.7045C45.0994 51.0952 45.995 56.6284 43.7677 60.7856C43.1224 61.8073 42.5304 62.8615 41.9939 63.9441C41.7227 64.5901 41.5976 65.288 41.6276 65.9878C41.6617 66.3985 41.5384 66.8068 41.2825 67.1302C41.0267 67.4535 40.6574 67.6678 40.2493 67.7297C30.6789 69.1116 20.9822 69.4019 11.3461 68.5948C11.0148 68.5682 10.7002 68.4385 10.4466 68.2239C10.1931 68.0093 10.0134 67.7207 9.93292 67.3987C9.1769 64.1705 10.4389 60.6869 12.0498 57.7838C13.8526 54.5034 16.1206 51.3565 16.7662 47.6696C17.3477 44.186 16.3998 40.4585 17.7955 37.2187C19.5402 33.2531 24.1926 31.3777 26.5188 27.7373C28.7229 24.3059 28.5426 19.8062 30.5141 16.2413C33.0497 11.6545 39.2781 9.54104 44.0817 11.637" fill="#FDDEC0"/>
<path d="M44.6001 15.8988C48.2581 17.7799 49.9504 22.2448 53.5037 24.3118C56.7372 26.193 60.7731 25.6994 64.4776 25.142C64.3439 24.3234 64.2043 23.4989 64.0647 22.6803C64.3981 23.4214 64.863 24.0961 65.4372 24.6718C65.7288 24.9558 66.0921 25.1556 66.4885 25.2496C66.8848 25.3437 67.2994 25.3286 67.6878 25.2059C68.9323 24.7066 69.0952 22.9996 68.7811 21.7223C68.2124 19.6433 67.0958 17.7547 65.5477 16.2529C62.7815 13.45 59.0971 11.735 55.1684 11.4216C51.2397 11.1081 47.3293 12.2172 44.1523 14.5459" fill="#FDDEC0"/>
<path d="M78.8943 98.5483C78.9211 98.6996 78.9328 98.8533 78.9292 99.007C78.9292 99.3321 78.9292 99.7676 78.9699 100.313C78.9699 101.475 79.0513 103.094 79.1385 105.121C79.3072 109.185 79.6852 114.782 80.1446 120.966C80.6041 127.149 80.9472 132.758 81.0577 136.822C81.1158 138.854 81.1449 140.497 81.1274 141.635C81.1274 142.181 81.1274 142.617 81.1274 142.942C81.1413 143.094 81.1413 143.248 81.1274 143.4C81.1006 143.249 81.089 143.095 81.0926 142.942C81.0926 142.617 81.0926 142.181 81.0518 141.635C81.0518 140.474 80.9704 138.86 80.8832 136.828C80.7204 132.764 80.3365 127.172 79.8829 120.983C79.4293 114.794 79.0746 109.197 78.9641 105.132C78.9059 103.1 78.8827 101.451 78.8943 100.313C78.8943 99.7676 78.8943 99.3321 78.8943 99.007C78.8842 98.8542 78.8842 98.701 78.8943 98.5483Z" fill="#263238"/>
<path d="M26.3746 138.674C26.3481 138.568 26.3345 138.459 26.3339 138.349C26.3339 138.099 26.299 137.768 26.2699 137.414C26.2234 136.561 26.1595 135.405 26.0839 133.989C25.9152 131.086 25.6593 127.097 25.3569 122.678C25.0545 118.26 24.7754 114.306 24.5718 111.374C24.4788 109.963 24.4032 108.802 24.345 107.948C24.345 107.571 24.3101 107.263 24.2985 107.019C24.2846 106.91 24.2846 106.798 24.2985 106.688C24.3269 106.795 24.3444 106.904 24.3508 107.014C24.3508 107.257 24.4148 107.565 24.4555 107.943C24.5369 108.79 24.6474 109.946 24.7812 111.362C25.0371 114.265 25.3627 118.243 25.6535 122.661C25.9443 127.079 26.1769 131.08 26.2874 133.977C26.3397 135.429 26.3804 136.601 26.3863 137.408V138.343C26.3973 138.454 26.3934 138.565 26.3746 138.674Z" fill="#263238"/>
<path d="M26.3744 138.674C26.3744 138.726 25.7929 138.755 24.8508 139.063C23.6587 139.457 22.5996 140.174 21.7915 141.133C20.9834 142.093 20.458 143.258 20.274 144.498C20.1286 145.45 20.2042 146.054 20.1518 146.059C20.0995 146.065 20.0937 145.914 20.0588 145.641C20.0156 145.256 20.0156 144.866 20.0588 144.48C20.1948 143.179 20.7173 141.947 21.5592 140.944C22.4108 139.951 23.5348 139.229 24.7926 138.866C25.1724 138.76 25.5622 138.694 25.9557 138.668C26.2232 138.639 26.3744 138.651 26.3744 138.674Z" fill="#263238"/>
<path d="M40.2852 161.272C40.2485 161.155 40.2251 161.034 40.2154 160.912C40.1805 160.644 40.1398 160.302 40.0817 159.878C39.977 158.943 39.8316 157.66 39.6513 156.081C39.3082 152.841 38.843 148.423 38.3312 143.546C38.1625 141.85 37.9939 140.207 37.8427 138.686L37.9881 138.819L28.6832 138.761L25.979 138.721H25.2579C25.1748 138.73 25.0909 138.73 25.0078 138.721C25.0893 138.699 25.1736 138.689 25.2579 138.692H25.979L28.6832 138.651L37.9881 138.599H38.116V138.732L38.6162 143.586C39.093 148.469 39.5234 152.876 39.8432 156.139C39.9828 157.718 40.0991 159.007 40.1805 159.942C40.2154 160.366 40.2387 160.714 40.2619 160.981C40.2778 161.077 40.2856 161.174 40.2852 161.272Z" fill="#263238"/>
<path d="M40.2855 161.271C40.1417 161.333 39.994 161.385 39.8436 161.428L38.57 161.835C37.4592 162.183 35.8483 162.671 33.8361 163.205C31.4809 163.847 29.088 164.344 26.6714 164.691C23.6928 165.093 20.6657 164.95 17.7387 164.267C16.2219 163.941 14.7265 163.522 13.2608 163.013C12.5571 162.758 11.865 162.502 11.1963 162.224C10.8648 162.084 10.5333 161.951 10.2192 161.782L9.74237 161.544L9.29458 161.26C8.20127 160.522 7.25148 159.591 6.4915 158.514C5.82292 157.586 5.23902 156.601 4.74684 155.57C4.05577 154.079 3.47272 152.54 3.00218 150.966C2.82771 150.385 2.69977 149.979 2.62417 149.683C2.57675 149.532 2.53983 149.379 2.51367 149.224C2.5832 149.365 2.63966 149.513 2.68232 149.665L3.11267 150.931C3.62864 152.481 4.24244 153.998 4.95038 155.471C5.44626 156.488 6.03003 157.459 6.69504 158.374C7.4456 159.419 8.37952 160.32 9.4516 161.033L9.88195 161.306L10.3414 161.539C10.6438 161.701 10.9753 161.829 11.3068 161.968C11.9697 162.241 12.656 162.497 13.3596 162.74C14.814 163.244 16.2978 163.659 17.8027 163.983C20.6969 164.658 23.6888 164.809 26.6365 164.43C29.0442 164.095 31.4306 163.622 33.7838 163.013C35.7959 162.502 37.4127 162.044 38.5351 161.736L39.8261 161.382C39.9751 161.33 40.129 161.293 40.2855 161.271Z" fill="#263238"/>
<path d="M30.4159 25.3974C30.9745 24.027 31.1108 22.5214 30.8072 21.0733C30.5037 19.6252 29.7741 18.3005 28.7119 17.2688C27.6202 16.2726 26.2833 15.5833 24.8377 15.2712C23.3921 14.9591 21.8894 15.0353 20.483 15.4922C19.2018 15.8772 18.0759 16.6578 17.267 17.7217C15.8422 19.6842 16.1039 22.5756 17.5926 24.509C18.3715 25.4447 19.3414 26.2038 20.4376 26.7354C21.5337 27.2671 22.7308 27.5591 23.949 27.5921C26.3901 27.6407 28.811 27.1407 31.0323 26.1289" fill="#FDDEC0"/>
<path d="M49.7527 117.482C53.8236 120.832 63.3959 128.763 63.3959 128.763L68.752 127.811L52.5151 114.173C52.0943 113.821 51.5552 113.643 51.0075 113.674C50.4597 113.705 49.9445 113.944 49.5666 114.341C49.3615 114.554 49.2027 114.807 49.1003 115.084C48.9979 115.362 48.954 115.657 48.9715 115.952C48.989 116.247 49.0674 116.535 49.2019 116.799C49.3363 117.062 49.5238 117.295 49.7527 117.482Z" fill="#455A64"/>
<path d="M49.3522 115.74L47.247 113.842C47.049 113.662 46.9281 113.413 46.9097 113.147C46.8913 112.881 46.9767 112.618 47.1481 112.413C47.2382 112.308 47.3485 112.222 47.4725 112.16C47.5965 112.099 47.7316 112.062 47.8699 112.054C48.0082 112.045 48.1468 112.064 48.2776 112.11C48.4083 112.156 48.5285 112.227 48.6311 112.32L50.6607 114.178L49.3522 115.74Z" fill="#455A64"/>
<path d="M55.5988 116.762C55.2422 117.355 54.8015 117.893 54.2903 118.359C53.8499 118.892 53.337 119.361 52.7666 119.752C53.1238 119.158 53.5645 118.619 54.0751 118.15C54.5126 117.616 55.0259 117.148 55.5988 116.762Z" fill="#263238"/>
<path d="M55.7495 123.439C55.1766 123.138 54.6333 122.785 54.127 122.382C53.1616 121.686 51.8531 120.675 50.4748 119.479C49.769 118.954 49.1856 118.283 48.765 117.511C48.4674 116.835 48.4486 116.07 48.7127 115.38C48.8891 114.923 49.1866 114.521 49.5734 114.219C49.8467 114.016 50.027 113.952 50.0328 113.969C50.0386 113.987 49.8874 114.085 49.649 114.312C49.311 114.631 49.059 115.031 48.9162 115.473C48.7005 116.111 48.738 116.807 49.0209 117.418C49.4406 118.142 50.0048 118.773 50.6783 119.27C52.045 120.46 53.3244 121.494 54.2607 122.231C54.7816 122.603 55.2788 123.006 55.7495 123.439Z" fill="#263238"/>
<path d="M38.1689 140.48C42.0305 139.191 46.1246 140.062 49.9803 138.767C51.3041 138.42 52.5442 137.81 53.6266 136.973C54.8537 135.887 55.476 134.291 56.453 132.978C59.3607 129.054 64.8215 128.241 69.6949 127.753C70.825 127.571 71.9781 127.587 73.1028 127.799C73.665 127.913 74.1885 128.169 74.6225 128.543C75.0565 128.917 75.3864 129.397 75.5803 129.936C75.8943 131.033 75.1848 132.404 74.045 132.52C75.115 132.566 75.8594 133.646 76.0571 134.697C76.2549 135.748 76.0571 136.828 76.22 137.885C76.4177 139.371 77.2319 140.759 77.1853 142.257C77.1214 144.306 75.4407 145.996 73.5216 146.785C71.6024 147.575 69.5263 147.679 67.4967 147.947C57.4939 149.352 49.9338 155.013 40.2858 159.292" fill="#FFAF80"/>
<path d="M76.1506 136.061C76.2489 136.222 76.3791 136.36 76.5332 136.468C76.6873 136.575 76.8619 136.65 77.0463 136.688C77.2306 136.726 77.4207 136.725 77.6048 136.686C77.7888 136.647 77.9629 136.571 78.1163 136.462C78.4148 136.225 78.643 135.911 78.7762 135.554C78.9094 135.197 78.9426 134.81 78.8723 134.436C78.7201 133.687 78.3889 132.986 77.9069 132.392C77.0573 131.294 76.124 130.263 75.1154 129.309L72.0332 131.898L76.1506 136.061Z" fill="#FFAF80"/>
<path d="M75.01 132.682C75.01 132.781 73.1142 132.624 70.8287 132.978C68.5432 133.333 66.7578 134.018 66.7578 133.931C67.1059 133.701 67.4861 133.525 67.886 133.408C68.8302 133.074 69.8037 132.829 70.7938 132.676C71.7846 132.526 72.7877 132.474 73.7888 132.52C74.2016 132.515 74.613 132.569 75.01 132.682Z" fill="#EB996E"/>
<path d="M76.3714 138.732C76.3714 138.825 74.7838 138.5 72.8239 138.558C70.8641 138.616 69.3055 138.999 69.2881 138.906C71.5708 138.099 74.0517 138.038 76.3714 138.732Z" fill="#EB996E"/>
<path d="M76.0453 136.944C75.9929 136.944 76.0453 136.491 75.9581 135.783C75.8463 134.864 75.5261 133.982 75.0218 133.205C74.9008 133.017 74.7687 132.837 74.6263 132.665L74.5391 132.555L74.6321 132.462C74.8975 132.193 75.1058 131.873 75.2447 131.522C75.3835 131.171 75.4501 130.795 75.4405 130.418C75.4405 129.837 75.266 129.512 75.3067 129.495C75.5145 129.754 75.6292 130.075 75.6324 130.406C75.6769 130.82 75.6291 131.238 75.4923 131.63C75.3555 132.023 75.1333 132.38 74.8415 132.677V132.473C74.9941 132.659 75.1359 132.852 75.266 133.054C75.7972 133.87 76.1058 134.811 76.1616 135.783C76.2077 136.174 76.168 136.57 76.0453 136.944Z" fill="#EB996E"/>
<path d="M76.1565 135.73L81.2276 140.48L81.8732 143.301L77.1859 142.245C76.5113 139.864 76.0169 137.594 76.1565 135.73Z" fill="#455A64"/>
<path d="M69.2877 141.781C69.183 141.966 41.9082 155.39 41.9082 155.39V158.293L69.7413 143.836L104.268 142.553V140.509L69.2877 141.781Z" fill="#F5F5F5"/>
<path d="M41.9082 158.693C42.1001 158.566 72.021 155.872 72.021 155.872L104.268 142.518L69.7413 143.818L41.9082 158.275V158.693Z" fill="#263238"/>
<path d="M70.5564 151.791C70.3179 150.224 71.8183 148.888 73.3478 148.464C74.8773 148.041 76.5115 148.215 78.0584 147.884C79.04 147.614 80.0002 147.273 80.9313 146.862C85.7 145.039 90.934 144.94 96.0516 144.87C96.3489 145.563 96.3955 146.336 96.1832 147.059C95.9709 147.782 95.5131 148.408 94.8885 148.83C95.3113 150.079 95.2553 151.44 94.7315 152.651C94.204 153.849 93.483 154.954 92.5972 155.919C91.9286 156.803 91.0676 157.524 90.0791 158.027C89.045 158.405 87.9459 158.575 86.8456 158.526C83.4145 158.596 79.7391 158.602 76.9069 156.68C74.7028 155.182 73.1792 152.616 70.6261 151.861H71.2077" fill="#FFAF80"/>
<path d="M93.4102 149.648C93.1965 149.696 92.9777 149.717 92.7588 149.712L90.9676 149.77C89.4556 149.804 87.3678 149.828 85.0649 149.839H81.8082C81.3208 149.846 80.8356 149.774 80.3717 149.624C79.9575 149.478 79.5955 149.214 79.3308 148.864C79.2196 148.719 79.1387 148.554 79.0928 148.377C79.0468 148.201 79.0368 148.017 79.0632 147.836C79.1068 147.567 79.2328 147.317 79.4238 147.122C79.4951 147.038 79.5844 146.972 79.6851 146.928C79.7859 146.883 79.8954 146.862 80.0054 146.867C79.8065 146.936 79.627 147.051 79.482 147.203C79.2955 147.415 79.1927 147.688 79.1927 147.97C79.1927 148.252 79.2955 148.524 79.482 148.736C79.7283 149.04 80.0576 149.266 80.4299 149.386C80.8715 149.515 81.3308 149.574 81.7907 149.561H85.0416C87.3678 149.561 89.4323 149.561 90.9444 149.561L92.7356 149.595C92.9618 149.583 93.1886 149.601 93.4102 149.648Z" fill="#EB996E"/>
<path d="M91.6541 152.516C91.3859 152.592 91.1115 152.645 90.8341 152.673C90.2991 152.76 89.5256 152.87 88.566 152.963C87.4357 153.076 86.2982 153.101 85.164 153.038C83.7785 152.926 82.405 152.697 81.0582 152.353C78.6269 151.761 76.1344 151.455 73.6318 151.442C72.6722 151.442 71.8871 151.477 71.3579 151.506C71.0773 151.53 70.7952 151.53 70.5146 151.506C70.7866 151.432 71.0652 151.385 71.3463 151.366C72.1029 151.273 72.8638 151.219 73.626 151.204C76.1503 151.151 78.6706 151.431 81.1222 152.034C82.4589 152.374 83.8199 152.611 85.193 152.742C86.3141 152.819 87.4391 152.819 88.5602 152.742C89.5198 152.678 90.3049 152.597 90.8283 152.551C91.1017 152.512 91.3784 152.5 91.6541 152.516Z" fill="#EB996E"/>
<path d="M88.811 155.581C88.6012 155.645 88.3845 155.684 88.1655 155.698C87.7526 155.756 87.1478 155.831 86.4208 155.895C84.4673 156.1 82.4948 156.035 80.5588 155.703C78.2617 155.268 76.4879 154.095 75.1096 153.555C74.3662 153.254 73.5975 153.019 72.8125 152.853C73.03 152.826 73.2505 152.838 73.4638 152.887C74.0615 152.977 74.6469 153.135 75.2085 153.358C76.6333 153.863 78.407 154.983 80.6402 155.407C82.5607 155.731 84.5133 155.823 86.4557 155.68L88.2004 155.581C88.4033 155.559 88.6081 155.559 88.811 155.581Z" fill="#EB996E"/>
<g opacity="0.2">
<path d="M81.0752 139.992C81.2987 137.863 81.8725 135.786 82.7733 133.843C83.6847 131.902 85.2283 130.326 87.1524 129.373C88.119 128.912 89.1873 128.704 90.2567 128.769C91.326 128.834 92.3611 129.17 93.2645 129.744C93.8101 130.095 94.2359 130.604 94.4858 131.202C94.6078 131.5 94.6447 131.826 94.5924 132.144C94.54 132.461 94.4005 132.758 94.1892 133.002C93.5495 133.687 92.4446 133.582 91.5257 133.536C89.3812 133.477 87.2647 134.033 85.427 135.138C83.5893 136.244 82.1073 137.851 81.1566 139.771" fill="black"/>
</g>
<g opacity="0.2">
<path d="M30.5717 138.227C32.8979 134.064 32.0605 128.844 30.2867 124.432C28.513 120.019 25.8669 115.955 24.5119 111.391C24.2569 120.649 25.6046 129.88 28.4955 138.68" fill="black"/>
</g>
<path d="M34.6673 74.5517C34.6673 74.5517 37.4879 81.1881 47.665 80.7642C57.8422 80.3404 58.1679 72.4615 58.1679 72.4615L64.9779 79.6901L58.511 92.9919L49.8226 99.4657L37.988 94.6118L28.2354 87.0639L34.6673 74.5517Z" fill="#3D8BFD"/>
<g opacity="0.5">
<path d="M10.8341 102.92C10.9388 103.048 9.61285 104.291 7.86238 105.69C6.1119 107.089 4.61731 108.117 4.51263 107.983C4.40795 107.85 5.73389 106.619 7.47855 105.22C9.22321 103.82 10.7294 102.787 10.8341 102.92Z" fill="#FAFAFA"/>
</g>
<path d="M15.6221 95.7613C15.5698 95.9123 13.9647 95.4594 12.2258 94.3853C10.487 93.3111 9.35297 92.0977 9.46347 91.9815C9.57396 91.8654 10.8534 92.8467 12.5399 93.8743C14.2264 94.902 15.6686 95.5987 15.6221 95.7613Z" fill="#FAFAFA"/>
<path d="M24.345 96.5395C24.4845 96.644 23.1819 98.5077 21.7338 100.877C20.2857 103.246 19.1633 105.22 19.0121 105.144C18.8609 105.069 19.7274 102.955 21.222 100.557C22.7166 98.1594 24.2228 96.435 24.345 96.5395Z" fill="#FAFAFA"/>
<path d="M16.8782 116.715C16.7619 116.82 15.4185 115.45 14.2438 113.423C13.069 111.397 12.534 109.557 12.6852 109.504C12.8364 109.452 13.6099 111.147 14.7672 113.116C15.9245 115.084 17.012 116.599 16.8782 116.715Z" fill="#FAFAFA"/>
<path d="M9.07318 126.476C8.91034 126.476 8.56723 125.024 8.31716 123.178C8.0671 121.331 7.99731 119.816 8.16014 119.793C8.32298 119.77 8.66609 121.25 8.91616 123.096C9.16623 124.943 9.22438 126.452 9.07318 126.476Z" fill="#FAFAFA"/>
<g opacity="0.5">
<path d="M16.4247 129.135C16.2793 129.054 17.0063 127.498 18.0938 125.651C19.1813 123.805 20.1409 122.394 20.2862 122.475C20.4316 122.557 19.7047 124.118 18.6172 125.959C17.5297 127.799 16.5701 129.199 16.4247 129.135Z" fill="#FAFAFA"/>
</g>
<path d="M7.88749 139.243C7.76536 139.353 6.4685 138.082 5.20653 136.247C3.94456 134.412 3.22925 132.764 3.36882 132.676C3.5084 132.589 4.46796 134.105 5.69504 135.905C6.92211 137.704 8.01543 139.133 7.88749 139.243Z" fill="#FAFAFA"/>
<path d="M19.4898 137.577C19.6061 137.693 18.2685 139.232 16.5064 141.008C14.7443 142.785 13.2148 144.138 13.0927 144.022C12.9706 143.905 14.3081 142.367 16.0761 140.584C17.844 138.802 19.3677 137.461 19.4898 137.577Z" fill="#FAFAFA"/>
<g opacity="0.5">
<path d="M12.8944 158.438C12.7839 158.554 11.4929 157.486 10.3182 155.802C9.14342 154.118 8.5735 152.551 8.71308 152.487C8.85265 152.423 9.67264 153.834 10.8183 155.454C11.964 157.074 13.0166 158.316 12.8944 158.438Z" fill="#FAFAFA"/>
</g>
<path d="M27.8636 154.217C27.945 154.362 26.5144 155.332 24.6709 156.383C22.8274 157.433 21.2572 158.171 21.1816 158.026C21.106 157.88 22.5308 156.911 24.3743 155.86C26.2178 154.809 27.7822 154.072 27.8636 154.217Z" fill="#FAFAFA"/>
<path d="M33.6969 149.41C33.5922 149.532 32.2372 148.498 31.0043 146.808C29.7714 145.119 29.1957 143.516 29.3469 143.458C29.4981 143.4 30.3007 144.829 31.4928 146.454C32.685 148.08 33.8191 149.282 33.6969 149.41Z" fill="#FAFAFA"/>
<path d="M43.9836 115.972C44.0883 116.106 42.5472 117.43 40.5467 118.922C38.5461 120.414 36.848 121.517 36.7433 121.384C36.6386 121.25 38.1856 119.932 40.1861 118.44C42.1866 116.948 43.8848 115.845 43.9836 115.972Z" fill="#FAFAFA"/>
<path d="M33.1444 115.264C32.9758 115.264 33.0049 113.656 33.2026 111.711C33.4003 109.766 33.6969 108.227 33.8656 108.227C34.0342 108.227 34.0051 109.835 33.8074 111.78C33.6097 113.725 33.3073 115.293 33.1444 115.264Z" fill="#FAFAFA"/>
<g opacity="0.5">
<path d="M43.1416 101.672C43.0486 101.806 41.2458 100.697 39.2685 99.0072C37.2912 97.3176 35.9071 95.7209 36.0234 95.6106C36.1397 95.5003 37.7041 96.8821 39.6639 98.5485C41.6238 100.215 43.2405 101.533 43.1416 101.672Z" fill="#FAFAFA"/>
</g>
<path d="M35.6333 84.7066C35.7613 84.8169 34.4702 86.5239 32.7954 88.5212C31.1205 90.5185 29.6201 92.0455 29.4921 91.941C29.3642 91.8365 30.6553 90.1237 32.3301 88.1264C34.005 86.1291 35.5054 84.6021 35.6333 84.7066Z" fill="#FAFAFA"/>
<g opacity="0.5">
<path d="M27.0316 82.8891C26.9385 83.04 25.6416 82.3724 23.9493 81.8092C22.257 81.246 20.8555 80.9731 20.8555 80.7989C20.8555 80.6247 22.3908 80.6363 24.1587 81.2344C25.9266 81.8324 27.1188 82.7497 27.0316 82.8891Z" fill="#FAFAFA"/>
</g>
<path d="M48.8919 90.71C48.7349 90.6636 49.0083 89.2527 49.5084 87.5573C50.0085 85.862 50.5436 84.5266 50.6715 84.573C50.7994 84.6195 50.5552 86.0303 50.0899 87.7257C49.6247 89.4211 49.0548 90.7623 48.8919 90.71Z" fill="#FAFAFA"/>
<path d="M54.1215 104.076C53.9529 104.076 53.8947 102.682 53.9936 100.987C54.0924 99.2915 54.3076 97.9271 54.4704 97.9329C54.6333 97.9387 54.6972 99.3263 54.5984 101.022C54.4995 102.717 54.2843 104.087 54.1215 104.076Z" fill="#FAFAFA"/>
<path d="M62.7286 114.103C62.6239 114.236 61.3503 113.388 59.8848 112.21C58.4192 111.031 57.3143 109.975 57.419 109.847C57.5237 109.719 58.7973 110.561 60.2628 111.74C61.7283 112.918 62.8158 113.975 62.7286 114.103Z" fill="#FAFAFA"/>
<path d="M71.8636 100.104C71.9741 100.226 70.84 101.411 69.328 102.74C67.816 104.07 66.5017 105.063 66.4202 104.923C66.3388 104.784 67.4438 103.617 68.9558 102.288C70.4678 100.958 71.7531 99.9767 71.8636 100.104Z" fill="#FAFAFA"/>
<g opacity="0.5">
<path d="M67.6583 93.4912C67.5653 93.6306 66.1289 92.841 64.5819 91.5578C63.035 90.2747 61.9882 89.0089 62.1045 88.8986C62.2208 88.7883 63.4421 89.8334 64.9658 91.0875C66.4894 92.3416 67.7514 93.3519 67.6583 93.4912Z" fill="#FAFAFA"/>
</g>
<path d="M78.2308 81.705C78.3646 81.7979 77.6493 82.9997 76.4164 84.161C75.1835 85.3222 73.9331 85.9609 73.8459 85.8215C73.7587 85.6822 74.8055 84.8461 75.9977 83.7255C77.1898 82.6049 78.0913 81.5889 78.2308 81.705Z" fill="#FAFAFA"/>
<g opacity="0.5">
<path d="M70.9622 80.6015C70.9622 80.7641 69.0838 80.6306 66.8913 80.0674C64.6989 79.5042 62.9775 78.7494 63.0356 78.5926C63.0938 78.4359 64.8559 78.9352 67.0425 79.481C69.2291 80.0267 70.9854 80.4274 70.9622 80.6015Z" fill="#FAFAFA"/>
</g>
<g opacity="0.5">
<path d="M84.4656 99.3668C84.3086 99.332 84.6691 97.0444 85.5007 94.362C86.3324 91.6796 87.2919 89.5778 87.4431 89.6358C87.5943 89.6939 86.8965 91.8596 86.0823 94.5362C85.2681 97.2128 84.6342 99.4017 84.4656 99.3668Z" fill="#FAFAFA"/>
</g>
<path d="M87.4606 112.175C87.3384 112.285 85.902 110.967 84.2504 109.22C82.5988 107.472 81.3426 105.968 81.488 105.852C81.6334 105.736 83.0408 107.06 84.6924 108.808C86.344 110.555 87.5827 112.059 87.4606 112.175Z" fill="#FAFAFA"/>
<g opacity="0.5">
<path d="M92.0959 119.427C91.9272 119.427 91.8226 117.523 91.8633 115.177C91.904 112.831 92.0726 110.939 92.2413 110.939C92.4099 110.939 92.5088 112.843 92.4681 115.189C92.4274 117.534 92.2587 119.433 92.0959 119.427Z" fill="#FAFAFA"/>
</g>
<path d="M87.3909 131.376C87.2571 131.469 86.0126 129.948 84.8611 127.823C83.7097 125.698 83.1165 123.822 83.2619 123.758C83.4073 123.695 84.2563 125.442 85.3962 127.527C86.536 129.611 87.5305 131.277 87.3909 131.376Z" fill="#FAFAFA"/>
<path d="M99.3997 133.559C99.5219 133.675 98.7135 134.651 97.6027 135.736C96.492 136.822 95.4917 137.6 95.3754 137.478C95.2591 137.356 96.0674 136.381 97.1782 135.295C98.289 134.209 99.2834 133.437 99.3997 133.559Z" fill="#FAFAFA"/>
<g opacity="0.5">
<path d="M70.1596 119.944C70.0084 119.897 70.5434 117.993 71.9042 116.007C73.2651 114.022 74.8643 112.843 74.9632 112.971C75.0621 113.098 73.7187 114.434 72.4044 116.356C71.0901 118.277 70.3224 120.008 70.1596 119.944Z" fill="#FAFAFA"/>
</g>
<path d="M36.2499 135.87C36.0871 135.829 36.3721 134.128 36.8838 132.014C37.3956 129.901 37.9539 128.258 38.1167 128.299C38.2796 128.339 37.9888 130.069 37.477 132.16C36.9652 134.25 36.407 135.91 36.2499 135.87Z" fill="#FAFAFA"/>
<path d="M50.5145 137.292C50.4214 137.432 48.9734 136.648 47.281 135.55C45.5887 134.453 44.286 133.443 44.3733 133.303C44.4605 133.164 45.9086 133.942 47.6067 135.045C49.3048 136.148 50.625 137.153 50.5145 137.292Z" fill="#FAFAFA"/>
<path d="M49.8163 127.004C49.6767 127.097 48.9963 126.325 48.2926 125.262C47.589 124.2 47.1295 123.294 47.2749 123.201C47.4203 123.108 48.0949 123.88 48.7986 124.943C49.5023 126.005 49.9326 126.911 49.8163 127.004Z" fill="#FAFAFA"/>
<path d="M56.1161 129.349C56.2091 129.483 55.5985 130.075 54.7494 130.673C53.9004 131.271 53.1327 131.643 53.0339 131.509C52.935 131.376 53.5514 130.778 54.4005 130.18C55.2496 129.582 56.0172 129.198 56.1161 129.349Z" fill="#FAFAFA"/>
<g opacity="0.5">
<path d="M39.6684 171.09C39.4998 171.037 39.7731 169.719 40.0116 168.094C40.25 166.468 40.3837 165.127 40.5582 165.127C40.7327 165.127 40.8606 166.503 40.6106 168.181C40.3605 169.859 39.8196 171.142 39.6684 171.09Z" fill="#FAFAFA"/>
</g>
<g opacity="0.5">
<path d="M54.1623 166.358C54.0169 166.439 52.9119 164.772 51.6965 162.642C50.4811 160.511 49.6087 158.705 49.7541 158.624C49.8995 158.543 51.0044 160.203 52.2199 162.34C53.4353 164.476 54.3077 166.294 54.1623 166.358Z" fill="#FAFAFA"/>
</g>
<g opacity="0.5">
<path d="M69.531 159.907C69.6648 160.006 68.2109 162.131 66.2801 164.651C64.3494 167.17 62.6745 169.127 62.5407 169.028C62.407 168.93 63.8667 166.805 65.7974 164.285C67.7282 161.765 69.4031 159.803 69.531 159.907Z" fill="#FAFAFA"/>
</g>
<g opacity="0.5">
<path d="M73.8644 172.233C73.8644 172.396 71.9628 172.814 69.5668 173.157C67.1708 173.499 65.2051 173.65 65.1818 173.488C65.1586 173.325 67.0777 172.907 69.4795 172.559C71.8813 172.21 73.8412 172.065 73.8644 172.233Z" fill="#FAFAFA"/>
</g>
<path d="M74.5325 166.021C74.3639 165.98 74.5325 164.743 74.5732 163.222C74.6139 161.701 74.5732 160.453 74.7768 160.429C74.9803 160.406 75.2536 161.66 75.178 163.245C75.1024 164.83 74.6895 166.061 74.5325 166.021Z" fill="#FAFAFA"/>
<path d="M53.7769 173.255C53.7188 173.4 52.1428 172.884 50.5028 171.699C48.8628 170.515 47.8625 169.203 47.9847 169.104C48.1068 169.005 49.2699 170.079 50.8575 171.206C52.4452 172.332 53.8467 173.093 53.7769 173.255Z" fill="#FAFAFA"/>
<path d="M29.1147 172.338C28.9519 172.297 29.1147 170.968 29.5451 169.377C29.9754 167.786 30.4058 166.52 30.5686 166.561C30.7315 166.601 30.5337 167.925 30.1325 169.522C29.7312 171.119 29.2776 172.379 29.1147 172.338Z" fill="#FAFAFA"/>
<path d="M26.4319 25.4787C26.4668 25.4323 27.1298 26.0013 28.3452 26.64C29.0594 27.0243 29.8045 27.3487 30.5726 27.6096C31.5195 27.9148 32.493 28.1305 33.4804 28.254C34.4677 28.3589 35.4629 28.3686 36.4521 28.2831C37.2625 28.2091 38.0645 28.0614 38.8481 27.8418C40.1857 27.4702 40.9533 27.0696 40.9824 27.1219C40.8189 27.2451 40.6412 27.3484 40.4532 27.4296C40.2427 27.5423 40.0252 27.6412 39.8018 27.7257C39.5092 27.8497 39.2103 27.9582 38.9062 28.0508C38.1167 28.3003 37.3044 28.4715 36.4812 28.5618C35.472 28.6663 34.4547 28.6663 33.4455 28.5618C32.4394 28.4373 31.4492 28.2076 30.4912 27.8767C29.7107 27.6019 28.9589 27.2519 28.2464 26.8316C27.9382 26.6632 27.6648 26.4716 27.4497 26.3148C27.2462 26.1808 27.0519 26.0334 26.8681 25.8735C26.5773 25.6413 26.4145 25.4962 26.4319 25.4787Z" fill="#D5B698"/>
<path d="M41.4549 32.1614C41.2513 32.2486 41.0387 32.3128 40.821 32.353C40.4081 32.4575 39.8091 32.5968 39.0763 32.7245C37.1109 33.1082 35.0909 33.12 33.1212 32.7594C31.1352 32.376 29.3284 31.3568 27.9745 29.8563C27.5779 29.3941 27.2489 28.878 26.9974 28.3235C26.8951 28.1268 26.8244 27.9152 26.7881 27.6965C27.1563 28.4208 27.6092 29.0991 28.1373 29.717C29.4926 31.139 31.2562 32.1066 33.1852 32.4865C35.1222 32.8339 37.1042 32.8516 39.0472 32.5388C39.7974 32.4342 40.4022 32.3297 40.7919 32.2601C41.0082 32.2014 41.2308 32.1683 41.4549 32.1614Z" fill="#D5B698"/>
<path d="M20.745 67.6948C20.7173 67.6701 20.6919 67.6429 20.6694 67.6135C20.6287 67.5554 20.5531 67.4741 20.4717 67.3522C20.2462 66.9977 20.0903 66.6036 20.0122 66.191C19.8956 65.4227 19.9492 64.6382 20.1692 63.8928C20.3893 63.1475 20.7705 62.4594 21.2858 61.877C21.9946 61.0799 22.8154 60.3896 23.7225 59.8275C24.6763 59.2004 25.7464 58.6256 26.799 57.9173C27.9141 57.2129 28.8674 56.2809 29.5962 55.1826C29.9605 54.5997 30.1983 53.947 30.2941 53.2666C30.3847 52.5612 30.3472 51.8453 30.1836 51.1532C29.8018 49.7824 29.3098 48.4446 28.7123 47.1528C28.1465 45.9198 27.8133 44.5932 27.7294 43.2395C27.6603 40.9335 28.3621 38.6701 29.7242 36.8064C30.609 35.5422 31.7834 34.5071 33.1495 33.7872L33.8009 33.4737L34.301 33.2995C34.4366 33.2463 34.5767 33.2055 34.7197 33.1776C34.5931 33.2484 34.4609 33.3086 34.3243 33.3575L33.8416 33.5608L33.2077 33.8917C31.8868 34.6382 30.7548 35.677 29.8986 36.9283C28.5961 38.7656 27.9322 40.9782 28.0086 43.2279C28.0974 44.5466 28.4286 45.8377 28.9856 47.0367C29.5948 48.3482 30.0946 49.7075 30.4802 51.101C30.6473 51.828 30.6847 52.5788 30.5907 53.3189C30.4911 54.0407 30.2394 54.7333 29.8521 55.351C29.0938 56.4833 28.1026 57.4413 26.9444 58.1611C25.8743 58.8695 24.7984 59.4385 23.8505 60.0539C22.9567 60.5925 22.1457 61.2574 21.4429 62.028C20.9386 62.5858 20.5594 63.2448 20.3307 63.9607C20.1021 64.6766 20.0292 65.433 20.1169 66.1794C20.2227 66.7213 20.4362 67.2366 20.745 67.6948Z" fill="#D5B698"/>
<path d="M36.2381 67.9037C36.1186 67.8531 36.0054 67.7888 35.9008 67.7121C35.5981 67.4949 35.3428 67.2183 35.1506 66.8993C34.8511 66.3889 34.6721 65.817 34.6272 65.2271C34.5655 64.4438 34.6523 63.6559 34.8831 62.9047C35.3542 61.2035 36.779 59.6533 37.849 57.6792C38.4318 56.6738 38.735 55.5313 38.7272 54.3697C38.6678 53.1236 38.3489 51.9036 37.7909 50.7874C36.6859 48.4649 34.9878 46.5954 33.8131 44.6562C33.2359 43.7495 32.7748 42.7742 32.4406 41.7531C32.159 40.8487 32.0621 39.8971 32.1556 38.9546C32.2457 37.5751 32.8518 36.2799 33.8538 35.3258C34.1341 35.0883 34.4476 34.8927 34.7842 34.7452C34.8994 34.6895 35.0203 34.6467 35.1448 34.6174C34.7059 34.8343 34.2973 35.1076 33.9294 35.4303C32.9957 36.3893 32.4419 37.6539 32.3708 38.9894C32.2934 39.9032 32.4001 40.8232 32.6848 41.695C33.0165 42.6997 33.4758 43.6578 34.0515 44.5458C34.633 45.4922 35.3542 46.4386 36.0695 47.4489C36.8329 48.4714 37.5006 49.5617 38.0642 50.7061C38.6458 51.8602 38.973 53.1253 39.0238 54.4162C39.0258 55.6253 38.7067 56.8133 38.0991 57.8592C36.9825 59.8391 35.5577 61.3429 35.0867 62.9918C34.8557 63.7133 34.7571 64.4706 34.7959 65.2271C34.8278 65.7954 34.9825 66.35 35.2495 66.8528C35.5012 67.2688 35.8381 67.6269 36.2381 67.9037Z" fill="#D5B698"/>
<path d="M59.1864 24.3174C59.1864 24.3174 59.105 24.3174 58.9654 24.2245C58.7637 24.1154 58.5695 23.9932 58.3839 23.8587C57.7184 23.3441 57.1528 22.7125 56.7148 21.9949C56.0786 20.9346 55.5395 19.8192 55.1039 18.6622C54.8364 18.0236 54.5224 17.3559 54.1967 16.6998C53.8322 16.0219 53.4038 15.3803 52.9173 14.7838C51.1811 12.6794 48.8313 11.1675 46.1945 10.4582C45.0974 10.1944 43.9778 10.035 42.8506 9.98213C43.1521 9.93171 43.4583 9.91419 43.7636 9.92988C44.6001 9.95111 45.4323 10.0581 46.2469 10.2492C48.9576 10.9138 51.3796 12.4376 53.1499 14.5922C53.6521 15.2045 54.0942 15.8636 54.47 16.5604C54.8248 17.2339 55.1039 17.9132 55.3656 18.5577C55.7878 19.7057 56.3012 20.8182 56.9009 21.8846C57.3173 22.5918 57.8456 23.2271 58.4653 23.7658C58.9131 24.1432 59.2039 24.2941 59.1864 24.3174Z" fill="#D5B698"/>
<path d="M67.2978 24.2711C67.1919 24.275 67.0861 24.2633 66.9837 24.2362C66.6861 24.1901 66.3938 24.1143 66.1114 24.0098C65.0655 23.6233 64.1182 23.0107 63.3374 22.2157C62.1902 21.0395 61.2222 19.7014 60.4645 18.2443C59.5515 16.6477 58.6675 14.8129 57.3009 13.2163C55.9985 11.724 54.2791 10.6544 52.3635 10.1448C50.7977 9.7296 49.1857 9.51307 47.5657 9.50037C46.1758 9.47134 45.0534 9.50037 44.2741 9.55843L43.3785 9.59327C43.2743 9.60744 43.1687 9.60744 43.0645 9.59327C43.1642 9.56135 43.268 9.54376 43.3727 9.54101L44.2683 9.44811C45.0417 9.38425 46.1699 9.29135 47.5657 9.29716C49.2087 9.27504 50.8474 9.47028 52.4391 9.87777C54.4155 10.3877 56.1901 11.4851 57.5277 13.0247C58.935 14.6678 59.8132 16.5083 60.703 18.1166C61.4403 19.5572 62.3782 20.8865 63.4886 22.0647C64.2372 22.8581 65.1447 23.4853 66.1521 23.9053C66.8732 24.184 67.3036 24.2362 67.2978 24.2711Z" fill="#D5B698"/>
<path d="M81.0291 61.9524C81 61.9524 81.1803 61.5402 81.3722 60.7912C81.6511 59.7231 81.7687 58.6194 81.7211 57.5166C81.6658 55.8806 81.2445 54.2776 80.4882 52.8253C80.0374 51.9733 79.4784 51.183 78.825 50.4738C78.1504 49.7248 77.3769 49.0165 76.6035 48.2733C75.8225 47.5587 75.101 46.782 74.4459 45.9508C73.8441 45.1718 73.3238 44.3333 72.8931 43.4484C72.1687 41.9465 71.7046 40.3327 71.5207 38.6758C71.3926 37.562 71.4043 36.4366 71.5556 35.3257C71.5888 35.0246 71.6412 34.726 71.7126 34.4316C71.7279 34.3256 71.7572 34.2221 71.7998 34.1238C71.8289 34.1238 71.7359 34.5593 71.6719 35.3431C71.5663 36.443 71.5858 37.5513 71.73 38.6468C71.9476 40.272 72.4248 41.852 73.1432 43.3265C73.5728 44.1899 74.0871 45.0087 74.6785 45.7709C75.3291 46.5806 76.0406 47.3395 76.807 48.041C77.5863 48.7842 78.3597 49.4984 79.046 50.2648C79.7124 50.9942 80.2795 51.8083 80.7325 52.6859C81.4957 54.1778 81.9075 55.8241 81.9363 57.4992C81.9642 58.621 81.813 59.7401 81.4885 60.8144C81.4038 61.1067 81.2969 61.392 81.1686 61.6679C81.1368 61.7693 81.0897 61.8652 81.0291 61.9524Z" fill="#D5B698"/>
<path d="M17.3194 23.8122C17.318 23.6161 17.3434 23.4208 17.395 23.2316C17.5126 22.7269 17.6984 22.2405 17.9475 21.7859C18.3631 21.0144 18.9375 20.3395 19.633 19.8053C20.3284 19.2711 21.1291 18.8898 21.9825 18.6864C22.8359 18.4829 23.7228 18.462 24.5849 18.625C25.447 18.7879 26.2649 19.131 26.9848 19.6318C27.4204 19.9207 27.8122 20.2707 28.1479 20.6711C28.2822 20.8106 28.3923 20.9715 28.4736 21.1472C27.9818 20.6504 27.4422 20.2031 26.8627 19.8118C26.1592 19.3549 25.37 19.0457 24.543 18.9032C23.716 18.7607 22.8686 18.7877 22.0524 18.9827C21.2363 19.1778 20.4684 19.5367 19.7957 20.0375C19.1229 20.5384 18.5594 21.1708 18.1394 21.8962C17.8047 22.5069 17.5301 23.1486 17.3194 23.8122Z" fill="#D5B698"/>
<path d="M22.9543 26.2568C22.9502 25.8122 23.0049 25.3691 23.1172 24.9388C23.296 23.8616 23.7735 22.856 24.4954 22.0358C24.891 21.6403 25.3864 21.3592 25.929 21.2222C26.4717 21.0852 27.0414 21.0975 27.5777 21.2578C27.8999 21.3742 28.1851 21.5747 28.4035 21.8384C28.5489 22.0242 28.5896 22.1519 28.5779 22.1577C28.2816 21.8509 27.917 21.6182 27.5137 21.4784C27.0178 21.3605 26.4999 21.3711 26.0093 21.5093C25.5187 21.6475 25.0716 21.9087 24.7106 22.268C24.0296 23.0556 23.5541 23.999 23.3265 25.0143C23.2406 25.4389 23.1161 25.8548 22.9543 26.2568Z" fill="#D5B698"/>
<path d="M30.347 17.7509C29.7638 18.7687 29.2527 19.826 28.8175 20.9152C28.4811 22.0371 28.2169 23.1794 28.0266 24.335C27.898 21.9193 28.7346 19.5514 30.3528 17.7509H30.347Z" fill="#E8505B"/>
<path d="M123.382 31.9058C123.382 32.263 123.488 32.6121 123.687 32.909C123.885 33.206 124.168 33.4374 124.498 33.5741C124.829 33.7108 125.192 33.7465 125.543 33.6768C125.894 33.6072 126.216 33.4352 126.469 33.1827C126.722 32.9301 126.895 32.6084 126.964 32.2581C127.034 31.9078 126.998 31.5448 126.861 31.2148C126.725 30.8849 126.493 30.6029 126.195 30.4045C125.898 30.2061 125.548 30.1002 125.19 30.1002C124.953 30.1002 124.718 30.1469 124.498 30.2376C124.279 30.3283 124.08 30.4614 123.912 30.629C123.744 30.7967 123.61 30.9958 123.52 31.2148C123.429 31.4339 123.382 31.6687 123.382 31.9058Z" fill="#455A64"/>
<path d="M117.945 33.7115C118.944 33.7115 119.754 32.9031 119.754 31.9058C119.754 30.9086 118.944 30.1002 117.945 30.1002C116.946 30.1002 116.137 30.9086 116.137 31.9058C116.137 32.9031 116.946 33.7115 117.945 33.7115Z" fill="#455A64"/>
<path d="M108.913 31.0002C108.734 31.3096 108.651 31.6649 108.675 32.0211C108.698 32.3774 108.827 32.7187 109.045 33.0019C109.263 33.2851 109.56 33.4974 109.899 33.612C110.238 33.7267 110.603 33.7385 110.948 33.646C111.294 33.5535 111.604 33.3608 111.84 33.0923C112.075 32.8238 112.226 32.4916 112.273 32.1376C112.319 31.7836 112.26 31.4237 112.102 31.1034C111.944 30.7832 111.694 30.5169 111.384 30.3383C111.178 30.2197 110.951 30.1427 110.716 30.1117C110.48 30.0807 110.24 30.0964 110.011 30.1579C109.781 30.2194 109.566 30.3254 109.378 30.4699C109.189 30.6145 109.031 30.7947 108.913 31.0002Z" fill="#455A64"/>
<path d="M117.834 10.8009C117.713 10.7868 117.59 10.7868 117.468 10.8009L116.392 10.83C116.159 10.83 115.892 10.83 115.601 10.8648L114.653 10.9983L113.548 11.1551L112.309 11.4628C110.192 12 108.177 12.8786 106.343 14.064C103.617 15.7956 101.325 18.1268 99.6402 20.8792C97.9559 23.6315 96.9245 26.7321 96.625 29.9436C96.5408 30.9089 96.5214 31.8788 96.5669 32.8467C96.6018 33.3402 96.5669 33.8337 96.6599 34.3272L96.8867 35.8194C97.266 37.8712 97.9439 39.8566 98.8989 41.7126C99.9233 43.6512 101.222 45.4326 102.755 47.0019C104.389 48.6081 106.262 49.9517 108.308 50.9849C110.422 52.0634 112.71 52.7611 115.066 53.046C115.665 53.1362 116.269 53.1886 116.875 53.2028C117.481 53.2348 118.089 53.2348 118.695 53.2028C119.925 53.1538 121.149 53.0004 122.353 52.7441C124.937 52.1921 127.396 51.1664 129.605 49.7192H129.384L136.793 52.6919L137.235 52.8661L137.107 52.4132C136.363 49.6959 135.63 47.0542 134.932 44.4995L134.891 44.6969C136.904 42.0366 138.259 38.9391 138.846 35.6568C139.13 34.1259 139.228 32.5663 139.137 31.0119C139.121 30.2663 139.049 29.5229 138.921 28.7882C138.869 28.4224 138.811 28.0624 138.759 27.7025C138.706 27.3425 138.578 27.0057 138.497 26.6574C137.257 21.7935 134.326 17.5277 130.227 14.6214C128.714 13.536 127.059 12.6646 125.307 12.0318L124.202 11.637L123.15 11.3699L122.184 11.1319C121.876 11.068 121.603 11.039 121.3 10.9983C120.719 10.9229 120.248 10.83 119.817 10.8067L118.724 10.7719H118.061C117.91 10.7719 117.834 10.7719 117.834 10.7719H118.061L118.724 10.8242L119.806 10.8938C120.23 10.9287 120.719 11.039 121.277 11.1203C125.3 11.8115 129.036 13.6544 132.029 16.4249C135.023 19.1955 137.147 22.7744 138.142 26.727C138.223 27.0696 138.328 27.4064 138.392 27.7547C138.456 28.1031 138.497 28.4631 138.555 28.8172C138.672 29.5412 138.736 30.2728 138.747 31.0061C138.832 32.5241 138.732 34.0467 138.45 35.5407C137.861 38.7699 136.518 41.8151 134.531 44.4298L134.467 44.5169L134.496 44.6272C135.194 47.1819 135.913 49.8198 136.653 52.5409L136.967 52.2622L129.564 49.2837L129.448 49.2373L129.337 49.3069C127.172 50.733 124.76 51.7449 122.225 52.2913C121.05 52.5427 119.855 52.6942 118.654 52.7441C118.059 52.7674 117.463 52.7558 116.869 52.7093C116.285 52.6979 115.702 52.6494 115.124 52.5641C112.817 52.2813 110.577 51.5975 108.506 50.5436C104.54 48.5848 101.307 45.4083 99.2827 41.4803C98.3335 39.669 97.6555 37.7285 97.2705 35.7207C97.1949 35.2272 97.1193 34.7453 97.0496 34.2575C96.9798 33.7698 96.9856 33.2879 96.9449 32.806C96.8991 31.8596 96.9146 30.9112 96.9914 29.9668C97.2748 26.8079 98.2746 23.7549 99.9149 21.0388C101.555 18.3228 103.793 16.0151 106.459 14.2904C108.269 13.0948 110.26 12.1988 112.356 11.637L113.577 11.3119L114.676 11.1319L115.613 10.9751C115.903 10.9751 116.165 10.9403 116.398 10.9171L117.468 10.8416C117.591 10.8382 117.713 10.8246 117.834 10.8009Z" fill="#455A64"/>
</svg>
