<svg width="41" height="40" viewBox="0 0 41 40" fill="none" xmlns="http://www.w3.org/2000/svg">
<circle cx="20.5" cy="20" r="20" fill="#212121"/>
<path d="M23.1431 14.9544L26.3828 12.3022C24.6508 10.8643 22.426 10 19.9996 10C16.1346 10 12.7817 12.1923 11.1174 15.4011C10.4025 16.7781 10 18.3422 10 20.0004C10 21.7153 10.4313 23.329 11.1918 24.7394L11.193 24.7394C12.8821 27.8716 16.1931 30 20.0013 30C22.3712 30 24.5482 29.1758 26.262 27.7983C28.0235 26.3819 29.2946 24.38 29.7813 22.0882C29.9247 21.4146 30 20.7162 30 20.0002C30 19.3618 29.9401 18.737 29.8253 18.1321H20.2195V22.0882H25.5669C25.0856 23.3728 24.1718 24.4459 23.0026 25.1316C22.1221 25.6481 21.0963 25.9445 20.0013 25.9445C17.4523 25.9445 15.278 24.3401 14.4335 22.0862C14.1896 21.4374 14.0557 20.7345 14.0556 20.0004C14.0556 19.324 14.1688 18.674 14.3765 18.0685L14.376 18.0674C15.1784 15.7331 17.3932 14.0555 19.9996 14.0555C21.154 14.0555 22.2315 14.3846 23.1431 14.9544Z" fill="white"/>
</svg>
