<svg width="167" height="144" viewBox="0 0 167 144" fill="none" xmlns="http://www.w3.org/2000/svg">
<path fill-rule="evenodd" clip-rule="evenodd" d="M25.4423 34.6482C39.6304 15.9383 60.6929 5.66346 82.7941 1.72076C104.65 -2.17819 126.825 0.026336 142.528 13.7609C159.195 28.3381 168.773 50.4789 165.525 74.0778C162.252 97.8633 146.84 119.509 126.14 132.837C106.365 145.569 83.6414 145.084 62.3032 140.537C38.4824 135.461 11.2475 129.684 3.22759 106.646C-4.92243 83.2335 9.17655 56.0981 25.4423 34.6482Z" fill="#FAFAFA"/>
<g clip-path="url(#clip0_1532_16441)">
<path d="M124.917 64.2094L85.917 31.7439L46.917 64.2094V109.744H124.917V64.2094Z" fill="#6EA8FE"/>
<path d="M117.686 39.5237H54.207V98.1273H117.686V39.5237Z" fill="white"/>
<path d="M96.4775 84.8508H75.3565L46.917 109.744H124.917L96.4775 84.8508Z" fill="#6EA8FE"/>
<path d="M124.917 64.2095L96.4775 84.851L124.917 109.744V64.2095Z" fill="#9EC5FE"/>
<path d="M46.917 64.2095L75.3565 84.851L46.917 109.744V64.2095Z" fill="#9EC5FE"/>
<path d="M92.2727 52.9033H58.9785V54.4593H92.2727V52.9033Z" fill="#BDBDBD"/>
<path d="M112.917 52.9033H98.5254V54.4593H112.917V52.9033Z" fill="#BDBDBD"/>
<path d="M112.916 65.7654H58.9785V67.3213H112.916V65.7654Z" fill="#BDBDBD"/>
<path d="M104.101 72.0925H67.792V73.6485H104.101V72.0925Z" fill="#BDBDBD"/>
<path d="M79.6218 60.8904L112.916 60.8904V59.3344L79.6218 59.3344V60.8904Z" fill="#BDBDBD"/>
<path d="M58.9787 60.8904H73.3701V59.3344H58.9787V60.8904Z" fill="#BDBDBD"/>
</g>
<defs>
<clipPath id="clip0_1532_16441">
<rect width="78" height="78" fill="white" transform="translate(46.917 31.7439)"/>
</clipPath>
</defs>
</svg>
