<svg width="249" height="236" viewBox="0 0 249 236" fill="none" xmlns="http://www.w3.org/2000/svg">
<path fill-rule="evenodd" clip-rule="evenodd" d="M109.694 0.0838929C141.463 -1.62146 166.225 22.9745 188.662 46.35C216.31 75.1546 254.998 104.379 248.216 144.399C241.293 185.254 196.382 202.75 159.451 218.723C125.79 233.282 88.529 244.314 55.8032 227.622C23.342 211.064 3.57649 174.862 0.248336 137.52C-2.64672 105.037 20.3228 79.4683 40.3566 54.3109C59.7479 29.9604 79.2733 1.71686 109.694 0.0838929Z" fill="#F5F5F5"/>
<path d="M64.2268 89.2222C62.5132 89.4922 60.7982 89.7623 59.0847 90.0317C57.9418 89.5301 56.0215 89.1057 54.8787 88.6041C55.8192 88.1018 57.2219 87.1936 57.8865 86.3619C58.059 86.1454 57.8785 85.8353 57.6026 85.881C56.1082 86.1268 54.6239 86.4641 53.2707 87.1107C52.965 87.2565 52.7597 87.5559 52.7146 87.8867C52.625 88.5348 52.6323 89.0664 52.6083 89.6723C52.5937 90.0339 52.7655 90.384 53.0771 90.5783C54.169 91.26 55.6874 91.7173 56.8616 91.9953C59.3366 92.5826 61.6441 92.6605 64.2268 92.2318V89.2222Z" fill="#F79991"/>
<path d="M60.2832 89.8366C57.7595 90.1903 55.2365 90.544 52.7142 90.897C51.0014 90.251 49.044 89.843 47.1237 89.8473C46.7255 89.8487 46.2567 89.8959 46.0697 90.1567C45.9321 90.3489 46.0121 90.5947 46.189 90.7676C46.3652 90.9413 46.6221 91.0577 46.8726 91.1706C48.1668 91.7523 50.9694 92.3339 52.2636 92.9155C55.3166 92.6754 56.9988 92.9448 59.8559 92.1095C60.3058 91.9788 60.7505 91.8123 61.081 91.5515C61.4115 91.29 61.6132 90.917 61.5054 90.5669C61.3977 90.2174 60.7578 89.7709 60.2832 89.8366Z" fill="#F79991"/>
<path d="M61.3941 91.6953C58.8718 92.0482 56.3481 92.4019 53.8251 92.7556C52.113 92.1097 50.1548 91.7017 48.2345 91.706C47.8371 91.7074 47.3676 91.7546 47.1805 92.0154C47.0436 92.2076 47.1237 92.4527 47.2999 92.6263C47.476 92.7999 47.733 92.9164 47.9841 93.0293C49.2777 93.6109 52.0809 94.1918 53.3745 94.7742C56.4281 94.5341 58.1104 94.8035 60.9675 93.9682C61.4173 93.8367 61.8614 93.6709 62.1919 93.4094C62.5224 93.1486 62.7247 92.7749 62.6163 92.4255C62.5093 92.0761 61.8694 91.6288 61.3941 91.6953Z" fill="#F79991"/>
<path d="M103.594 165.81C108.046 165.837 112.486 166.581 116.694 168.005C117.636 168.324 118.562 168.687 119.477 169.073C116.917 164.351 113.938 159.858 110.571 155.651C110.34 155.362 110.79 154.999 111.022 155.289C114.587 159.742 117.724 164.516 120.391 169.538C120.503 169.75 120.246 170.021 120.022 169.922C115.99 168.131 111.674 166.991 107.269 166.567C106.028 166.448 104.783 166.387 103.536 166.379C103.161 166.376 103.222 165.807 103.594 165.81Z" fill="#1B3455"/>
<path d="M101.039 102.962C105.186 104.549 109.064 106.799 112.477 109.604C113.242 110.232 113.973 110.895 114.689 111.577C114.015 106.268 112.867 101.027 111.251 95.9177C111.14 95.5668 111.692 95.3854 111.804 95.7376C113.514 101.146 114.709 106.705 115.372 112.33C115.4 112.568 115.062 112.731 114.889 112.56C111.774 109.475 108.156 106.897 104.196 104.958C103.081 104.411 101.94 103.918 100.778 103.474C100.429 103.34 100.692 102.829 101.039 102.962Z" fill="#1B3455"/>
<path d="M177.863 161.948C175.973 159.642 173.532 157.825 170.785 156.623C173.503 155.824 176.222 155.025 178.941 154.226C179.261 154.132 179.137 153.637 178.817 153.732C175.869 154.598 172.923 155.464 169.976 156.33C169.713 156.408 169.733 156.73 169.969 156.823C172.909 157.979 175.506 159.882 177.491 162.303C177.7 162.558 178.071 162.202 177.863 161.948Z" fill="#1B3455"/>
<path d="M159.347 164.548C155.115 163.965 150.819 163.862 146.563 164.25C145.626 164.335 144.689 164.451 143.758 164.583C146.608 161.72 149.782 159.172 153.222 157.02C154.26 156.372 155.32 155.76 156.4 155.182C156.694 155.025 156.443 154.579 156.151 154.736C152.323 156.784 148.749 159.285 145.535 162.175C144.612 163.004 143.721 163.865 142.859 164.756C142.675 164.946 142.851 165.224 143.103 165.186C147.283 164.539 151.536 164.368 155.757 164.677C156.954 164.765 158.15 164.893 159.339 165.057C159.67 165.102 159.674 164.593 159.347 164.548Z" fill="#1B3455"/>
<path d="M138.971 174.57C135.032 174.152 131.028 174.367 127.159 175.208C126.293 175.396 125.437 175.625 124.588 175.876C127.339 171.955 130.437 168.277 133.849 164.892C134.084 164.66 133.723 164.293 133.488 164.527C129.876 168.11 126.608 172.02 123.732 176.196C123.611 176.372 123.81 176.638 124.018 176.571C127.769 175.389 131.704 174.81 135.643 174.873C136.752 174.892 137.86 174.961 138.963 175.078C139.296 175.113 139.301 174.605 138.971 174.57Z" fill="#1B3455"/>
<path d="M126.531 188.952C124.037 188.952 121.352 188.187 119.43 186.651C121.266 186.64 123.122 186.635 124.993 186.635C128.41 186.635 131.774 186.653 135.07 186.689C132.62 187.822 130.068 188.727 127.384 188.922C127.103 188.942 126.818 188.952 126.531 188.952Z" fill="#2FAFB3"/>
<path d="M109.047 187.507C108.835 187.507 108.65 187.245 108.854 187.08C108.981 186.976 109.109 186.873 109.238 186.769C109.516 186.764 109.791 186.76 110.07 186.755C109.784 186.984 109.499 187.214 109.215 187.445C109.162 187.489 109.104 187.507 109.047 187.507Z" fill="#1C486F"/>
<path d="M110.571 39.2431C106.171 43.0787 103.793 48.6478 105.371 54.5091C106.428 58.4354 109.031 62.5754 107.215 66.2246C105.657 69.3528 101.663 70.2981 98.7989 72.3517C95.6979 74.576 93.8606 78.398 94.0848 82.1622C94.3083 85.9256 96.5845 89.5119 99.9279 91.3675C101.893 92.4586 104.247 93.0302 105.74 94.6944C107.487 96.6436 107.541 99.486 108.073 102.03C109.802 110.3 118.141 116.728 126.735 116.417C130.355 116.285 134.219 114.836 135.939 111.707C137.213 109.387 137.159 106.45 138.798 104.363C141.052 101.49 145.354 101.467 148.825 100.23C152.962 98.7551 156.241 95.1531 157.269 90.9531C158.296 86.7524 157.041 82.0815 154.038 78.9239C152.125 76.9132 149.6 75.522 147.773 73.4349C145.426 70.7525 144.445 67.1413 144.237 63.6108C144.029 60.081 144.522 56.5534 144.77 53.0257C145.164 47.4402 144.809 40.2199 139.837 36.5272C132.162 30.8266 120.21 32.6465 112.663 37.6504C111.926 38.1399 111.226 38.6722 110.571 39.2431Z" fill="#245897"/>
<path d="M111.614 41.6632C107.514 45.2373 105.297 50.4263 106.768 55.8882C107.752 59.5466 110.177 63.4036 108.486 66.8034C107.035 69.7187 103.312 70.5989 100.644 72.5132C97.7546 74.5853 96.0432 78.1465 96.2514 81.6535C96.4603 85.1604 98.5815 88.503 101.696 90.2314C103.529 91.2475 105.721 91.7806 107.111 93.3311C108.741 95.1474 108.79 97.7955 109.286 100.167C110.897 107.872 118.666 113.862 126.675 113.572C130.047 113.449 133.647 112.099 135.25 109.183C136.438 107.022 136.387 104.284 137.915 102.34C140.015 99.664 144.022 99.6418 147.258 98.4886C151.112 97.1152 154.167 93.7591 155.124 89.8449C156.082 85.9314 154.913 81.5792 152.115 78.6367C150.332 76.7632 147.979 75.467 146.278 73.5221C144.09 71.0234 143.176 67.6579 142.983 64.3689C142.789 61.0792 143.248 57.7924 143.479 54.5048C143.846 49.3009 143.514 42.5729 138.883 39.1324C131.732 33.8213 120.594 35.5161 113.563 40.1792C112.875 40.635 112.224 41.1309 111.614 41.6632Z" fill="#1B3455"/>
<path d="M110.888 99.2403L99.9199 112.373L96.4222 116.565L82.6097 133.108L77.7246 121.909L81.6256 115.861L90.4022 102.248L90.7495 101.715L100.827 86.0764L110.195 98.3349L110.888 99.2403Z" fill="#F79991"/>
<path d="M110.889 99.2404L99.92 112.373L96.4223 116.565C93.1525 112.326 91.0014 107.191 90.4023 102.249L90.7496 101.716L100.827 86.0766L110.196 98.3351L110.889 99.2404Z" fill="#F46E5E"/>
<path d="M110.889 99.2402L99.9205 112.373C98.8497 111.831 97.7148 110.864 96.596 109.658C94.5003 107.423 92.4279 104.36 90.75 101.715L100.827 86.0763L110.196 98.3348L110.889 99.2402Z" fill="#0D6EFD"/>
<path d="M96.5938 109.66C97.7184 110.864 98.8481 111.835 99.9211 112.374L110.891 99.2388L110.197 98.3313C105.169 101.642 100.421 105.302 96.5938 109.66Z" fill="#1F4F6A"/>
<path d="M82.8176 119.855C79.5463 108.206 74.5709 97.1911 68.1629 87.4113C66.9065 88.4724 65.2403 88.8875 63.9824 89.9486C66.0359 100.9 68.0319 111.565 70.0839 122.517C70.6117 125.333 71.1649 128.22 72.5319 130.633C73.6086 132.533 75.2195 134.093 77.1274 134.672C79.0345 135.25 81.2329 134.733 82.605 133.105C83.8855 131.589 84.3157 129.331 84.1621 127.227C84.0092 125.123 83.3825 121.865 82.8176 119.855Z" fill="#F79991"/>
<path d="M68.7631 87.7942C68.0199 86.4909 67.0074 85.3369 65.8026 84.4245C64.2594 84.2959 62.1266 84.1279 60.5819 83.9993C59.4805 84.3745 58.3639 84.856 57.2574 85.2605C57.007 85.3519 56.9437 85.6735 57.1446 85.8471C58.3792 86.9218 59.4019 86.7531 61.0747 85.8907C63.7266 86.7253 63.2694 88.8817 64.7151 89.3204C66.1607 89.7592 67.95 89.0468 68.7631 87.7942Z" fill="#F79991"/>
<path d="M54.124 92.4294C53.5606 91.2719 53.4143 89.8485 53.6771 88.7296C54.7472 88.0157 67.5406 86.1765 68.0676 86.7253C68.5728 87.2519 70.2543 90.0171 70.0366 90.7081C69.7535 91.6105 69.8146 92.6495 68.9942 92.981C66.314 94.0621 60.8873 95.2604 58.0032 95.5948C55.9744 95.8306 55.0733 94.3758 54.124 92.4294Z" fill="#F79991"/>
<path d="M62.2185 92.6716C59.6955 93.0253 57.1724 93.3782 54.6487 93.7319C52.9373 93.086 50.9792 92.6773 49.0589 92.6823C48.6607 92.6837 48.192 92.7309 48.0049 92.9917C47.868 93.1832 47.9474 93.4297 48.1243 93.6026C48.3004 93.7755 48.5574 93.8927 48.8085 94.0056C50.102 94.5865 52.9046 95.1689 54.1988 95.7505C57.2518 95.5104 58.9348 95.7798 61.7919 94.9445C62.2417 94.8137 62.6851 94.6473 63.0163 94.3857C63.3468 94.1242 63.5491 93.7512 63.4406 93.4018C63.3336 93.0517 62.6938 92.6051 62.2185 92.6716Z" fill="#F79991"/>
<path d="M67.5602 89.1476C65.1595 89.8393 62.5251 89.4148 60.4767 88.0029C60.2001 87.8121 59.917 88.2451 60.1928 88.4352C62.3461 89.92 65.1522 90.3766 67.6774 89.6492C67.9999 89.5563 67.8856 89.054 67.5602 89.1476Z" fill="#F46E5E"/>
<path d="M170.193 121.909L147.093 86.0752L137.031 99.239L165.314 133.105L170.193 121.909Z" fill="#F79991"/>
<path d="M147.093 86.0749L157.517 102.245C156.915 107.189 154.767 112.326 151.5 116.564L137.031 99.2387L147.093 86.0749Z" fill="#F46E5E"/>
<path d="M147.093 86.0763L137.725 98.3348L137.031 99.2402L147.999 112.373C149.07 111.831 150.205 110.864 151.324 109.658C153.421 107.423 155.492 104.36 157.17 101.715L147.093 86.0763Z" fill="#0D6EFD"/>
<path d="M151.328 109.66C150.203 110.864 149.074 111.835 148 112.374L137.031 99.2388L137.724 98.3313C142.752 101.642 147.5 105.302 151.328 109.66Z" fill="#1F4F6A"/>
<path d="M165.102 119.855C168.375 108.206 173.35 97.1911 179.757 87.4113C181.014 88.4724 182.681 88.8875 183.937 89.9486C181.885 100.9 179.888 111.565 177.836 122.517C177.308 125.333 176.756 128.22 175.388 130.633C174.312 132.533 172.701 134.093 170.793 134.672C168.886 135.25 166.688 134.733 165.314 133.105C164.035 131.589 163.605 129.331 163.758 127.227C163.911 125.123 164.538 121.865 165.102 119.855Z" fill="#F79991"/>
<path d="M179.158 87.7942C179.901 86.4909 180.914 85.3369 182.117 84.4245C183.662 84.2959 185.795 84.1279 187.338 83.9993C188.441 84.3745 189.557 84.856 190.663 85.2605C190.913 85.3519 190.976 85.6735 190.777 85.8471C189.541 86.9218 188.519 86.7531 186.846 85.8907C184.195 86.7253 184.652 88.8817 183.205 89.3204C181.759 89.7592 179.971 89.0468 179.158 87.7942Z" fill="#F79991"/>
<path d="M185.023 88.656C186.737 88.9261 188.451 89.1962 190.166 89.4656C191.307 88.964 193.229 88.5395 194.371 88.0379C193.43 87.5356 192.028 86.6274 191.364 85.7957C191.19 85.5792 191.371 85.2691 191.648 85.3148C193.141 85.5606 194.626 85.8979 195.978 86.5445C196.284 86.6903 196.491 86.9897 196.536 87.3205C196.624 87.9686 196.616 88.5002 196.642 89.1062C196.656 89.4677 196.484 89.8178 196.173 90.0122C195.081 90.6938 193.563 91.1511 192.388 91.4291C189.912 92.0164 187.605 92.0943 185.023 91.6656V88.656Z" fill="#F79991"/>
<path d="M193.798 92.4294C194.363 91.2719 194.509 89.8485 194.247 88.7296C193.177 88.0157 180.382 86.1765 179.855 86.7253C179.35 87.2519 177.669 90.0171 177.886 90.7081C178.17 91.6105 178.109 92.6495 178.929 92.981C181.608 94.0621 187.035 95.2604 189.919 95.5948C191.948 95.8306 192.85 94.3758 193.798 92.4294Z" fill="#F79991"/>
<path d="M188.967 89.2704C191.489 89.6241 194.012 89.9778 196.536 90.3308C198.248 89.6849 200.205 89.2769 202.126 89.2812C202.524 89.2826 202.993 89.3297 203.18 89.5905C203.317 89.7828 203.237 90.0286 203.061 90.2015C202.884 90.3751 202.627 90.4916 202.377 90.6045C201.083 91.1861 198.281 91.7677 196.987 92.3494C193.933 92.1093 192.251 92.3787 189.393 91.5434C188.944 91.4126 188.5 91.2461 188.169 90.9853C187.838 90.7238 187.636 90.3508 187.744 90.0007C187.852 89.6513 188.492 89.2047 188.967 89.2704Z" fill="#F79991"/>
<path d="M187.854 91.1289C190.378 91.4818 192.901 91.8355 195.425 92.1892C197.136 91.5433 199.094 91.1353 201.014 91.1396C201.412 91.141 201.882 91.1882 202.069 91.449C202.206 91.6412 202.126 91.8863 201.949 92.0599C201.772 92.2335 201.516 92.35 201.266 92.4629C199.971 93.0445 197.169 93.6254 195.875 94.2078C192.821 93.9677 191.139 94.2371 188.281 93.4018C187.832 93.2703 187.388 93.1045 187.058 92.843C186.726 92.5822 186.525 92.2085 186.633 91.8591C186.74 91.5097 187.38 91.0624 187.854 91.1289Z" fill="#F79991"/>
<path d="M185.703 92.6716C188.226 93.0253 190.749 93.3782 193.272 93.7319C194.984 93.086 196.942 92.6773 198.862 92.6823C199.26 92.6837 199.73 92.7309 199.917 92.9917C200.054 93.1832 199.974 93.4297 199.797 93.6026C199.62 93.7755 199.364 93.8927 199.113 94.0056C197.82 94.5865 195.016 95.1689 193.723 95.7505C190.668 95.5104 188.987 95.7798 186.129 94.9445C185.68 94.8137 185.236 94.6473 184.905 94.3857C184.574 94.1242 184.373 93.7512 184.48 93.4018C184.588 93.0517 185.228 92.6051 185.703 92.6716Z" fill="#F79991"/>
<path d="M180.359 89.1476C182.761 89.8393 185.395 89.4148 187.443 88.0029C187.72 87.8121 188.002 88.2451 187.727 88.4352C185.573 89.92 182.768 90.3766 180.242 89.6492C179.921 89.5563 180.034 89.054 180.359 89.1476Z" fill="#F46E5E"/>
<path d="M147.491 142.265C145.76 139.674 143.82 137.233 141.739 135.028C138.559 134.849 114.078 134.865 111.19 135.028C108.357 138.027 105.783 141.462 103.65 145.121C118.216 147.491 133.402 146.651 147.491 142.265Z" fill="#F79991"/>
<path d="M100.828 86.0749C100.828 86.0749 121.809 76.7981 147.093 86.0749L141.739 135.028C128.744 140.154 111.189 135.028 111.189 135.028L100.828 86.0749Z" fill="#0D6EFD"/>
<path d="M178.718 148.834C178.008 146.932 175.862 145.836 173.8 145.742C171.738 145.648 169.734 146.366 167.824 147.132C162.848 149.127 158.044 151.533 153.478 154.315C152.091 150.146 150.015 146.046 147.489 142.265C133.4 146.651 118.214 147.49 103.648 145.121C101.925 148.076 100.491 151.176 99.4453 154.315C94.8805 151.533 90.0761 149.127 85.1007 147.132C83.1899 146.366 81.1859 145.648 79.1244 145.742C77.0622 145.836 74.9163 146.932 74.2051 148.834C73.3105 151.23 73.1721 154.103 74.2859 156.408C75.3989 158.714 77.1641 160.647 78.9563 162.495C84.8584 168.582 91.3857 174.18 98.8696 178.262C106.353 182.343 114.858 184.86 123.413 184.551C123.37 182.24 123.456 182.24 123.413 184.551C131.969 184.86 146.571 182.343 154.055 178.262C161.538 174.18 168.066 168.582 173.968 162.495C175.76 160.647 177.525 158.714 178.638 156.408C179.751 154.103 179.614 151.23 178.718 148.834Z" fill="#0D6EFD"/>
<path d="M73.5195 152.151C73.4402 153.625 73.6579 155.107 74.2868 156.408C75.3998 158.714 77.165 160.647 78.9572 162.495C84.8593 168.582 91.3866 174.18 98.8705 178.262C106.354 182.343 114.859 184.86 123.414 184.551C123.371 182.24 123.457 182.24 123.414 184.551C131.969 184.86 146.572 182.343 154.056 178.262C161.539 174.18 168.067 168.582 173.969 162.495C175.761 160.647 177.526 158.714 178.639 156.408C179.752 154.103 179.615 151.23 178.719 148.834C178.472 148.171 178.046 147.607 177.512 147.148C165.486 150.871 154.757 158.995 144.555 167.392C136.241 174.235 124.279 174.873 115.287 168.912C102.496 160.434 87.7171 153.617 73.5195 152.151Z" fill="#1F4F6A"/>
<path d="M121.236 70.8268L120.881 79.99C120.838 81.0911 120.282 82.0822 119.45 82.821C119.354 82.9067 119.267 83.0003 119.191 83.1004C118.813 83.5991 118.679 84.3501 118.852 84.9939C119.021 85.6198 125.087 96.0327 128.33 93.3275C128.824 92.9145 131.888 85.9342 132.172 85.2933C132.457 84.653 132.521 83.8313 132.208 83.2104C132.114 83.0239 131.982 82.8667 131.829 82.7481C130.979 82.0907 130.289 81.2461 130.083 80.2036C129.495 77.2369 129.205 74.188 129.148 71.1327L121.236 70.8268Z" fill="#F79991"/>
<path d="M127.679 77.142C128.324 77.0398 128.928 76.7897 129.502 76.4539C129.298 74.6919 129.182 72.9141 129.148 71.1328L121.236 70.827C121.188 72.0524 121.142 73.2778 121.094 74.5032C123.003 75.8744 125.429 77.4964 127.679 77.142Z" fill="#F46E5E"/>
<path d="M116.616 59.5931C116.103 59.3694 115.578 59.1422 115.019 59.0943C114.459 59.0472 113.849 59.2122 113.505 59.6481C113.117 60.1404 113.161 60.8528 113.412 61.4244C113.875 62.4827 115.013 63.2208 116.186 63.2236L116.616 59.5931Z" fill="#F46E5E"/>
<path d="M134.377 59.5931C134.89 59.3694 135.415 59.1422 135.975 59.0943C136.534 59.0472 137.144 59.2122 137.488 59.6481C137.875 60.1404 137.832 60.8528 137.582 61.4244C137.118 62.4827 135.981 63.2208 134.807 63.2236L134.377 59.5931Z" fill="#F46E5E"/>
<path d="M125.707 73.7463C122.927 73.8671 117.07 70.5452 116.348 65.2755L115.941 62.048L115.004 56.0259C115.004 49.8445 119.796 45.3594 125.707 45.3594C126.462 53.8409 136.409 50.1346 136.409 56.0259L135.081 63.6586C135.018 64.0165 134.993 64.3788 134.971 64.7418C134.633 70.303 129.183 73.5956 125.707 73.7463Z" fill="#F79991"/>
<path d="M127.506 68.9698C126.217 69.3256 124.855 69.3342 123.564 68.9855C123.323 68.9205 123.203 69.2827 123.444 69.3478C124.801 69.7143 126.238 69.715 127.592 69.3406C127.832 69.2749 127.747 68.9026 127.506 68.9698Z" fill="#F46E5E"/>
<path d="M121.964 58.769C120.707 59.2149 119.331 59.1928 118.091 58.7012C117.86 58.609 117.742 58.972 117.972 59.0634C119.267 59.5772 120.737 59.6065 122.051 59.1406C122.282 59.0584 122.199 58.6854 121.964 58.769Z" fill="#1B3455"/>
<path d="M133.565 58.769C132.31 59.2149 130.932 59.1928 129.693 58.7012C129.461 58.609 129.343 58.972 129.574 59.0634C130.868 59.5772 132.339 59.6065 133.652 59.1406C133.884 59.0584 133.8 58.6854 133.565 58.769Z" fill="#1B3455"/>
<path d="M167.264 148.11C151.57 160.799 132.115 177.831 116.42 190.52C118.853 195.368 118.139 194.856 120.573 199.704C138.441 193.274 160.543 184.244 174.721 171.781C177.287 169.527 179.802 167.151 181.602 164.27C183.403 161.389 184.443 157.924 183.818 154.6C183.154 151.066 180.533 147.948 177.124 146.637C173.715 145.325 170.09 145.826 167.264 148.11Z" fill="#F79991"/>
<path d="M116.42 190.52C118.853 195.368 118.139 194.856 120.573 199.704C129.461 196.507 139.395 192.665 148.881 188.077C141.854 186.934 135.156 184.416 129.552 179.676C125.004 183.486 120.579 187.158 116.42 190.52Z" fill="#F46E5E"/>
<path d="M183.817 154.6C183.153 151.066 180.532 147.948 177.123 146.636C173.714 145.325 170.089 145.825 167.263 148.11C155.727 157.437 142.164 169.106 129.551 179.676C135.155 184.416 141.853 186.934 148.88 188.077C158.466 183.442 167.594 178.045 174.72 171.781C177.286 169.526 179.801 167.151 181.601 164.27C183.402 161.389 184.442 157.924 183.817 154.6Z" fill="#F79991"/>
<path d="M116.796 190.746L116.419 190.52L98.3615 198.175C97.7369 198.439 97.164 198.769 96.6436 199.149C93.2827 201.598 92.1442 206.207 94.2727 209.968C96.8707 214.559 103.012 215.659 107.086 212.457C107.298 212.29 107.506 212.115 107.707 211.925L120.572 199.704C121.425 196.231 119.901 192.613 116.796 190.746Z" fill="#1B3455"/>
<path d="M85.6626 148.11C101.357 160.799 120.812 177.831 136.506 190.52C134.073 195.368 134.719 194.549 132.287 199.397C114.417 192.967 92.3836 184.245 78.205 171.781C75.6405 169.527 73.1254 167.151 71.3238 164.271C69.5236 161.39 68.4834 157.924 69.108 154.6C69.7726 151.066 72.3939 147.948 75.8035 146.637C79.2117 145.325 82.8368 145.826 85.6626 148.11Z" fill="#F79991"/>
<path d="M156.284 199.149C155.763 198.769 155.19 198.439 154.566 198.175L136.508 190.52L136.132 190.746C133.027 192.613 131.502 196.231 132.356 199.704L145.221 211.925C145.421 212.115 145.629 212.29 145.841 212.457C149.916 215.659 156.057 214.559 158.655 209.968C160.784 206.207 159.644 201.598 156.284 199.149Z" fill="#1B3455"/>
<path d="M125.808 64.6454C125.443 64.9677 124.885 64.9091 124.607 64.509C124.337 64.126 124.33 63.5994 124.31 63.1521C124.254 61.9031 124.25 60.6519 124.295 59.4022C124.307 59.0714 123.783 59.0478 123.772 59.3793C123.743 60.1768 123.733 60.9735 123.745 61.7709C123.756 62.4647 123.746 63.1756 123.844 63.8637C123.918 64.3811 124.125 64.9263 124.608 65.2028C125.104 65.4879 125.741 65.3957 126.162 65.0249C126.413 64.8034 126.06 64.4239 125.808 64.6454Z" fill="#F46E5E"/>
<path d="M127.543 67.064C126.398 68.2129 124.509 68.2637 123.327 67.134C123.086 66.9039 122.698 67.2505 122.94 67.482C124.318 68.7974 126.544 68.7996 127.897 67.4434C128.133 67.2076 127.78 66.8267 127.543 67.064Z" fill="#1B3455"/>
<path d="M143.133 195.783C140.537 197.159 138.852 199.956 138.893 202.854C138.898 203.184 139.421 203.209 139.417 202.877C139.378 200.156 140.935 197.532 143.377 196.239C143.674 196.081 143.431 195.626 143.133 195.783Z" fill="white"/>
<path d="M147.198 197.54C144.166 198.559 142.144 201.437 142.321 204.595C142.34 204.922 142.864 204.947 142.845 204.617C142.682 201.705 144.492 198.99 147.315 198.041C147.629 197.935 147.517 197.432 147.198 197.54Z" fill="white"/>
<path d="M108.658 195.783C111.254 197.159 112.939 199.956 112.899 202.854C112.894 203.184 112.37 203.209 112.375 202.877C112.414 200.156 110.856 197.532 108.414 196.239C108.118 196.081 108.361 195.626 108.658 195.783Z" fill="white"/>
<path d="M104.593 197.54C107.625 198.559 109.647 201.437 109.47 204.595C109.451 204.922 108.927 204.947 108.947 204.617C109.109 201.705 107.299 198.99 104.476 198.041C104.161 197.935 104.273 197.432 104.593 197.54Z" fill="white"/>
<path d="M125.546 95.5833C122.665 92.9688 119.701 90.2744 117.936 86.7717C117.458 85.8257 117.087 84.836 116.838 83.8086C116.759 83.487 116.248 83.5999 116.327 83.9236C117.247 87.7235 119.797 90.8417 122.572 93.5305C123.417 94.3486 124.288 95.1403 125.159 95.9306C125.405 96.1542 125.793 95.8084 125.546 95.5833Z" fill="#1F4F6A"/>
<path d="M133.023 86.871C132.008 89.1283 130.994 91.3855 129.978 93.642C129.843 93.9449 130.342 94.1007 130.477 93.8006C131.492 91.5434 132.507 89.2869 133.522 87.0297C133.658 86.7267 133.158 86.5709 133.023 86.871Z" fill="#1F4F6A"/>
<path d="M162.557 149.014C155.761 151.86 149.5 155.92 144.173 160.946C142.685 162.351 141.273 163.83 139.935 165.374C139.606 165.754 140.245 166.208 140.572 165.83C145.292 160.382 151.024 155.784 157.406 152.333C159.185 151.372 161.013 150.501 162.882 149.719C163.347 149.525 163.025 148.819 162.557 149.014Z" fill="#1F4F6A"/>
<path d="M145.66 146.913C135.904 150.689 125.216 152.028 114.801 150.834C111.849 150.495 108.924 149.954 106.05 149.21C105.564 149.084 105.272 149.803 105.762 149.93C116.094 152.606 127.073 152.723 137.464 150.262C140.362 149.575 143.211 148.691 145.985 147.618C146.456 147.435 146.133 146.73 145.66 146.913Z" fill="#1F4F6A"/>
<path d="M121.888 164.555C120.665 159.89 120.478 155.021 121.34 150.278C121.429 149.788 120.646 149.703 120.557 150.191C119.684 154.992 119.872 159.95 121.11 164.673C121.235 165.151 122.015 165.037 121.888 164.555Z" fill="#E9F7E5"/>
<path d="M132.056 150.724C131.788 150.303 131.178 150.794 131.445 151.212C134.17 155.493 134.996 160.796 133.778 165.692C133.658 166.175 134.442 166.258 134.56 165.78C135.833 160.67 134.891 155.177 132.056 150.724Z" fill="#E9F7E5"/>
<path d="M133.728 55.0285C132.147 54.344 130.329 54.3247 128.725 54.9492C128.253 55.1321 128.577 55.8381 129.048 55.6544C130.462 55.1043 132.052 55.1478 133.44 55.7488C133.905 55.9503 134.191 55.2293 133.728 55.0285Z" fill="#1B3455"/>
<path d="M121.801 54.9587C120.134 54.4378 118.272 54.6243 116.771 55.5181C116.589 55.626 116.479 55.8225 116.574 56.0298C116.653 56.202 116.912 56.332 117.095 56.2234C118.415 55.4374 120.035 55.2166 121.513 55.6782C121.995 55.829 122.285 55.1094 121.801 54.9587Z" fill="#1B3455"/>
<path d="M111.447 121.166C115.388 121.939 120.115 122.713 124.054 121.166C115.787 119.138 109.929 111.787 104.9 105.319L111.189 135.028C111.189 135.028 128.743 140.154 141.738 135.028L141.803 134.434C130.587 135.589 118.682 130.931 111.447 121.166Z" fill="#1F4F6A"/>
</svg>
