<svg width="161" height="37" viewBox="0 0 161 37" fill="none" xmlns="http://www.w3.org/2000/svg">
<path d="M10.4054 0.837837H17.9227L28.2857 30.5811H21.1505L18.8146 23.9203H9.42855L7.13512 30.5811H0L10.4054 0.837837ZM17.6679 19.1865L14.1428 7.75L10.5328 19.1865H17.6679Z" fill="white"/>
<path d="M43.9405 29.4081C43.3176 29.6595 42.6239 29.9108 41.8594 30.1622C41.1233 30.4135 40.3446 30.609 39.5235 30.7486C38.7024 30.9162 37.8955 31 37.1027 31C35.9701 31 34.9225 30.8185 33.9598 30.4554C33.0255 30.0644 32.2752 29.436 31.7089 28.5703C31.1709 27.7045 30.9019 26.5595 30.9019 25.1351V13.6568H28.0564V8.58784H30.9019V1.59189H37.6973V8.58784H42.2417V13.6568H37.6973V22.8311C37.6973 23.5572 37.8813 24.0878 38.2494 24.423C38.6175 24.7302 39.0847 24.8838 39.6509 24.8838C40.1323 24.8838 40.6419 24.8 41.1799 24.6324C41.7462 24.4649 42.2275 24.2833 42.6239 24.0878L43.9405 29.4081Z" fill="white"/>
<path d="M68.0786 30.5811H61.2833V18.223C61.2833 16.7986 60.986 15.7514 60.3914 15.0811C59.8251 14.4108 59.0606 14.0757 58.0979 14.0757C57.5883 14.0757 57.0079 14.2432 56.3566 14.5784C55.7337 14.8856 55.1533 15.3324 54.6153 15.9189C54.0774 16.5054 53.6668 17.1896 53.3837 17.9716V30.5811H46.5883V0H53.3837V12.2743C54.2048 10.9617 55.2807 9.95631 56.6115 9.25811C57.9705 8.53198 59.457 8.16892 61.0709 8.16892C62.5999 8.16892 63.8174 8.42027 64.7234 8.92297C65.6578 9.42568 66.3656 10.0959 66.847 10.9338C67.3283 11.7437 67.6539 12.6374 67.8238 13.6149C67.9937 14.5923 68.0786 15.5559 68.0786 16.5054V30.5811Z" fill="white"/>
<path d="M71.1919 24.0041C71.1919 22.5518 71.6025 21.2811 72.4236 20.1919C73.2447 19.1027 74.3773 18.2509 75.8213 17.6365C77.2653 16.9941 78.9216 16.673 80.7904 16.673C81.6964 16.673 82.5883 16.7568 83.466 16.9243C84.3438 17.064 85.1082 17.2734 85.7595 17.5527V16.5892C85.7595 15.3883 85.3914 14.4667 84.6552 13.8243C83.9191 13.182 82.8007 12.8608 81.3 12.8608C80.0542 12.8608 78.8792 13.0703 77.7749 13.4892C76.699 13.9081 75.5523 14.5086 74.3348 15.2905L72.2962 11.0176C73.7685 10.068 75.2975 9.35585 76.883 8.88108C78.4969 8.40631 80.1958 8.16892 81.9795 8.16892C85.3206 8.16892 87.9113 8.96486 89.7517 10.5568C91.6205 12.1207 92.5548 14.3968 92.5548 17.3851V23.1243C92.5548 23.7946 92.6539 24.2694 92.8521 24.5486C93.0786 24.8 93.4609 24.9536 93.9988 25.0095V30.5811C93.4325 30.6928 92.8946 30.7766 92.3849 30.8324C91.9036 30.8883 91.4789 30.9162 91.1108 30.9162C89.8367 30.9162 88.8598 30.6649 88.1803 30.1622C87.5291 29.6595 87.1185 28.9752 86.9486 28.1095L86.8212 27.1459C85.8302 28.4027 84.6411 29.3662 83.2537 30.0365C81.8946 30.6788 80.4648 31 78.9641 31C77.4918 31 76.161 30.6928 74.9718 30.0784C73.811 29.464 72.8908 28.6261 72.2112 27.5649C71.5317 26.5036 71.1919 25.3167 71.1919 24.0041ZM84.6977 24.8419C85.0091 24.5905 85.264 24.3113 85.4622 24.0041C85.6604 23.6968 85.7595 23.4036 85.7595 23.1243V21.1554C85.1932 20.932 84.5561 20.7644 83.8483 20.6527C83.1687 20.5131 82.5317 20.4432 81.9371 20.4432C80.6913 20.4432 79.6578 20.7225 78.8367 21.2811C78.0156 21.8117 77.605 22.5239 77.605 23.4176C77.605 23.9203 77.7466 24.3811 78.0297 24.8C78.3129 25.2189 78.6951 25.5541 79.1765 25.8054C79.6861 26.0568 80.2807 26.1824 80.9602 26.1824C81.6398 26.1824 82.3193 26.0568 82.9988 25.8054C83.6784 25.5541 84.2447 25.2329 84.6977 24.8419Z" fill="white"/>
<path d="M97.4363 30.5811V23.7527H103V30.5811H97.4363Z" fill="white"/>
<path d="M106.364 13.6533L112.082 22.826L117.849 13.6533H119.723L112.945 24.3628V30.702H111.219V24.3148L104.466 13.6533H106.364Z" fill="white"/>
<path d="M125.184 30.9421C124.264 30.9421 123.409 30.7741 122.62 30.4379C121.848 30.0857 121.174 29.6135 120.599 29.0212C120.041 28.4128 119.605 27.7245 119.293 26.9561C118.981 26.1717 118.825 25.3473 118.825 24.4828C118.825 23.5864 118.981 22.754 119.293 21.9856C119.605 21.2012 120.049 20.5128 120.624 19.9205C121.199 19.3122 121.873 18.84 122.645 18.5038C123.434 18.1516 124.288 17.9755 125.208 17.9755C126.128 17.9755 126.975 18.1516 127.747 18.5038C128.519 18.84 129.193 19.3122 129.768 19.9205C130.343 20.5128 130.787 21.2012 131.099 21.9856C131.411 22.754 131.567 23.5864 131.567 24.4828C131.567 25.3473 131.411 26.1717 131.099 26.9561C130.787 27.7245 130.343 28.4128 129.768 29.0212C129.209 29.6135 128.536 30.0857 127.747 30.4379C126.975 30.7741 126.12 30.9421 125.184 30.9421ZM120.525 24.5069C120.525 25.4353 120.731 26.2838 121.142 27.0522C121.569 27.8045 122.136 28.4048 122.842 28.8531C123.549 29.2853 124.329 29.5014 125.184 29.5014C126.038 29.5014 126.819 29.2773 127.525 28.8291C128.232 28.3808 128.799 27.7725 129.226 27.0041C129.653 26.2197 129.867 25.3713 129.867 24.4588C129.867 23.5304 129.653 22.6819 129.226 21.9135C128.799 21.1451 128.232 20.5368 127.525 20.0886C126.819 19.6404 126.038 19.4163 125.184 19.4163C124.329 19.4163 123.549 19.6484 122.842 20.1126C122.152 20.5769 121.593 21.1932 121.166 21.9616C120.739 22.7139 120.525 23.5624 120.525 24.5069Z" fill="white"/>
<path d="M139.522 30.8701C138.651 30.8701 137.846 30.694 137.106 30.3418C136.367 29.9897 135.726 29.5174 135.184 28.9251C134.658 28.3168 134.247 27.6284 133.951 26.8601C133.656 26.0917 133.508 25.2993 133.508 24.4828C133.508 23.6024 133.647 22.778 133.927 22.0096C134.223 21.2252 134.633 20.5288 135.159 19.9205C135.701 19.3122 136.334 18.84 137.057 18.5038C137.78 18.1516 138.585 17.9755 139.472 17.9755C140.573 17.9755 141.526 18.2477 142.332 18.7919C143.153 19.3362 143.843 20.0086 144.402 20.809V18.1916H145.905V30.75C145.905 31.9026 145.618 32.8711 145.043 33.6555C144.484 34.4559 143.72 35.0562 142.751 35.4564C141.797 35.8566 140.754 36.0567 139.62 36.0567C138.158 36.0567 136.975 35.8006 136.071 35.2884C135.167 34.7761 134.428 34.0877 133.853 33.2233L134.888 32.4309C135.397 33.2153 136.071 33.7996 136.909 34.1838C137.764 34.568 138.667 34.7601 139.62 34.7601C140.458 34.7601 141.222 34.608 141.912 34.3039C142.619 34.0157 143.178 33.5755 143.589 32.9832C144.016 32.3909 144.229 31.6465 144.229 30.75V28.2768C143.736 29.0612 143.063 29.6935 142.208 30.1737C141.354 30.638 140.458 30.8701 139.522 30.8701ZM139.99 29.5014C140.499 29.5014 140.984 29.4134 141.444 29.2373C141.921 29.0612 142.356 28.8291 142.751 28.5409C143.145 28.2368 143.473 27.9006 143.736 27.5324C143.999 27.1642 144.164 26.788 144.229 26.4038V22.5379C143.983 21.9295 143.63 21.3933 143.17 20.929C142.709 20.4488 142.184 20.0806 141.592 19.8245C141.017 19.5523 140.417 19.4163 139.793 19.4163C139.07 19.4163 138.421 19.5683 137.846 19.8725C137.287 20.1606 136.81 20.5528 136.416 21.0491C136.038 21.5293 135.742 22.0736 135.529 22.6819C135.315 23.2902 135.208 23.8985 135.208 24.5069C135.208 25.1792 135.332 25.8195 135.578 26.4278C135.825 27.0201 136.161 27.5564 136.589 28.0367C137.032 28.5009 137.542 28.8611 138.117 29.1172C138.708 29.3733 139.333 29.5014 139.99 29.5014Z" fill="white"/>
<path d="M148.571 27.1002C148.571 26.3158 148.801 25.6434 149.261 25.0831C149.722 24.5069 150.354 24.0666 151.159 23.7625C151.981 23.4423 152.926 23.2822 153.994 23.2822C154.618 23.2822 155.267 23.3303 155.941 23.4263C156.615 23.5224 157.214 23.6664 157.74 23.8585V22.802C157.74 21.7454 157.42 20.905 156.779 20.2807C156.138 19.6564 155.251 19.3442 154.117 19.3442C153.427 19.3442 152.745 19.4723 152.071 19.7284C151.414 19.9685 150.724 20.3287 150.001 20.809L149.36 19.6564C150.198 19.0961 151.02 18.6799 151.825 18.4077C152.63 18.1196 153.452 17.9755 154.29 17.9755C155.867 17.9755 157.116 18.4157 158.036 19.2962C158.956 20.1766 159.416 21.3933 159.416 22.9461V28.733C159.416 28.9571 159.465 29.1252 159.564 29.2373C159.663 29.3333 159.819 29.3893 160.032 29.4054V30.702C159.852 30.718 159.696 30.734 159.564 30.75C159.433 30.766 159.334 30.766 159.268 30.75C158.858 30.734 158.545 30.606 158.332 30.3658C158.118 30.1257 158.003 29.8696 157.987 29.5975L157.962 28.685C157.387 29.4054 156.639 29.9656 155.719 30.3658C154.799 30.75 153.862 30.9421 152.909 30.9421C152.088 30.9421 151.34 30.7741 150.666 30.4379C150.009 30.0857 149.491 29.6215 149.114 29.0452C148.752 28.4529 148.571 27.8045 148.571 27.1002ZM157.173 28.0607C157.354 27.8366 157.494 27.6204 157.592 27.4123C157.691 27.2042 157.74 27.0201 157.74 26.8601V25.0351C157.181 24.827 156.598 24.6669 155.99 24.5549C155.399 24.4428 154.799 24.3868 154.191 24.3868C152.991 24.3868 152.022 24.6189 151.283 25.0831C150.543 25.5474 150.173 26.1797 150.173 26.9801C150.173 27.4444 150.297 27.8846 150.543 28.3008C150.79 28.701 151.151 29.0372 151.628 29.3093C152.104 29.5654 152.663 29.6935 153.304 29.6935C154.109 29.6935 154.856 29.5414 155.547 29.2373C156.253 28.9331 156.795 28.5409 157.173 28.0607Z" fill="white"/>
</svg>
