<svg width="103" height="15" viewBox="0 0 103 15" fill="none" xmlns="http://www.w3.org/2000/svg">
<path d="M3.89418 14H0.928267L5.44744 0.909091H9.0142L13.527 14H10.5611L7.28196 3.90057H7.17969L3.89418 14ZM3.70881 8.8544H10.7145V11.0149H3.70881V8.8544ZM13.0044 3.19105V0.909091H23.7559V3.19105H19.748V14H17.0123V3.19105H13.0044ZM25.5265 14V0.909091H28.2942V6.31037H33.9128V0.909091H36.6742V14H33.9128V8.59233H28.2942V14H25.5265ZM41.2125 14H38.2466L42.7658 0.909091H46.3326L50.8453 14H47.8794L44.6003 3.90057H44.498L41.2125 14ZM41.0272 8.8544H48.0328V11.0149H41.0272V8.8544ZM50.318 0.909091H53.4181L56.4032 6.54688H56.5311L59.5162 0.909091H62.6163L57.8414 9.37216V14H55.0929V9.37216L50.318 0.909091ZM75.3668 7.45455C75.3668 8.8821 75.0962 10.0966 74.555 11.098C74.0181 12.0994 73.2852 12.8643 72.3562 13.3928C71.4315 13.9169 70.3917 14.179 69.2369 14.179C68.0735 14.179 67.0295 13.9148 66.1048 13.3864C65.18 12.858 64.4492 12.093 63.9123 11.0916C63.3754 10.0902 63.1069 8.87784 63.1069 7.45455C63.1069 6.02699 63.3754 4.8125 63.9123 3.81108C64.4492 2.80966 65.18 2.04687 66.1048 1.52273C67.0295 0.994318 68.0735 0.730113 69.2369 0.730113C70.3917 0.730113 71.4315 0.994318 72.3562 1.52273C73.2852 2.04687 74.0181 2.80966 74.555 3.81108C75.0962 4.8125 75.3668 6.02699 75.3668 7.45455ZM72.5607 7.45455C72.5607 6.52983 72.4222 5.75 72.1452 5.11506C71.8725 4.48011 71.4869 3.99858 70.9883 3.67045C70.4897 3.34233 69.9059 3.17827 69.2369 3.17827C68.5678 3.17827 67.984 3.34233 67.4854 3.67045C66.9869 3.99858 66.5991 4.48011 66.3221 5.11506C66.0494 5.75 65.913 6.52983 65.913 7.45455C65.913 8.37926 66.0494 9.15909 66.3221 9.79403C66.5991 10.429 66.9869 10.9105 67.4854 11.2386C67.984 11.5668 68.5678 11.7308 69.2369 11.7308C69.9059 11.7308 70.4897 11.5668 70.9883 11.2386C71.4869 10.9105 71.8725 10.429 72.1452 9.79403C72.4222 9.15909 72.5607 8.37926 72.5607 7.45455ZM86.0975 5.14062C86.008 4.82955 85.8823 4.55469 85.7203 4.31605C85.5584 4.07315 85.3603 3.86861 85.1259 3.70241C84.8958 3.53196 84.6316 3.40199 84.3333 3.3125C84.0392 3.22301 83.7132 3.17827 83.3553 3.17827C82.6863 3.17827 82.0982 3.34446 81.5911 3.67685C81.0882 4.00923 80.6962 4.4929 80.415 5.12784C80.1337 5.75852 79.9931 6.52983 79.9931 7.44176C79.9931 8.35369 80.1316 9.12926 80.4086 9.76847C80.6855 10.4077 81.0776 10.8956 81.5847 11.2322C82.0918 11.5646 82.6905 11.7308 83.3809 11.7308C84.0073 11.7308 84.5421 11.62 84.9853 11.3984C85.4327 11.1726 85.7736 10.8551 86.008 10.446C86.2466 10.0369 86.3659 9.55327 86.3659 8.99503L86.9284 9.07812H83.5534V6.99432H89.0314V8.64347C89.0314 9.79403 88.7885 10.7827 88.3027 11.6094C87.8169 12.4318 87.1479 13.0668 86.2956 13.5142C85.4434 13.9574 84.4675 14.179 83.3681 14.179C82.1408 14.179 81.0627 13.9084 80.1337 13.3672C79.2047 12.8217 78.4803 12.0483 77.9604 11.0469C77.4448 10.0412 77.187 8.84801 77.187 7.46733C77.187 6.40625 77.3404 5.46023 77.6472 4.62926C77.9583 3.79403 78.3929 3.08665 78.9512 2.5071C79.5094 1.92756 80.1593 1.48651 80.9007 1.18395C81.6422 0.881392 82.4455 0.730113 83.3105 0.730113C84.052 0.730113 84.7424 0.838778 85.3816 1.05611C86.0208 1.26918 86.5875 1.57173 87.0819 1.96378C87.5804 2.35582 87.9874 2.82244 88.3027 3.36364C88.6181 3.90057 88.8205 4.4929 88.91 5.14062H86.0975ZM92.9625 14H89.9966L94.5158 0.909091H98.0826L102.595 14H99.6294L96.3503 3.90057H96.248L92.9625 14ZM92.7772 8.8544H99.7828V11.0149H92.7772V8.8544Z" fill="#0D6EFD"/>
</svg>
