<svg width="375" height="300" viewBox="0 0 375 300" fill="none" xmlns="http://www.w3.org/2000/svg">
<path fill-rule="evenodd" clip-rule="evenodd" d="M173.505 34.0946C207.826 32.1724 234.576 59.895 258.816 86.2419C288.685 118.708 330.48 151.647 323.153 196.755C315.673 242.803 267.156 262.523 227.258 280.527C190.894 296.937 150.64 309.371 115.285 290.557C80.2168 271.895 58.8638 231.09 55.2683 189.001C52.1407 152.389 76.9552 123.57 98.5981 95.2149C119.547 67.7689 140.641 35.9351 173.505 34.0946Z" fill="#FAFAFA"/>
<g clip-path="url(#clip0_515_8976)">
<path d="M179.947 86.6603L143.841 98.6166L151.182 79.3443C154.591 82.1157 159.652 80.0132 163.402 77.7197C165.756 76.2862 168.089 74.7996 170.38 73.2706C170.659 73.0787 170.867 72.8005 170.972 72.4789C171.077 72.1573 171.073 71.8102 170.96 71.4912C170.848 71.1722 170.633 70.8991 170.349 70.7141C170.065 70.529 169.727 70.4423 169.389 70.4673C167.589 70.6116 165.841 71.1403 164.265 72.0176C169.191 67.9839 173.654 63.4184 177.571 58.4049C177.775 58.1364 177.892 57.8119 177.905 57.4753C177.919 57.1386 177.828 56.806 177.646 56.5223C177.463 56.2386 177.198 56.0176 176.886 55.889C176.573 55.7604 176.229 55.7305 175.899 55.8034C175.074 55.972 174.303 56.3362 173.651 56.8652C174.755 56.5753 175.733 55.93 176.433 55.0296C177.132 54.1291 177.513 53.0238 177.518 51.8852C176.601 51.5455 175.6 51.5023 174.658 51.7615C173.715 52.0207 172.878 52.5693 172.266 53.3293L173.033 52.1082C173.202 51.8456 173.293 51.54 173.294 51.2277C173.295 50.9154 173.206 50.6093 173.038 50.3457C172.87 50.0821 172.629 49.872 172.345 49.7403C172.061 49.6085 171.745 49.5606 171.435 49.6022C169.818 49.8293 168.267 50.3882 166.879 51.2436C165.491 52.0989 164.296 53.2322 163.37 54.5716L165.745 50.6641C164.436 50.474 163.103 50.7975 162.027 51.5666C142.397 62.4654 127.697 80.4406 120.946 101.802C120.062 104.68 119.359 107.95 120.85 110.562C122.225 112.941 133.337 117.623 135.989 118.324C151.97 122.519 159.247 121.223 175.014 116.296L179.947 86.6603Z" fill="#CC7748"/>
<path d="M175.248 55.4741L167.631 60.9319C167.098 61.3142 166.565 60.4329 167.119 60.0506L174.737 54.5928C175.269 54.2211 175.802 55.0918 175.248 55.4741Z" fill="#7F4924"/>
<path d="M173.245 53.2654C170.001 54.6535 167.037 56.618 164.499 59.063C164.019 59.5196 163.305 58.8082 163.774 58.3516C166.374 55.8437 169.405 53.8223 172.723 52.3841C173.32 52.1292 173.842 53 173.245 53.2654V53.2654Z" fill="#7F4924"/>
<path d="M165.787 52.3204L158.649 57.6296C158.531 57.6963 158.392 57.7148 158.261 57.6811C158.13 57.6475 158.017 57.5642 157.946 57.4491C157.884 57.3306 157.869 57.1935 157.902 57.0641C157.935 56.9347 158.016 56.8223 158.127 56.7483L165.276 51.4391C165.394 51.3723 165.533 51.3539 165.664 51.3875C165.795 51.4212 165.908 51.5044 165.979 51.6196C166.042 51.7372 166.057 51.8744 166.021 52.0028C165.986 52.1312 165.902 52.2411 165.787 52.3098V52.3204Z" fill="#7F4924"/>
<path d="M156.263 57.2049C161.135 58.5676 165.862 60.399 170.379 62.6734C170.965 62.9601 170.453 63.8414 169.868 63.5441C165.435 61.316 160.797 59.5203 156.018 58.1818C155.899 58.1363 155.801 58.048 155.744 57.9343C155.686 57.8206 155.674 57.6897 155.709 57.5674C155.743 57.445 155.823 57.34 155.931 57.2729C156.04 57.2059 156.169 57.1816 156.295 57.2049H156.263Z" fill="#7F4924"/>
<path d="M145.961 74.0455C147.541 75.5709 149.386 76.7977 151.405 77.6664C151.463 77.6994 151.514 77.7435 151.554 77.7963C151.595 77.849 151.625 77.9093 151.641 77.9735C151.658 78.0378 151.662 78.1048 151.653 78.1706C151.643 78.2364 151.621 78.2996 151.586 78.3566C151.516 78.469 151.405 78.5502 151.276 78.5838C151.147 78.6173 151.011 78.6006 150.894 78.5371C148.795 77.6313 146.879 76.3542 145.237 74.7676C144.768 74.311 145.492 73.589 145.961 74.0455V74.0455Z" fill="#7F4924"/>
<path d="M144.48 98.0113L138.152 109.691C137.843 110.275 136.969 109.755 137.278 109.182C139.409 105.296 141.515 101.402 143.596 97.5016C143.915 96.9282 144.789 97.4379 144.48 98.0113Z" fill="#7F4924"/>
<path d="M239.938 53.1275C239.16 53.4209 238.509 53.9739 238.095 54.6923C237.682 55.4107 237.531 56.25 237.668 57.0669C237.85 57.8754 238.307 58.5963 238.961 59.1073C239.616 59.6182 240.428 59.8878 241.259 59.8702C239.741 61.3026 237.763 62.1528 235.676 62.2699C234.64 62.3128 233.607 62.1133 232.662 61.6874C231.717 61.2615 230.884 60.6209 230.232 59.8171C229.549 58.8574 229.057 57.776 228.783 56.6316C228.189 54.6772 228.068 52.6102 228.431 50.6003L239.938 53.1275Z" fill="#7F4924"/>
<path d="M255.364 53.3929L287.443 28.8857C292.439 25.0631 298.746 21.0387 304.574 23.396C311.275 26.1037 312.266 35.0125 311.946 42.2118C311.541 51.386 310.7 60.5497 309.453 69.6496C308.388 77.2842 307.067 85.1418 309.038 92.5853C309.826 95.5584 311.169 98.3935 311.584 101.42C312.133 105.38 311.245 109.405 309.08 112.771C308.884 113.193 308.527 113.521 308.089 113.681C307.65 113.841 307.166 113.821 306.742 113.626C306.318 113.43 305.99 113.074 305.829 112.637C305.668 112.2 305.688 111.717 305.884 111.295L306.3 110.021C303.913 112.919 299.364 113.45 296.104 111.73C295.805 111.575 295.556 111.337 295.389 111.045C295.222 110.753 295.142 110.419 295.16 110.083C295.178 109.747 295.293 109.423 295.49 109.15C295.688 108.878 295.96 108.667 296.275 108.545L299.023 107.355C296.978 108.152 294.186 107.207 293.696 105.072C293.206 102.938 296.093 100.73 297.723 102.195C296.971 102.271 296.218 102.06 295.615 101.605C295.013 101.15 294.605 100.484 294.474 99.742C294.395 98.9908 294.603 98.2375 295.057 97.6329C295.512 97.0284 296.179 96.6173 296.924 96.4822C293.782 95.3354 292.546 91.4173 292.94 88.1043C293.334 84.7914 294.89 81.7333 295.529 78.431C297.404 68.8745 292.333 64.6271 292.418 54.9644L268.98 80.7033C264.601 73.5466 257.154 60.6452 254.522 52.6814L255.364 53.3929Z" fill="#CC7748"/>
<path d="M228.006 68.7896L254.459 50.4623C255.063 49.9252 255.845 49.6301 256.654 49.6341C257.401 49.8202 258.055 50.2689 258.497 50.8977C265.484 58.6878 271.459 67.325 276.278 76.6047C276.737 77.3019 276.954 78.13 276.896 78.962C276.686 79.6632 276.284 80.2921 275.735 80.7778C264.133 92.9358 252.296 105.2 237.893 113.854C238.989 100.39 236.447 86.8789 230.531 74.7253L228.006 68.7896Z" fill="#FEA800"/>
<path d="M212.909 11.8857C209.713 16.7383 203.012 31.9969 202.096 31.9651L192.23 31.6253L199.944 37.2424C198.189 42.6507 196.439 48.0554 194.691 53.4566C194.437 53.9935 194.295 54.5766 194.275 55.17C194.255 55.7635 194.357 56.3548 194.574 56.9076C195.2 57.7324 196.119 58.2871 197.142 58.4579C199.849 59.2122 202.641 59.626 205.452 59.6896C205.153 63.4273 204.845 67.1225 204.546 70.9026C204.338 71.9385 204.516 73.0144 205.047 73.9288C205.642 74.561 206.421 74.9917 207.274 75.1606C212.547 76.679 229.561 75.4366 229.647 74.8633C230.762 68.1595 231.887 61.4558 233.024 54.7521C234.023 55.7075 235.258 56.3818 236.604 56.7064C237.949 57.0309 239.357 56.9941 240.684 56.5997C241.993 56.1579 243.107 55.2743 243.832 54.1014C244.558 52.9286 244.85 51.54 244.658 50.1756C244.114 47.4785 240.865 45.5672 238.361 46.714C240.996 40.435 243.372 34.064 245.489 27.6009L212.909 11.8857Z" fill="#CC7748"/>
<path d="M284.982 149.85C285.429 146.728 289.062 143.745 287.315 141.111C286.737 140.426 286.045 139.844 285.27 139.391C283.525 137.995 282.387 135.984 282.089 133.774C281.792 131.564 282.358 129.325 283.672 127.52C285.451 125.269 288.242 124.079 290.383 122.157C297.937 115.383 295.242 102.099 302.103 94.5497C303.999 92.4791 307.952 91.3642 309.23 93.8276C309.56 94.6306 309.684 95.5027 309.592 96.3654C309.028 117.146 308.442 138.096 303.86 158.387C303.823 158.812 303.691 159.224 303.474 159.591C303.256 159.959 302.959 160.273 302.603 160.511C301.985 160.716 301.313 160.697 300.707 160.458C294.389 158.716 287.592 155.435 285.642 149.202L284.982 149.85Z" fill="#CC7748"/>
<path d="M102.632 224.306C103.772 239.745 93.2569 240.404 86.9392 242.623C80.0142 245.065 72.6312 245.808 65.4399 247.252C64.818 247.366 64.2481 247.672 63.8117 248.128C63.3754 248.584 63.0951 249.166 63.0109 249.79C62.7978 251.68 64.6622 252.508 66.2602 252.551C67.5799 252.419 68.9107 252.448 70.2234 252.636L68.1459 253.698C69.0353 254.397 70.0877 254.861 71.2052 255.047C72.3228 255.233 73.4693 255.134 74.5382 254.76C74.4231 254.979 74.3683 255.225 74.3794 255.472C74.3904 255.719 74.467 255.959 74.6012 256.167C74.7354 256.375 74.9224 256.544 75.1434 256.657C75.3644 256.77 75.6114 256.822 75.8593 256.809C88.3562 256.087 100.885 255.46 113.361 256.374C117.1 256.65 121.596 256.713 123.673 253.613C125.921 250.268 123.673 245.914 122.501 242.081C121.063 237.409 121.298 232.429 121.308 227.555C121.308 226.961 121.308 226.281 120.499 226.069C120.209 225.995 119.904 225.995 119.614 226.069L102.568 218.275L102.632 224.306Z" fill="#CC7748"/>
<path d="M246.171 93.2223C246.543 102.779 240.109 116.466 234.803 124.419C230.687 130.617 227.329 137.283 224.799 144.275C224.275 145.509 223.996 146.833 223.979 148.172C224.171 152.09 228.453 156.125 226.056 159.226L180.629 155.849C179.093 155.888 177.584 155.447 176.314 154.586C175.089 153.524 174.726 151.825 174.428 150.243C172.66 140.623 171.271 130.942 170.262 121.202C169.336 112.197 166.747 93.4134 174.769 89.1448C186.094 83.1242 183.835 83.1985 190.537 79.1211C194.193 76.8195 198.03 74.8167 202.011 73.1323C208.323 70.4931 214.887 68.4974 221.603 67.1754C229.849 65.5083 245.105 65.3597 246.171 93.2223Z" fill="#FEA800"/>
<path d="M173.916 145.337L210.384 151.613C213.665 152.186 217.021 152.781 219.919 154.427C223.765 156.614 226.386 160.426 228.613 164.238C231.803 169.716 234.481 175.474 236.614 181.44C237.679 184.402 238.659 187.513 240.822 189.818C242.352 191.293 244.098 192.528 246 193.481L270.876 207.529C269.811 196.401 273.252 185.4 276.661 174.75C279.807 164.932 282.954 155.106 286.1 145.274C292.513 149.381 299.638 152.262 307.11 153.768C304.084 173.787 301.055 193.807 298.022 213.826C297.106 219.91 296.157 226.09 293.462 231.622C290.767 237.154 286.004 242.028 279.974 243.302C273.753 244.619 267.446 242.028 261.629 239.48L209.425 216.682C180.244 203.94 149.764 190.211 130.363 165.013C129.447 189.676 127.462 214.268 124.408 238.79C119.616 238.562 114.93 237.304 110.671 235.103C106.413 232.902 102.681 229.809 99.7339 226.037C102.078 204.121 94.5987 133.657 100.32 127.127C105.796 120.926 115.235 119.588 123.279 121.701C131.322 123.814 173.916 145.337 173.916 145.337Z" fill="#0D6EFD"/>
<path d="M170.944 87.9981C169.581 100.259 168.487 112.548 167.663 124.865C169.559 125.059 171.473 124.797 173.246 124.101C175.707 112.197 176.761 98.9456 177.433 86.8088C175.142 86.915 173.352 87.9556 171.04 87.6052L170.944 87.9981Z" fill="#FD7E14"/>
<path d="M170.305 123.304C177.686 123.682 185.085 123.075 192.305 121.499C197.227 120.437 201.947 118.622 206.815 117.337C208.094 117.008 209.383 116.7 210.693 116.487C211.745 116.276 212.819 116.198 213.89 116.254C214.539 116.317 214.539 117.315 213.89 117.315C211.809 117.268 209.735 117.566 207.753 118.197C205.271 118.823 202.831 119.588 200.391 120.32C198.143 121.032 195.906 121.711 193.615 122.253C190.022 123.089 186.378 123.689 182.706 124.048C178.589 124.447 174.447 124.54 170.316 124.324C169.666 124.324 169.655 123.262 170.316 123.315L170.305 123.304Z" fill="#FE704C"/>
<path d="M197.483 120.99H206.741C206.882 120.99 207.018 121.045 207.117 121.145C207.217 121.245 207.273 121.38 207.273 121.52C207.273 121.661 207.217 121.796 207.117 121.896C207.018 121.995 206.882 122.051 206.741 122.051H197.483C197.361 122.034 197.25 121.973 197.17 121.88C197.089 121.788 197.045 121.669 197.045 121.547C197.045 121.424 197.089 121.306 197.17 121.214C197.25 121.121 197.361 121.06 197.483 121.043V120.99Z" fill="#FE704C"/>
<path d="M251.348 51.0568C260.17 60.9928 268.313 71.5073 275.723 82.5296C276.625 82.3852 277.487 82.0582 278.257 81.5687C279.026 81.0793 279.687 80.4378 280.198 79.6839L257.825 46.9263L251.348 51.0568Z" fill="#FD7E14"/>
<path d="M221.336 147.344C219.912 146.142 218.223 145.291 216.408 144.859C214.592 144.428 212.7 144.428 210.885 144.86C210.246 145.008 209.979 144.031 210.618 143.883C212.606 143.408 214.679 143.41 216.666 143.888C218.653 144.366 220.498 145.307 222.05 146.633C222.551 147.058 221.826 147.769 221.336 147.344Z" fill="#FE704C"/>
<path d="M214.848 148.013L220.047 147.418C220.183 147.418 220.313 147.472 220.409 147.568C220.505 147.663 220.559 147.793 220.559 147.928C220.556 148.062 220.501 148.191 220.406 148.286C220.311 148.381 220.182 148.435 220.047 148.438L214.848 149.032C214.781 149.032 214.715 149.019 214.653 148.994C214.591 148.968 214.534 148.931 214.487 148.883C214.439 148.836 214.402 148.78 214.376 148.718C214.35 148.656 214.337 148.59 214.337 148.523C214.34 148.388 214.394 148.26 214.49 148.165C214.585 148.07 214.714 148.016 214.848 148.013V148.013Z" fill="#FE704C"/>
<path d="M239.767 191.432C238.277 199.025 234.279 205.903 228.41 210.969C226.781 212.37 225.022 213.614 223.158 214.686C223.041 214.745 222.906 214.758 222.78 214.721C222.654 214.684 222.547 214.601 222.482 214.487C222.416 214.374 222.397 214.24 222.427 214.113C222.458 213.986 222.537 213.875 222.647 213.804C229.175 210.034 234.24 204.185 237.029 197.197C237.808 195.249 238.393 193.228 238.776 191.166C238.904 190.529 239.842 190.794 239.767 191.432V191.432Z" fill="#19237C"/>
<path d="M271.835 207.264L278.866 222.225C279.133 222.809 278.259 223.287 277.982 222.735L270.951 207.773C270.674 207.189 271.558 206.711 271.835 207.264Z" fill="#19237C"/>
<path d="M272.325 207.54C274.782 211.26 277.68 214.672 280.955 217.702C281.434 218.147 280.721 218.87 280.241 218.424C276.9 215.331 273.945 211.848 271.441 208.049C271.09 207.508 271.963 206.988 272.325 207.54Z" fill="#19237C"/>
<path d="M284.14 153.12C288.94 156.608 294.392 159.103 300.174 160.458C301.814 160.84 303.476 161.127 305.149 161.318C305.799 161.392 305.799 162.38 305.149 162.38C299.115 161.691 293.279 159.806 287.986 156.837C286.48 155.991 285.025 155.059 283.629 154.044C283.107 153.662 283.629 152.781 284.14 153.163V153.12Z" fill="#19237C"/>
<path d="M102.93 219.666C107.964 223.066 113.45 225.747 119.231 227.63C120.85 228.15 122.501 228.617 124.153 229.01C124.792 229.159 124.525 230.135 123.886 229.987C117.919 228.567 112.18 226.319 106.84 223.308C105.317 222.448 103.825 221.513 102.376 220.537C101.833 220.175 102.376 219.294 102.888 219.666H102.93Z" fill="#19237C"/>
<path d="M125.048 151.793C128.202 156.081 130.714 160.802 132.505 165.81C132.718 166.425 131.738 166.691 131.525 166.086C129.753 161.152 127.27 156.502 124.153 152.282C123.759 151.751 124.643 151.22 125.026 151.772L125.048 151.793Z" fill="#19237C"/>
<path d="M130.908 153.089L134.221 165.831C134.239 165.954 134.212 166.08 134.143 166.185C134.075 166.289 133.97 166.365 133.849 166.398C133.728 166.43 133.6 166.418 133.488 166.362C133.375 166.307 133.288 166.212 133.241 166.096L129.927 153.354C129.909 153.231 129.937 153.105 130.005 153C130.074 152.896 130.178 152.82 130.299 152.787C130.42 152.755 130.549 152.767 130.661 152.823C130.773 152.878 130.861 152.973 130.908 153.089V153.089Z" fill="#19237C"/>
<path d="M174.204 145.836C181.726 152.156 188.671 159.128 194.957 166.669C196.747 168.793 198.473 171.002 200.157 173.221C200.551 173.741 199.666 174.283 199.283 173.731C193.387 165.928 186.813 158.659 179.637 152.006C177.627 150.137 175.571 148.321 173.469 146.558C172.968 146.134 173.693 145.422 174.183 145.836H174.204Z" fill="#19237C"/>
<path d="M175.919 146.165C183.821 150.955 191.444 156.188 198.75 161.838C200.796 163.42 202.82 165.024 204.812 166.691C205.313 167.105 204.589 167.827 204.088 167.413C197.039 161.578 189.658 156.154 181.981 151.167C179.851 149.765 177.613 148.385 175.397 147.047C174.843 146.707 175.397 145.826 175.919 146.165Z" fill="#19237C"/>
<path d="M234.153 51.3223C235.525 49.9671 237.165 48.9112 238.968 48.2218C239.098 48.1857 239.237 48.2023 239.355 48.268C239.473 48.3336 239.56 48.4429 239.597 48.5722C239.63 48.703 239.611 48.8415 239.543 48.9584C239.475 49.0752 239.365 49.1614 239.235 49.1986C237.6 49.8352 236.116 50.8044 234.877 52.0444C234.781 52.1401 234.651 52.1939 234.515 52.1939C234.379 52.1939 234.249 52.1401 234.153 52.0444C234.057 51.9486 234.003 51.8187 234.003 51.6833C234.003 51.5479 234.057 51.4181 234.153 51.3223V51.3223Z" fill="#7F4924"/>
<path d="M237.221 49.7719L238.979 52.0761C239.027 52.1991 239.027 52.3354 238.979 52.4584C238.965 52.5234 238.936 52.5845 238.896 52.6376C238.855 52.6907 238.804 52.7346 238.745 52.7663C238.628 52.8298 238.491 52.8465 238.363 52.813C238.234 52.7794 238.123 52.6982 238.052 52.5858L236.305 50.2816C236.271 50.2249 236.248 50.1617 236.239 50.0959C236.23 50.0302 236.234 49.9633 236.252 49.8993C236.268 49.8351 236.298 49.7747 236.338 49.7219C236.378 49.669 236.429 49.6246 236.486 49.5914C236.603 49.5279 236.74 49.5112 236.868 49.5448C236.997 49.5783 237.108 49.6596 237.179 49.7719H237.221Z" fill="#7F4924"/>
<path d="M68.3912 252.71C69.6017 251.166 71.304 250.08 73.2174 249.631C73.8566 249.482 74.1229 250.459 73.4837 250.608C71.7419 251.014 70.1948 252.008 69.105 253.422C69.0592 253.47 69.0039 253.509 68.9425 253.535C68.8811 253.562 68.815 253.575 68.7481 253.575C68.6812 253.575 68.6151 253.562 68.5537 253.535C68.4924 253.509 68.4371 253.47 68.3912 253.422C68.2982 253.326 68.2461 253.199 68.2461 253.066C68.2461 252.933 68.2982 252.805 68.3912 252.71Z" fill="#7F4924"/>
<path d="M72.5137 254.462C72.9479 253.653 73.5446 252.941 74.2667 252.371C74.9889 251.801 75.821 251.385 76.7113 251.149C76.8352 251.131 76.9615 251.159 77.0663 251.227C77.1712 251.295 77.2472 251.399 77.28 251.52C77.3129 251.64 77.3002 251.769 77.2445 251.88C77.1888 251.992 77.0938 252.08 76.9777 252.126C76.215 252.326 75.5025 252.682 74.886 253.172C74.2696 253.662 73.7627 254.275 73.398 254.972C73.3639 255.03 73.3186 255.081 73.2648 255.121C73.2109 255.162 73.1495 255.191 73.0841 255.208C73.0188 255.225 72.9507 255.229 72.8839 255.219C72.8171 255.21 72.7528 255.187 72.6948 255.152C72.58 255.084 72.4968 254.973 72.4629 254.844C72.4291 254.715 72.4473 254.578 72.5137 254.462V254.462Z" fill="#7F4924"/>
<path d="M74.6339 256.235C75.6273 254.912 77.0981 254.024 78.7356 253.761C78.8641 253.728 79.0003 253.747 79.1156 253.812C79.2309 253.877 79.3162 253.985 79.3535 254.112C79.3896 254.241 79.373 254.38 79.3071 254.497C79.2413 254.614 79.1316 254.701 79.0019 254.738C78.3074 254.837 77.6383 255.068 77.031 255.418C76.4415 255.757 75.924 256.208 75.5075 256.745C75.4387 256.86 75.3277 256.943 75.1982 256.976C75.0687 257.01 74.9311 256.992 74.815 256.926C74.7002 256.857 74.6169 256.746 74.583 256.617C74.5492 256.488 74.5674 256.351 74.6339 256.235V256.235Z" fill="#7F4924"/>
<path d="M110.207 239.554C109.833 239.97 109.619 240.505 109.606 241.064C109.592 241.623 109.779 242.168 110.132 242.601C111.072 243.658 112.34 244.368 113.733 244.619C113.853 244.664 113.95 244.753 114.007 244.866C114.065 244.98 114.077 245.111 114.042 245.233C114.008 245.356 113.928 245.461 113.82 245.528C113.711 245.595 113.582 245.619 113.456 245.596C111.764 245.271 110.249 244.343 109.195 242.984C108.767 242.358 108.567 241.605 108.627 240.85C108.687 240.095 109.004 239.383 109.525 238.832C110.005 238.397 110.729 239.108 110.239 239.554H110.207Z" fill="#7F4924"/>
<path d="M298.959 96.0468C297.987 96.3304 297.062 96.7525 296.211 97.2997C295.614 97.6926 294.154 98.5633 294.751 99.4234C295.343 100.125 296.146 100.616 297.042 100.825C297.969 101.073 298.918 101.233 299.876 101.303V102.365C298.798 102.218 297.701 102.335 296.679 102.704C296.184 102.836 295.72 103.064 295.314 103.376C294.908 103.687 294.568 104.076 294.314 104.52C294.133 105.009 294.421 105.253 294.858 105.402C295.454 105.604 296.067 105.753 296.69 105.848C297.912 106.051 299.155 106.09 300.387 105.964V106.973C299.473 106.95 298.563 107.093 297.702 107.398C297.106 107.61 295.902 107.982 296.243 108.821C296.584 109.659 297.66 109.723 298.373 109.808C299.402 109.943 300.446 109.907 301.463 109.702C301.548 110.031 301.644 110.36 301.729 110.679C300.538 110.884 299.383 111.26 298.299 111.794C298.086 111.9 297.233 112.25 297.233 112.548C297.233 112.845 298.363 113.132 298.65 113.195C299.788 113.408 300.954 113.408 302.092 113.195C303.211 113.028 304.321 112.801 305.416 112.516C306.516 112.266 307.533 111.735 308.367 110.976C309.091 110.221 309.65 109.325 310.007 108.343C310.772 106.37 311.086 104.251 310.924 102.142C310.837 100.95 310.605 99.7731 310.231 98.6376C310.043 98.0481 309.811 97.4732 309.539 96.9175C309.411 96.6414 309.272 96.3865 309.134 96.1211L308.921 95.7601L308.771 95.5265C308.569 95.2822 308.654 95.0062 309.027 94.7195L308.633 94.6664L308.324 94.9C308.601 94.3054 309.475 94.815 309.208 95.4097C308.942 96.0043 308.196 95.6751 308.09 95.1761C307.94 94.454 308.835 94.2629 309.283 94.677C309.737 95.1835 310.097 95.7658 310.348 96.3972C310.661 97.0322 310.928 97.6887 311.147 98.3616C312.019 100.989 312.173 103.8 311.595 106.506C311.03 109.171 309.741 111.9 307.099 113.036C305.754 113.553 304.352 113.91 302.923 114.098C301.463 114.423 299.954 114.463 298.48 114.215C297.712 114.131 296.994 113.791 296.445 113.249C296.34 113.114 296.264 112.958 296.224 112.792C296.184 112.626 296.18 112.453 296.212 112.285C296.244 112.117 296.312 111.958 296.411 111.818C296.51 111.679 296.638 111.562 296.786 111.475C297.446 111.029 298.162 110.672 298.917 110.413C299.73 110.086 300.577 109.848 301.442 109.702C302.081 109.596 302.358 110.551 301.708 110.679C300.398 110.939 299.052 110.96 297.734 110.743C297.188 110.72 296.66 110.543 296.213 110.23C295.765 109.918 295.417 109.484 295.209 108.98C294.868 107.769 295.827 107.079 296.807 106.655C297.928 106.167 299.143 105.931 300.366 105.964C300.487 105.982 300.598 106.043 300.679 106.135C300.759 106.228 300.803 106.346 300.803 106.469C300.803 106.591 300.759 106.71 300.679 106.802C300.598 106.895 300.487 106.955 300.366 106.973C298.831 107.13 297.28 107.04 295.774 106.708C294.613 106.453 292.94 106.017 293.26 104.478C293.47 103.882 293.816 103.342 294.271 102.902C294.726 102.462 295.276 102.132 295.88 101.94C297.12 101.391 298.486 101.185 299.833 101.345C300.472 101.42 300.494 102.407 299.833 102.407C298.628 102.328 297.436 102.104 296.285 101.738C295.731 101.587 295.213 101.327 294.761 100.973C294.309 100.619 293.933 100.179 293.654 99.6782C293.174 98.4465 294.293 97.4802 295.188 96.8219C296.237 96.0684 297.408 95.5008 298.65 95.1442C299.279 94.9531 299.545 95.93 298.917 96.1211L298.959 96.0468Z" fill="#7F4924"/>
<path d="M298.96 78.1868L302.39 78.9513C302.519 78.9908 302.628 79.0774 302.695 79.1936C302.762 79.3098 302.783 79.4471 302.753 79.5778C302.713 79.7055 302.626 79.8131 302.509 79.8783C302.392 79.9436 302.254 79.9614 302.124 79.9282L298.694 79.1637C298.564 79.1266 298.454 79.0399 298.388 78.9226C298.322 78.8053 298.306 78.6667 298.342 78.5372C298.359 78.4736 298.389 78.4141 298.429 78.362C298.47 78.3099 298.52 78.2663 298.578 78.2337C298.635 78.2012 298.698 78.1803 298.764 78.1722C298.83 78.1641 298.896 78.1691 298.96 78.1868V78.1868Z" fill="#7F4924"/>
<path d="M291.427 55.4848C294.474 51.3278 297.004 46.8174 298.959 42.0526C299.513 40.7041 300.025 39.3237 300.483 37.9433C300.685 37.3274 301.665 37.5929 301.463 38.2087C299.822 43.1577 297.59 47.8921 294.815 52.3099C294.016 53.5735 293.185 54.7946 292.301 55.9945C291.917 56.5254 291.033 55.9945 291.427 55.4848Z" fill="#7F4924"/>
<path opacity="0.54" d="M205.452 59.6895L220.293 60.6557L205.292 64.6695L205.452 59.6895Z" fill="#7F4924"/>
<path d="M239.107 45.9176C237.552 44.8558 235.006 45.5778 233.908 44.0488C233.226 43.0931 233.535 41.7765 233.908 40.6403L237.349 29.2468C237.59 28.6957 237.617 28.075 237.424 27.5054C237.138 27.0581 236.705 26.724 236.199 26.5604C227.271 22.621 216.01 23.3749 209.01 16.6004C207.061 14.7103 205.548 11.8008 206.688 9.34799C207.647 7.28803 210.182 6.36425 212.441 6.57661C214.69 6.95456 216.837 7.78947 218.748 9.02945C217.541 8.23224 216.564 7.13403 215.914 5.84394C215.392 4.50603 215.808 2.65843 217.15 2.15937C217.704 2.03379 218.279 2.03445 218.832 2.16131C219.386 2.28818 219.903 2.53797 220.346 2.89204C224.97 5.80147 227.974 10.6859 232.332 13.9776C234.436 15.5634 236.816 16.7477 239.352 17.471C241.76 18.1612 244.338 18.4373 246.501 19.7115C248.664 20.9857 250.262 23.7252 249.207 25.9976C250.997 25.8595 252.403 27.6859 252.563 29.4698C252.533 31.2679 252.017 33.0247 251.072 34.556C248.713 39.2281 246.228 43.8294 243.614 48.3599C241.206 46.1513 239.842 46.714 237.946 45.8858L239.107 45.9176Z" fill="#7F4924"/>
<path d="M241.249 46.1511C238.724 45.8644 236.465 46.0024 235.016 48.1049C234.027 49.6513 233.307 51.3528 232.885 53.138C232.738 53.6651 232.392 54.115 231.919 54.394C231.447 54.6729 230.885 54.7593 230.35 54.6352C230.063 54.5642 229.794 54.4347 229.561 54.2546C229.327 54.0746 229.133 53.8481 228.992 53.5895C228.85 53.3308 228.765 53.0457 228.74 52.7523C228.715 52.4589 228.752 52.1635 228.848 51.885C232.165 42.4559 235.03 32.8817 237.445 23.1624L241.249 46.1511Z" fill="#7F4924"/>
<path d="M200.508 42.7638C201.313 42.9895 202.159 43.0236 202.979 42.8631C203.799 42.7026 204.569 42.3521 205.228 41.84C205.328 41.7512 205.457 41.7021 205.59 41.7021C205.724 41.7021 205.853 41.7512 205.953 41.84C206.046 41.937 206.099 42.0664 206.099 42.2011C206.099 42.3357 206.046 42.4651 205.953 42.5621C205.163 43.1959 204.233 43.6333 203.24 43.8382C202.247 44.0432 201.22 44.0098 200.242 43.7407C200.126 43.6941 200.031 43.6066 199.975 43.4948C199.92 43.383 199.907 43.2548 199.94 43.1343C199.973 43.0139 200.049 42.9096 200.153 42.8413C200.258 42.773 200.385 42.7455 200.508 42.7638V42.7638Z" fill="#7F4924"/>
<path d="M210.629 35.0975C210.118 36.5203 208.989 37.4229 208.094 37.1043C207.199 36.7858 206.879 35.3842 207.391 33.9188C207.902 32.4535 209.031 31.5934 209.926 31.9014C210.821 32.2093 211.13 33.6746 210.629 35.0975Z" fill="black"/>
<path d="M235.431 23.7463C232.898 22.057 230.095 20.8076 227.143 20.0511C224.17 19.2972 220.964 19.3503 218.108 18.1504C216.699 17.5997 215.481 16.6514 214.603 15.4215C214.556 15.3448 214.531 15.2566 214.531 15.1667C214.531 15.0767 214.556 14.9886 214.603 14.9118C215.402 13.5315 217.181 13.6695 218.513 14.0624C219.451 14.349 220.356 14.7313 221.283 15.0711L224.479 16.2497C224.351 16.5577 224.224 16.8762 224.085 17.1842C221.525 15.5098 219.531 13.1043 218.364 10.2822C218.333 10.1743 218.339 10.059 218.381 9.95493C218.424 9.85087 218.5 9.76414 218.598 9.70881C219.111 9.50485 219.668 9.43678 220.215 9.51121C220.762 9.58565 221.281 9.80008 221.72 10.1336C222.785 10.7282 223.851 11.3653 224.916 12.0449C226.951 13.4111 228.862 14.9532 230.626 16.6532C231.106 17.1098 230.381 17.8319 229.913 17.3753C228.321 15.8216 226.603 14.401 224.778 13.1279C223.872 12.5121 222.934 11.9174 221.976 11.3759C221.241 10.9512 220.026 10.0486 219.152 10.537L219.387 9.96368C220.468 12.541 222.302 14.7349 224.65 16.2604C225.097 16.5577 224.82 17.3965 224.256 17.1842L218.822 15.1773C217.906 14.8375 216.169 14.2959 215.541 15.379V14.8694C217.171 17.2266 220.228 17.8319 222.881 18.2141C224.429 18.4066 225.965 18.6795 227.484 19.0317C228.898 19.3942 230.28 19.8701 231.617 20.4546C233.148 21.1127 234.617 21.9051 236.007 22.8225C236.55 23.1835 236.007 24.0649 235.495 23.7038L235.431 23.7463Z" fill="#4C2911"/>
<path d="M240.247 22.8757C240.692 22.6134 241.205 22.4885 241.72 22.5169C242.236 22.5452 242.732 22.7255 243.145 23.0349C243.601 23.3904 243.966 23.8474 244.212 24.3693C244.458 24.8913 244.578 25.4635 244.562 26.0399C244.551 27.2549 244.277 28.4533 243.759 29.5529C243.24 30.6526 242.489 31.6275 241.558 32.4109L240.94 31.6146C241.874 30.8868 243.036 30.5109 244.221 30.5527C244.805 30.5944 245.356 30.8397 245.776 31.2454C246.197 31.6512 246.461 32.1916 246.522 32.772C246.564 34.1008 246.143 35.403 245.329 36.4565C244.574 37.5963 243.613 38.5865 242.495 39.3766C241.962 39.7588 241.43 38.8775 241.984 38.4953C242.877 37.856 243.658 37.0739 244.296 36.1805C244.964 35.34 245.391 34.3344 245.531 33.271C245.559 33.0557 245.54 32.837 245.475 32.6296C245.411 32.4222 245.304 32.2308 245.16 32.068C245.015 31.9053 244.838 31.775 244.64 31.6859C244.441 31.5967 244.226 31.5507 244.008 31.5509C243.081 31.5828 242.188 31.9103 241.462 32.4853C240.993 32.8251 240.396 32.0712 240.844 31.6889C242.324 30.4435 243.278 28.6882 243.518 26.7726C243.599 26.3202 243.584 25.8559 243.473 25.4097C243.363 24.9635 243.161 24.5452 242.879 24.1817C242.622 23.8836 242.269 23.6837 241.88 23.6159C241.492 23.5481 241.091 23.6167 240.748 23.8101C240.205 24.1605 239.683 23.2898 240.237 22.9288L240.247 22.8757Z" fill="#4C2911"/>
<path d="M238.745 35.5329L239.117 38.3999C239.117 38.5332 239.065 38.6613 238.971 38.7565C238.878 38.8518 238.75 38.9067 238.617 38.9095C238.482 38.9068 238.353 38.8523 238.258 38.7572C238.163 38.6622 238.108 38.5342 238.105 38.3999L237.732 35.5329C237.732 35.466 237.746 35.3997 237.771 35.3378C237.797 35.276 237.835 35.2198 237.882 35.1725C237.93 35.1252 237.986 35.0876 238.048 35.062C238.11 35.0364 238.177 35.0232 238.244 35.0232C238.378 35.026 238.505 35.0809 238.599 35.1762C238.692 35.2715 238.745 35.3995 238.745 35.5329V35.5329Z" fill="#4C2911"/>
<path d="M210.981 23.8526C210.791 23.9954 210.633 24.1757 210.515 24.3823C210.398 24.5888 210.325 24.8172 210.3 25.0532C210.275 25.2892 210.299 25.5278 210.37 25.7542C210.442 25.9806 210.559 26.1899 210.715 26.3691C211.39 27.0639 212.252 27.5505 213.197 27.7708L217.97 29.3635C218.146 29.4469 218.345 29.4693 218.535 29.4272C218.908 29.2998 218.94 28.7795 218.833 28.3654C218.066 25.3179 214.465 24.118 211.376 23.3535L210.981 23.8526Z" fill="#4C2911"/>
<path d="M285.206 132.5C286.84 132.301 288.403 131.715 289.763 130.792C291.123 129.868 292.242 128.633 293.026 127.191C293.335 126.617 294.209 127.127 293.9 127.7C293.023 129.289 291.775 130.645 290.262 131.652C288.749 132.66 287.015 133.289 285.206 133.487C284.556 133.562 284.556 132.542 285.206 132.479V132.5Z" fill="#7F4924"/>
<path d="M299.876 117.57C299.386 119.232 298.669 120.818 297.745 122.285C297.394 122.837 296.52 122.285 296.872 121.775C297.749 120.383 298.434 118.88 298.907 117.305C299.099 116.678 300.079 116.944 299.887 117.57H299.876Z" fill="#7F4924"/>
<path d="M176.441 86.6282C181.417 85.8637 185.412 82.5933 189.279 79.6201C191.287 78.0096 193.425 76.5676 195.672 75.3091C198.44 73.9365 201.286 72.724 204.195 71.6776L214.561 67.5895C215.168 67.3559 215.434 68.3328 214.827 68.5664L205.643 72.1873C202.724 73.334 199.741 74.3959 196.929 75.7869C192.316 78.0805 188.629 81.7332 184.336 84.494C182.045 86.0565 179.45 87.1202 176.718 87.6158C176.079 87.7113 175.802 86.7344 176.452 86.6282H176.441Z" fill="#FE704C"/>
<path d="M177.699 137.798C179.505 137.184 181.395 136.851 183.303 136.811C183.444 136.811 183.58 136.867 183.679 136.966C183.779 137.066 183.835 137.201 183.835 137.342C183.835 137.483 183.779 137.618 183.679 137.717C183.58 137.817 183.444 137.873 183.303 137.873C181.489 137.916 179.693 138.235 177.976 138.818C177.358 139.03 177.092 138.053 177.71 137.841L177.699 137.798Z" fill="#FE704C"/>
<path d="M179.829 140.591C181.141 140.692 182.461 140.606 183.749 140.336C183.881 140.306 184.018 140.326 184.135 140.393C184.252 140.46 184.338 140.569 184.378 140.697C184.411 140.825 184.393 140.961 184.327 141.076C184.262 141.191 184.154 141.276 184.026 141.313C182.648 141.608 181.235 141.708 179.829 141.61C179.696 141.605 179.57 141.549 179.477 141.454C179.384 141.36 179.331 141.233 179.328 141.101C179.331 140.968 179.384 140.841 179.477 140.747C179.57 140.652 179.696 140.596 179.829 140.591V140.591Z" fill="#FE704C"/>
</g>
<defs>
<clipPath id="clip0_515_8976">
<rect width="249" height="255" fill="white" transform="translate(63 2)"/>
</clipPath>
</defs>
</svg>
