<svg width="375" height="300" viewBox="0 0 375 300" fill="none" xmlns="http://www.w3.org/2000/svg">
<path fill-rule="evenodd" clip-rule="evenodd" d="M197.089 28.4114C236.102 32.2955 268.635 55.3151 292.854 86.2124C316.804 116.767 332.168 153.84 325.393 192.096C318.201 232.7 294.106 269.602 257.159 287.756C219.92 306.054 175.626 303.139 138.968 283.7C103.948 265.129 85.6298 228.887 74.363 190.82C61.7854 148.325 47.3666 99.766 74.0684 64.4302C101.203 28.5211 152.362 23.9584 197.089 28.4114Z" fill="#FAFAFA"/>
<g clip-path="url(#clip0_515_8978)">
<path d="M254.14 152.85C257.027 161.312 257.841 170.344 256.511 179.186C255.182 188.028 251.748 196.421 246.5 203.66L214.01 182.53C213.288 182.14 212.681 181.568 212.25 180.87C211.991 180.195 211.895 179.469 211.97 178.75L212.45 159C226.056 158.288 239.542 156.071 252.66 152.39L254.14 152.85Z" fill="#FFAF80"/>
<path d="M243 204.57C249.705 205.707 256.481 206.375 263.28 206.57L292.51 208.13C298.27 208.44 304.64 209.01 308.58 213.22C313.84 218.82 311.9 228.49 306.49 233.94C301.08 239.39 293.32 241.66 285.88 243.57C274.64 246.47 263.26 249.05 251.68 249.94C230.25 251.58 207.75 246.94 190.76 233.78C200.58 227.78 206.27 216.56 216.12 210.66C222.12 207.03 229.27 205.72 236.2 204.48C238.39 204.09 240.7 203.7 242.79 204.48L243 204.57Z" fill="#0D6EFD"/>
<path d="M237.4 234.23C233.559 234.206 229.847 232.837 226.91 230.36C225.843 229.286 224.64 228.358 223.33 227.6C220.61 226.36 217.33 227.55 215.03 229.42C212.73 231.29 210.97 233.8 208.73 235.77C199.3 244.08 182.8 241.77 175.31 251.88C173.59 254.2 173.02 258.27 175.7 259.35C178.02 260.28 180.24 258 182.33 256.62C185.04 254.83 188.42 254.46 191.66 254.15C208.927 252.51 226.227 251.293 243.56 250.5C244.949 244.742 244.117 238.672 241.23 233.5L237.4 234.23Z" fill="#FFAF80"/>
<path d="M235.37 138.66C237.444 135.884 238.697 132.583 238.987 129.13C239.277 125.677 238.592 122.213 237.01 119.13C236.306 117.781 235.511 116.481 234.63 115.24C230.63 109.58 225.36 104.55 223.2 97.9401C221.67 93.2601 221.85 88.2301 221.68 83.3101C221.179 69.1805 217.703 55.3154 211.48 42.6201C210.05 39.7301 208.34 36.7501 205.48 35.2101C201.15 32.8501 195.82 34.5901 191.21 36.3701L173.84 43.1101C167.75 45.3034 161.825 47.9301 156.11 50.9701C151.71 53.4601 147.59 56.4501 143.01 58.5901C139.55 60.2001 135.87 61.3001 132.47 63.0301C123.7 67.4701 108.23 82.6901 111.6 83.4901C113.281 83.4839 114.903 82.8733 116.17 81.7701C114.705 82.3643 113.405 83.3039 112.381 84.5087C111.357 85.7136 110.64 87.1481 110.29 88.6901C110.239 88.9368 110.261 89.1931 110.354 89.4274C110.447 89.6616 110.606 89.8635 110.813 90.0082C111.019 90.1528 111.263 90.2339 111.515 90.2413C111.767 90.2488 112.016 90.1823 112.23 90.0501C113.124 89.493 113.941 88.8205 114.66 88.0501C113.574 88.5449 112.617 89.2831 111.863 90.2074C111.109 91.1317 110.577 92.2173 110.31 93.3801C110.222 93.7285 110.24 94.0953 110.361 94.4336C110.482 94.772 110.701 95.0667 110.99 95.2801C111.83 95.8501 112.72 95.2801 113.45 94.7801L118.45 91.2301C116.86 92.3601 115.17 93.6201 114.97 95.7201C114.893 96.2939 115.017 96.8767 115.322 97.3692C115.626 97.8616 116.092 98.233 116.64 98.4201C117.86 98.7901 118.95 97.9801 119.87 97.2001C124.72 93.0801 131.11 88.2601 134.93 83.2001C132.59 85.8401 128.93 89.1001 127.93 92.4701C127.851 92.7371 127.858 93.0226 127.952 93.285C128.046 93.5474 128.221 93.7731 128.452 93.9292C128.683 94.0853 128.957 94.1638 129.236 94.1531C129.514 94.1425 129.782 94.0433 130 93.8701C136.29 88.8701 142.5 83.6201 146.77 76.8701C147.869 74.8066 149.212 72.8828 150.77 71.1401C152.192 69.8594 153.792 68.7917 155.52 67.9701C166.064 62.3725 177.151 57.8658 188.61 54.5201C189.439 54.1687 190.367 54.1331 191.22 54.4201C192.22 54.9201 192.57 56.1801 192.77 57.3001C195.094 69.7592 196.076 82.4316 195.7 95.1001C195.49 102.25 194.88 109.61 197.17 116.39C199.31 122.73 203.8 127.99 208.58 132.68C212.04 136.09 215.81 139.35 220.34 141.12C224.87 142.89 230.34 142.93 234.34 140.12L235.37 138.66Z" fill="#EC795C"/>
<path d="M128.25 155.92C126.56 153.01 129.25 149.45 132.16 147.76C135.07 146.07 138.63 144.87 140.16 141.85C141.5 139.11 140.59 135.76 138.99 133.16C137.39 130.56 135.16 128.38 133.59 125.76C127.73 115.99 132.22 102.66 126.92 92.5701L124.39 93.8601C123.89 91.8601 123.39 89.8001 122.9 87.7701C122.816 87.098 122.502 86.4758 122.01 86.0101C120.39 84.7801 118.68 87.4501 118.38 89.4601C115.313 110.453 113.13 131.543 111.83 152.73C111.747 153.292 111.82 153.866 112.04 154.39C112.431 154.943 112.993 155.35 113.64 155.55C118.2 157.55 123.64 159.48 127.88 156.81L128.25 155.92Z" fill="#FFAF80"/>
<path d="M211.77 173.24C225.246 182.796 239.905 190.564 255.38 196.35C244.01 207.18 238.38 223.58 225.38 232.35C221.393 234.84 217.165 236.921 212.76 238.56C199.94 243.82 187.05 249.11 173.54 252.18C161.25 254.97 148.6 255.89 136 256.18C125 256.44 113.91 256.18 103.41 253.05C98.6395 251.62 99.2195 251.12 95.9195 247.39C90.4695 241.25 90.0295 231.98 92.2995 224.09C94.5695 216.2 109.84 168.35 110.69 151.35L126.86 152.84C127.42 152.829 127.965 153.025 128.39 153.39C128.683 153.821 128.817 154.341 128.77 154.86L129.48 193.35C129.63 201.61 129.61 210.48 124.91 217.27L164.66 207.27C165.965 207.029 167.213 206.543 168.34 205.84C169.419 204.95 170.342 203.885 171.07 202.69C176.129 195.607 183.378 190.385 191.7 187.83C195.93 186.54 200.41 185.96 204.37 184C208.33 182.04 211.82 178.18 211.58 173.77L211.77 173.24Z" fill="#0D6EFD"/>
<path d="M199.93 93.5401C199.87 93.7101 187.991 83.0601 187.991 83.0601C187.991 83.0601 186.741 69.8201 183.901 68.9701C182.991 68.7772 182.045 68.8572 181.18 69.2001C177.96 70.2001 171.621 72.4601 171.621 72.4601L162.95 68.8401L163.211 75.8901C163.211 75.8901 157.001 78.6301 154.721 79.8101C150.352 82.0758 146.415 85.0917 143.091 88.7201C141.524 90.2735 140.327 92.1603 139.591 94.2401C138.361 98.3501 140.211 102.69 142.011 106.58C145.271 113.58 149.011 121.13 156.011 124.5C161.651 127.23 168.441 126.62 174.251 124.29C180.061 121.96 185.09 118.08 190.04 114.29C192.378 116.965 194.26 120.005 195.611 123.29C197.677 113.55 200.107 103.9 202.901 94.3401L199.93 93.5401Z" fill="#FFAF80"/>
<path d="M192.24 111.5C190.961 117.23 191.667 123.224 194.24 128.5C196.58 133.27 200.45 137.43 201.39 142.66C201.65 144.08 201.68 145.54 201.96 146.95C202.349 148.573 202.906 150.152 203.62 151.66L211.09 168.99C211.312 169.68 211.742 170.284 212.32 170.72C213.024 171.034 213.813 171.101 214.56 170.91C228.611 168.827 241.973 163.458 253.56 155.24C254.321 154.78 254.962 154.146 255.43 153.39C255.866 152.224 255.96 150.958 255.7 149.74C255.13 143.63 256.7 137.35 255.23 131.4C253.23 123.25 246.11 117.49 239.01 113.03C231.91 108.57 224.15 104.51 219.4 97.6101C208.986 101.32 199.316 106.853 190.84 113.95L192.24 111.5Z" fill="#FEA800"/>
<path d="M233.16 135.6C235.234 132.824 236.487 129.522 236.777 126.07C237.067 122.617 236.382 119.153 234.8 116.07C234.094 114.72 233.295 113.42 232.41 112.18C228.41 106.52 223.14 101.49 220.99 94.88C219.46 90.21 219.63 85.17 219.46 80.25C218.963 66.1199 215.487 52.2541 209.26 39.56C207.84 36.67 206.13 33.69 203.26 32.15C198.92 29.79 193.59 31.53 188.99 33.31L171.54 40.06C165.456 42.2425 159.54 44.8696 153.84 47.92C149.44 50.4 145.31 53.39 140.73 55.53C137.27 57.14 133.59 58.24 130.19 59.97C121.42 64.41 105.96 79.63 109.33 80.43C111.011 80.4238 112.633 79.8133 113.9 78.71C112.434 79.306 111.132 80.2472 110.107 81.4537C109.081 82.6601 108.362 84.0962 108.01 85.64C107.962 85.886 107.986 86.1409 108.08 86.3734C108.174 86.6059 108.333 86.806 108.539 86.9493C108.745 87.0925 108.988 87.1726 109.239 87.1799C109.489 87.1871 109.737 87.1211 109.95 86.99C110.847 86.4359 111.664 85.7632 112.38 84.99C111.296 85.4854 110.341 86.2239 109.588 87.1483C108.835 88.0726 108.306 89.1579 108.04 90.32C107.95 90.6684 107.966 91.036 108.087 91.375C108.208 91.7139 108.429 92.0084 108.72 92.22C109.56 92.79 110.45 92.22 111.17 91.72L116.17 88.17C114.58 89.3 112.88 90.56 112.68 92.66C112.608 93.2344 112.734 93.8162 113.038 94.3091C113.342 94.8019 113.805 95.1762 114.35 95.37C115.57 95.73 116.67 94.92 117.58 94.15C122.43 90.02 128.82 85.2 132.64 80.15C130.31 82.79 126.64 86.05 125.64 89.42C125.564 89.6855 125.573 89.9684 125.667 90.2284C125.76 90.4883 125.934 90.712 126.163 90.8673C126.391 91.0226 126.663 91.1017 126.939 91.0932C127.215 91.0847 127.482 90.9891 127.7 90.82C134 85.82 140.21 80.57 144.47 73.82C145.573 71.7589 146.916 69.8355 148.47 68.09C149.894 66.8161 151.489 65.749 153.21 64.92C163.755 59.3241 174.842 54.8175 186.3 51.47C187.133 51.1175 188.066 51.0855 188.92 51.38C189.92 51.87 190.26 53.14 190.47 54.25C192.789 66.7099 193.772 79.3816 193.4 92.05C193.19 99.2 192.58 106.56 194.86 113.34C197 119.68 201.5 124.94 206.27 129.63C209.74 133.04 213.51 136.31 218.04 138.07C222.57 139.83 228.04 139.88 232.04 137.07L233.16 135.6Z" fill="#FFAF80"/>
<path d="M149.84 83.3999C147.912 85.6123 146.88 88.4642 146.945 91.3976C147.01 94.3311 148.167 97.1347 150.19 99.2599C150.963 100.087 151.966 100.665 153.07 100.92C155.66 101.37 158.21 99.0699 160.74 99.7399C164.01 100.6 165.12 105.74 168.49 105.74C170.64 105.74 172.08 103.47 174.1 102.74C178.17 101.24 181.88 106.21 186.21 106.45C186.959 106.4 187.711 106.467 188.44 106.65C189.8 107.17 190.3 108.79 190.62 110.21C191.16 112.55 191.54 115.41 189.73 116.98C188.927 117.533 188.065 117.996 187.16 118.36C184.99 119.53 183.66 121.77 182.07 123.66C180.103 125.973 177.662 127.837 174.911 129.124C172.161 130.411 169.166 131.092 166.13 131.12C161.04 131.12 156.13 129.31 151.4 127.5C147.52 126.03 143.29 124.25 141.48 120.5C139.67 116.75 140.87 112.29 139.97 108.25C139.07 104.21 136.25 100.87 136.22 96.8499C136.22 93.5599 138.13 90.4999 140.65 88.3799C143.278 86.3928 146.182 84.7994 149.27 83.6499L149.84 83.3999Z" fill="#DC3545"/>
<path d="M159.12 124.48C155.81 125.77 152.569 127.63 150.539 130.55C148.509 133.47 147.97 137.62 149.99 140.55C152.16 143.71 156.81 144.97 157.94 148.63C159.07 152.29 155.94 155.84 153.19 158.57C148.13 163.57 143.239 169.8 143.539 176.91C143.879 185.1 152.41 191.91 160.47 190.47C156.9 189.76 154.94 185.47 155.76 181.88C156.58 178.29 159.4 175.58 162.44 173.57C165.48 171.56 168.86 170.07 171.74 167.83C176.09 164.44 179.13 159.18 179.15 153.66C179.17 148.14 175.88 142.57 170.74 140.56C168.74 139.8 166.69 139.56 164.74 138.88C161.809 137.845 159.253 135.961 157.397 133.467C155.541 130.974 154.47 127.984 154.32 124.88L159.12 124.48Z" fill="#DC3545"/>
<path d="M187.99 83.05L188.81 96.1601L191.73 87.2001L187.99 83.05Z" fill="#EC795C"/>
<path d="M113.09 92.64L123.09 80.51C123.59 79.91 122.72 79.03 122.22 79.64L112.22 91.77C111.72 92.38 112.58 93.25 113.09 92.64Z" fill="#EC795C"/>
<path d="M110 88.3499C113.72 84.1299 117.6 80.0565 121.64 76.1299C122.21 75.5799 121.34 74.7099 120.77 75.2599C116.77 79.1799 112.89 83.2532 109.13 87.4799C108.61 88.0699 109.48 88.9399 110 88.3499Z" fill="#EC795C"/>
<path d="M111 82.19C113.658 79.1295 116.612 76.3393 119.82 73.86C119.934 73.744 119.998 73.5877 119.998 73.425C119.998 73.2622 119.934 73.1059 119.82 72.99C119.702 72.8781 119.547 72.8157 119.385 72.8157C119.223 72.8157 119.067 72.8781 118.95 72.99C115.742 75.4693 112.788 78.2595 110.13 81.32C109.62 81.91 110.48 82.79 111 82.19Z" fill="#EC795C"/>
<path d="M118.75 71.2499C120.74 74.7886 122.474 78.4645 123.94 82.2499C124.22 82.9799 125.41 82.6699 125.13 81.9299C123.632 78.0446 121.865 74.2687 119.84 70.6299C119.758 70.4894 119.623 70.3872 119.466 70.346C119.308 70.3047 119.141 70.3277 119 70.4099C118.86 70.4921 118.758 70.6268 118.716 70.7844C118.675 70.9419 118.698 71.1094 118.78 71.2499H118.75Z" fill="#EC795C"/>
<path d="M113.06 93.8801C112.947 93.9973 112.859 94.1366 112.803 94.2892C112.746 94.4418 112.722 94.6045 112.731 94.767C112.741 94.9294 112.784 95.0882 112.857 95.2333C112.931 95.3784 113.034 95.5067 113.16 95.6101C113.411 95.8407 113.709 96.0152 114.033 96.122C114.357 96.2289 114.7 96.2658 115.04 96.2301C116.671 96.035 118.207 95.3558 119.45 94.2801C120.819 93.1071 122.1 91.8336 123.28 90.4701C124.7 88.9501 126.12 87.4701 127.53 85.9201L126.53 85.1801C125.605 86.7928 125.062 88.5953 124.94 90.4501C124.943 90.5834 124.988 90.7124 125.069 90.8184C125.149 90.9244 125.262 91.002 125.39 91.0401L126.71 91.5201C127.45 91.8001 127.77 90.6101 127.03 90.3401L125.72 89.8501L126.17 90.4501C126.281 88.8119 126.767 87.2212 127.59 85.8001C127.93 85.2001 127.11 84.5301 126.59 85.0501C124.39 87.4001 122.26 89.8401 119.97 92.0501C119.043 93.0348 117.953 93.8533 116.75 94.4701C116.187 94.7374 115.581 94.9033 114.96 94.9601C114.714 94.9994 114.462 94.9717 114.23 94.8801C114.12 94.8801 114.02 94.7001 113.91 94.6601C113.8 94.6201 113.99 94.5601 113.85 94.7101C114.39 94.1301 113.52 93.2501 112.98 93.8401L113.06 93.8801Z" fill="#EC795C"/>
<path d="M143.521 59.9101C144.516 61.6843 145.225 63.6046 145.621 65.6001C145.665 65.7575 145.77 65.891 145.912 65.9716C146.054 66.0521 146.223 66.0731 146.381 66.0301C146.534 65.9835 146.664 65.8799 146.744 65.7405C146.824 65.6011 146.848 65.4364 146.81 65.2801C146.389 63.1749 145.636 61.1498 144.58 59.2801C144.498 59.1395 144.364 59.0374 144.206 58.9961C144.049 58.9549 143.881 58.9779 143.74 59.0601C143.6 59.1423 143.498 59.277 143.457 59.4345C143.415 59.592 143.438 59.7595 143.521 59.9001V59.9101Z" fill="#EC795C"/>
<path d="M124.651 93.7499C123.931 94.5014 123.406 95.4168 123.12 96.417C122.834 97.4171 122.797 98.4719 123.011 99.4899C123.055 99.6451 123.158 99.7769 123.298 99.8572C123.438 99.9375 123.604 99.96 123.761 99.9199C123.916 99.8733 124.048 99.7682 124.129 99.6265C124.209 99.4848 124.231 99.3176 124.19 99.1599C124.033 98.3519 124.072 97.5181 124.303 96.7282C124.535 95.9382 124.952 95.2153 125.521 94.6199C126.071 94.0499 125.201 93.1799 124.651 93.7499V93.7499Z" fill="#EC795C"/>
<path d="M121.74 132.06C120.973 133.429 120.753 135.038 121.124 136.563C121.495 138.088 122.43 139.416 123.74 140.28C124.41 140.71 125.03 139.64 124.36 139.22C123.332 138.52 122.602 137.463 122.312 136.254C122.021 135.044 122.192 133.77 122.79 132.68C122.873 132.54 122.896 132.372 122.854 132.215C122.813 132.057 122.711 131.922 122.57 131.84C122.43 131.758 122.262 131.735 122.105 131.776C121.947 131.817 121.813 131.92 121.73 132.06H121.74Z" fill="#EC795C"/>
<path d="M183.1 256.52L184.76 253.58C184.838 253.438 184.859 253.272 184.818 253.116C184.777 252.96 184.677 252.825 184.54 252.74C184.398 252.664 184.232 252.645 184.077 252.686C183.921 252.726 183.787 252.824 183.7 252.96L182.04 255.9C181.959 256.041 181.937 256.208 181.978 256.365C182.019 256.522 182.121 256.657 182.26 256.74C182.401 256.818 182.567 256.839 182.724 256.798C182.88 256.757 183.015 256.657 183.1 256.52V256.52Z" fill="#EC795C"/>
<path d="M230.84 238.46C230.667 239.534 230.798 240.636 231.219 241.64C231.639 242.644 232.332 243.51 233.22 244.14C233.361 244.221 233.528 244.243 233.685 244.202C233.842 244.16 233.976 244.059 234.06 243.92C234.138 243.778 234.159 243.612 234.118 243.456C234.077 243.3 233.977 243.165 233.84 243.08C233.179 242.593 232.662 241.936 232.343 241.179C232.025 240.422 231.916 239.593 232.03 238.78C232.065 238.624 232.04 238.46 231.961 238.321C231.881 238.183 231.752 238.079 231.6 238.03C231.442 237.987 231.274 238.008 231.131 238.088C230.989 238.169 230.884 238.303 230.84 238.46V238.46Z" fill="#EC795C"/>
<path d="M192.59 81.77C192.63 88.0966 192.663 94.43 192.69 100.77C192.69 103.85 192.58 106.96 192.81 110.03C193.021 112.757 193.867 115.398 195.28 117.74C196.849 120.234 198.709 122.534 200.82 124.59C200.939 124.683 201.088 124.729 201.239 124.719C201.39 124.71 201.532 124.646 201.639 124.539C201.745 124.432 201.81 124.29 201.819 124.139C201.829 123.988 201.783 123.839 201.69 123.72C198.07 120.02 194.58 115.78 194.07 110.42C193.79 107.42 193.93 104.42 193.92 101.42V92.23C193.92 88.76 193.92 85.23 193.92 81.81C193.901 81.6604 193.828 81.5229 193.714 81.4232C193.601 81.3235 193.456 81.2686 193.305 81.2686C193.154 81.2686 193.008 81.3235 192.895 81.4232C192.782 81.5229 192.709 81.6604 192.69 81.81L192.59 81.77Z" fill="#EC795C"/>
<path d="M189.35 52.6L196.23 44.47C196.74 43.87 195.88 42.99 195.37 43.6L188.48 51.73C187.97 52.33 188.83 53.21 189.35 52.6Z" fill="#EC795C"/>
<path d="M173.61 73.13C174.035 74.7166 174.144 76.3714 173.93 78C173.93 78.081 173.946 78.1611 173.977 78.2358C174.008 78.3105 174.054 78.3782 174.112 78.4349C174.169 78.4917 174.238 78.5364 174.313 78.5665C174.388 78.5965 174.469 78.6113 174.55 78.61C174.71 78.605 174.862 78.5391 174.975 78.4258C175.089 78.3125 175.155 78.1602 175.16 78C175.375 76.263 175.253 74.5006 174.8 72.81C174.744 72.6681 174.638 72.5517 174.502 72.4831C174.365 72.4145 174.209 72.3984 174.061 72.438C173.914 72.4776 173.787 72.5701 173.703 72.6977C173.62 72.8254 173.587 72.9793 173.61 73.13V73.13Z" fill="#EC795C"/>
<path d="M161.43 81.2299C161.915 81.3376 162.365 81.5678 162.736 81.8987C163.107 82.2295 163.387 82.65 163.55 83.1199C163.741 83.6022 163.817 84.123 163.77 84.6399C163.719 85.1063 163.547 85.5513 163.27 85.9299C163.158 86.0471 163.095 86.2029 163.095 86.3649C163.095 86.5269 163.158 86.6827 163.27 86.7999C163.386 86.9141 163.542 86.9781 163.705 86.9781C163.867 86.9781 164.024 86.9141 164.14 86.7999C164.575 86.241 164.859 85.5787 164.962 84.8777C165.065 84.1766 164.985 83.4608 164.73 82.7999C164.507 82.1238 164.114 81.5165 163.589 81.0366C163.063 80.5566 162.423 80.2202 161.73 80.0599C161.573 80.0224 161.409 80.046 161.269 80.1259C161.13 80.2059 161.026 80.3361 160.98 80.4899C160.958 80.5674 160.953 80.6483 160.963 80.728C160.973 80.8076 160.999 80.8845 161.039 80.9542C161.079 81.0239 161.132 81.085 161.196 81.134C161.259 81.1831 161.332 81.219 161.41 81.2399L161.43 81.2299Z" fill="#390E0C"/>
<path d="M154.01 84.28C154.009 83.5371 154.292 82.8219 154.8 82.28C155.062 82.0239 155.407 81.8685 155.773 81.841C156.138 81.8136 156.502 81.9159 156.8 82.13C157.64 82.86 157.16 84.2 156.86 85.28C156.544 86.4832 156.549 87.7483 156.875 88.9488C157.202 90.1492 157.838 91.2428 158.72 92.12C156.993 91.5156 155.54 90.3132 154.623 88.7303C153.706 87.1474 153.386 85.2886 153.72 83.49L154.01 84.28Z" fill="#DC3545"/>
<path d="M167.08 101.77C163.88 103.38 162.67 108.1 164.9 110.9C167.13 113.7 172.26 113.4 173.9 110.25C175.49 107.25 173.9 103.66 172.31 100.68L167.08 101.77Z" fill="#FFAF80"/>
<path d="M168.38 108.19C168.841 107.677 169.342 107.202 169.88 106.77L170.08 106.61L170.19 106.52L170.61 106.23C170.9 106.03 171.19 105.84 171.49 105.66C171.63 105.577 171.731 105.442 171.772 105.285C171.813 105.128 171.791 104.961 171.71 104.82C171.625 104.683 171.491 104.583 171.334 104.542C171.178 104.501 171.012 104.522 170.87 104.6C169.619 105.34 168.484 106.259 167.5 107.33C167.386 107.446 167.322 107.602 167.322 107.765C167.322 107.928 167.386 108.084 167.5 108.2C167.618 108.312 167.773 108.374 167.935 108.374C168.097 108.374 168.253 108.312 168.37 108.2L168.38 108.19Z" fill="#EC795C"/>
<path d="M169.2 107.65C169.6 108.08 170.01 108.5 170.42 108.93C170.476 108.987 170.543 109.033 170.616 109.064C170.69 109.094 170.77 109.11 170.85 109.11C170.931 109.111 171.012 109.095 171.088 109.064C171.163 109.033 171.232 108.988 171.29 108.93C171.348 108.875 171.394 108.808 171.425 108.734C171.456 108.66 171.471 108.58 171.47 108.5C171.461 108.337 171.398 108.182 171.29 108.06L170.06 106.78C169.945 106.666 169.791 106.602 169.63 106.6C169.468 106.602 169.314 106.666 169.2 106.78C169.142 106.836 169.097 106.903 169.066 106.977C169.035 107.051 169.019 107.13 169.02 107.21C169.018 107.292 169.033 107.373 169.064 107.449C169.095 107.524 169.141 107.593 169.2 107.65V107.65Z" fill="#EC795C"/>
<path d="M155.3 125.6C153.79 127.14 154.399 129.53 155.419 131.17C156.614 133.054 158.265 134.605 160.22 135.68C162.486 136.738 164.9 137.446 167.38 137.78C169.671 138.237 171.885 139.025 173.95 140.12C178.011 142.204 181.216 145.642 183.01 149.84C183.848 151.846 184.081 154.053 183.68 156.19C183.09 158.448 181.819 160.47 180.039 161.98C178.119 163.723 175.868 165.063 173.42 165.922C170.973 166.781 168.378 167.14 165.789 166.98C164.999 166.93 165.009 168.15 165.789 168.21C170.483 168.5 175.135 167.173 178.97 164.45C180.913 163.125 182.547 161.395 183.76 159.38C184.856 157.43 185.304 155.181 185.039 152.96C184.509 148.38 181.679 144.35 178.159 141.51C176.385 140.082 174.419 138.911 172.32 138.03C169.99 137.174 167.586 136.535 165.14 136.12C162.474 135.667 160.005 134.427 158.05 132.56C157.178 131.716 156.472 130.715 155.97 129.61C155.699 129.129 155.575 128.58 155.61 128.03C155.646 127.48 155.84 126.952 156.169 126.51C156.719 125.95 155.85 125.08 155.3 125.64V125.6Z" fill="#DC3545"/>
<path d="M150.31 122.66C148.038 122.661 145.822 121.962 143.96 120.66C143.037 120.019 142.254 119.198 141.658 118.246C141.061 117.293 140.664 116.23 140.49 115.12C140.05 112.47 140.44 109.7 139.35 107.18C138.35 104.96 136.24 103.48 135.42 101.18C134.32 98.12 136.2 94.91 137.74 92.36C137.822 92.2195 137.845 92.052 137.804 91.8945C137.763 91.7369 137.661 91.6023 137.52 91.52C137.38 91.4378 137.212 91.4148 137.055 91.4561C136.897 91.4973 136.762 91.5995 136.68 91.74C135.2 94.19 133.59 97.03 133.91 100C134.076 101.336 134.598 102.604 135.42 103.67C136.19 104.67 137.1 105.67 137.78 106.78C139.27 109.23 138.87 112.2 139.23 114.92C139.52 117.415 140.786 119.695 142.75 121.26C144.908 122.948 147.571 123.861 150.31 123.85C150.46 123.831 150.597 123.758 150.697 123.645C150.797 123.532 150.852 123.386 150.852 123.235C150.852 123.084 150.797 122.939 150.697 122.825C150.597 122.712 150.46 122.639 150.31 122.62V122.66Z" fill="#DC3545"/>
<path d="M220.35 106.2C220.83 109.575 222.552 112.649 225.18 114.82C225.294 114.934 225.449 114.997 225.61 114.997C225.771 114.997 225.925 114.934 226.04 114.82C226.154 114.704 226.218 114.548 226.218 114.385C226.218 114.222 226.154 114.066 226.04 113.95C223.574 111.92 221.963 109.035 221.53 105.87C221.485 105.715 221.382 105.583 221.242 105.503C221.102 105.422 220.936 105.4 220.78 105.44C220.624 105.487 220.492 105.592 220.412 105.733C220.332 105.875 220.309 106.042 220.35 106.2V106.2Z" fill="#EC795C"/>
<path d="M240.84 233.35C245.537 228.882 250.747 224.985 256.36 221.74C261.945 218.509 267.884 215.932 274.06 214.06C277.552 213.009 281.11 212.19 284.71 211.61C285.49 211.48 285.16 210.3 284.38 210.42C277.902 211.473 271.571 213.289 265.52 215.83C259.506 218.356 253.802 221.564 248.52 225.39C245.529 227.565 242.682 229.934 240 232.48C239.42 233.03 240.29 233.9 240.87 233.35H240.84Z" fill="#19237C"/>
<path d="M271.91 210.28L269.8 213.61C269.759 213.68 269.732 213.756 269.721 213.836C269.71 213.916 269.714 213.998 269.735 214.076C269.755 214.154 269.791 214.228 269.84 214.292C269.889 214.356 269.95 214.41 270.02 214.45C270.162 214.528 270.328 214.549 270.484 214.508C270.641 214.467 270.775 214.367 270.86 214.23L272.97 210.9C273.051 210.759 273.073 210.592 273.032 210.435C272.991 210.278 272.89 210.143 272.75 210.06C272.609 209.982 272.443 209.961 272.286 210.002C272.13 210.043 271.995 210.143 271.91 210.28V210.28Z" fill="#19237C"/>
<path d="M210.05 181.25C214.763 184.87 219.573 188.347 224.48 191.68C228.869 194.853 233.558 197.589 238.48 199.85C241.26 201.068 244.188 201.912 247.19 202.36C247.345 202.398 247.508 202.376 247.648 202.298C247.787 202.22 247.891 202.092 247.94 201.94C247.983 201.782 247.962 201.614 247.881 201.471C247.801 201.329 247.667 201.224 247.51 201.18C242.244 200.277 237.205 198.351 232.68 195.51C227.82 192.65 223.18 189.38 218.6 186.09C215.933 184.17 213.287 182.203 210.66 180.19C210.03 179.71 209.42 180.78 210.04 181.25H210.05Z" fill="#19237C"/>
<path d="M169.5 206.95C171.091 210.999 172.199 215.221 172.8 219.53C172.91 220.31 174.09 219.98 173.98 219.2C173.376 214.893 172.272 210.671 170.69 206.62C170.4 205.89 169.21 206.21 169.5 206.95Z" fill="#19237C"/>
<path d="M171.65 206.22L177.42 214.22C177.505 214.357 177.64 214.457 177.796 214.498C177.952 214.539 178.118 214.518 178.26 214.44C178.33 214.4 178.391 214.346 178.44 214.282C178.489 214.217 178.525 214.144 178.546 214.066C178.566 213.988 178.571 213.906 178.559 213.826C178.548 213.746 178.521 213.67 178.48 213.6L172.71 205.6C172.623 205.465 172.489 205.367 172.333 205.326C172.177 205.285 172.012 205.304 171.87 205.38C171.8 205.42 171.739 205.474 171.69 205.538C171.641 205.603 171.605 205.676 171.584 205.754C171.564 205.832 171.559 205.914 171.57 205.994C171.582 206.074 171.609 206.151 171.65 206.22Z" fill="#19237C"/>
<path d="M124.63 216.94L117.63 230.41C117.27 231.11 118.33 231.73 118.7 231.03C121.007 226.537 123.323 222.047 125.65 217.56C126.01 216.86 124.95 216.24 124.59 216.94H124.63Z" fill="#19237C"/>
<path d="M126.31 218.2C125.083 220.807 124.167 223.549 123.58 226.37C123.42 227.14 124.58 227.47 124.77 226.69C125.324 223.974 126.197 221.332 127.37 218.82C127.7 218.11 126.64 217.49 126.31 218.2V218.2Z" fill="#19237C"/>
<path d="M112.24 159.13C116.981 159.437 121.734 159.493 126.48 159.3C127.26 159.3 127.27 158.04 126.48 158.07C121.734 158.268 116.98 158.212 112.24 157.9C111.45 157.85 111.46 159.08 112.24 159.13Z" fill="#19237C"/>
<path d="M211.51 167.56C222.677 164.267 233.717 160.56 244.63 156.44C247.724 155.267 250.804 154.06 253.87 152.82C254.6 152.53 254.28 151.34 253.55 151.64C242.743 155.993 231.787 159.937 220.68 163.47C217.52 164.47 214.353 165.437 211.18 166.37C211.035 166.425 210.916 166.531 210.846 166.669C210.776 166.807 210.761 166.966 210.802 167.116C210.843 167.265 210.939 167.393 211.07 167.475C211.201 167.557 211.358 167.588 211.51 167.56V167.56Z" fill="#EC795C"/>
<path d="M212.66 138.9C215.806 140.87 219.351 142.113 223.037 142.538C226.724 142.964 230.459 142.561 233.97 141.36C235.959 140.687 237.847 139.745 239.58 138.56C240.23 138.12 239.58 137.06 238.96 137.5C236.005 139.462 232.648 140.739 229.136 141.235C225.623 141.732 222.044 141.436 218.66 140.37C216.762 139.771 214.952 138.92 213.28 137.84C212.61 137.41 211.99 138.48 212.66 138.9Z" fill="#EC795C"/>
</g>
<defs>
<clipPath id="clip0_515_8978">
<rect width="220.68" height="228.56" fill="white" transform="translate(91 31)"/>
</clipPath>
</defs>
</svg>
