<svg width="375" height="300" viewBox="0 0 375 300" fill="none" xmlns="http://www.w3.org/2000/svg">
<path fill-rule="evenodd" clip-rule="evenodd" d="M191.966 35.0005C256.967 34.8594 322.145 62.7337 341.83 118.038C361.195 172.445 323.574 226.102 271.996 259.847C219.608 294.123 150.306 311.326 96.9599 278.249C40.5631 243.281 21.7211 176.566 44.3284 118.684C65.5474 64.3561 127.518 35.1404 191.966 35.0005Z" fill="#FAFAFA"/>
<path d="M78.8809 208.301C78.0634 211.756 77.4584 215.258 77.0693 218.786C76.9195 219.575 76.9487 220.387 77.1549 221.163C77.5214 221.995 78.0793 222.73 78.783 223.306L84.7198 228.941C88.1105 232.162 91.9787 235.592 96.6547 235.616C98.8335 235.616 101.894 235.494 102.224 237.649C102.481 239.364 100.413 240.467 98.6989 240.748C95.6803 241.251 92.5843 240.994 89.6896 240.001C86.813 238.997 84.2056 237.306 81.2923 236.425C76.3225 234.93 70.9733 235.959 65.7832 235.751C60.5931 235.543 54.7664 233.301 53.1506 228.402C52.1346 225.205 53.1506 221.751 54.3135 218.603C56.068 213.532 57.8879 208.485 59.773 203.463C59.9084 202.954 60.1942 202.497 60.5931 202.153C61.1104 201.877 61.7064 201.786 62.2823 201.895C66.44 202.261 70.5449 203.082 74.5232 204.345C77.0325 205.141 80.0071 207.003 79.4195 209.563L78.8809 208.301Z" fill="#E89369"/>
<path d="M159.817 97.6705C151.894 125.08 136.154 149.581 114.526 168.174C110.658 171.494 106.594 174.605 103.019 178.243C94.1203 187.295 88.6364 199.066 81.4755 209.526C81.1568 210.109 80.6707 210.583 80.08 210.886C79.4016 211.118 78.6653 211.118 77.9869 210.886C71.8226 209.272 66.124 206.23 61.3516 202.005C76.8118 180.252 92.2964 158.473 105.725 135.409C112.628 123.564 118.969 111.401 126.093 99.7038C129.215 94.5961 132.581 89.4516 137.392 85.8995C142.202 82.3473 148.776 80.6202 154.272 82.9842C159.768 85.3483 163.085 92.624 160.025 97.7685L159.817 97.6705Z" fill="#FE704C"/>
<path d="M309.891 234.698C316.617 236.18 323.472 237 330.357 237.147C333.222 237.147 336.478 237.331 338.277 239.597C335.829 241.263 332.5 239.377 329.598 239.952C328.986 240.075 328.264 240.516 328.374 241.177C328.496 241.523 328.746 241.808 329.072 241.973L332.181 244.031C330.443 245.048 328.252 244.46 326.33 243.835L314.273 239.952C313.76 239.82 313.281 239.582 312.865 239.254C312.379 238.664 312.002 237.992 311.751 237.27C311.409 236.584 310.686 235.935 309.952 236.167L309.891 234.698Z" fill="#E89369"/>
<path d="M47.6419 207.603C45.5214 218.038 41.3163 227.937 35.2787 236.706C32.8305 240.381 29.8559 244.84 31.8512 248.759C32.5252 249.882 33.4653 250.821 34.5883 251.494C35.7112 252.167 36.9825 252.553 38.2899 252.618C40.9023 252.721 43.5175 252.498 46.0751 251.956C54.1356 250.788 62.3473 251.225 70.2385 253.242C71.2505 253.61 72.3471 253.678 73.3967 253.438C74.4004 253.071 75.1227 251.748 74.4616 250.903C75.4451 251.993 76.7627 252.725 78.2073 252.985C79.6518 253.083 81.2553 251.76 80.937 250.4C81.2553 250.866 81.691 251.239 82.2 251.482C82.709 251.725 83.2731 251.828 83.835 251.782C84.397 251.736 84.9367 251.542 85.3995 251.22C85.8623 250.898 86.2316 250.459 86.4699 249.947C86.7526 250.235 87.1103 250.438 87.5024 250.532C87.8946 250.627 88.3054 250.609 88.6881 250.482C89.0707 250.354 89.4099 250.122 89.6669 249.81C89.924 249.499 90.0887 249.122 90.1422 248.722C92.4802 248.967 95.0385 246.273 93.5451 244.411C92.0517 242.549 89.4811 244.092 87.339 244.644C83.4219 245.66 79.4804 243.333 76.1386 240.969C71.7156 237.915 67.3987 234.73 63.1878 231.415C62.2237 230.736 61.3936 229.885 60.7396 228.904C59.2585 226.332 60.4458 223.098 61.6577 220.33L63.9957 210.249L47.6419 207.603Z" fill="#FFAF80"/>
<path d="M209.417 168.395C210.801 171.665 212.172 174.948 213.555 178.194L205.5 180.644C204.154 181.06 202.624 181.587 203.052 183.939C203.11 184.271 203.205 184.595 203.334 184.906L208.597 198.539L202.869 200.842C202.722 200.897 202.598 200.999 202.514 201.131C202.43 201.263 202.391 201.419 202.404 201.575C202.416 201.732 202.479 201.88 202.583 201.997C202.686 202.114 202.825 202.195 202.979 202.226C205.162 202.802 207.139 203.983 208.683 205.631C210.848 208.148 212.57 211.014 213.775 214.107C216.309 219.717 219.602 226.136 225.661 227.226C229.174 227.85 232.699 226.43 235.943 224.948C241.019 222.628 245.989 220.089 250.853 217.329C252.798 216.425 254.482 215.043 255.749 213.311C257.512 210.42 256.777 206.721 255.945 203.426C253.015 191.847 249.665 180.387 245.895 169.044C245.417 167.24 244.584 165.55 243.447 164.071C240.852 161.119 236.384 160.837 232.43 161.18C224.006 161.94 215.848 164.528 208.524 168.762L209.417 168.395Z" fill="#FFAF80"/>
<path d="M216.125 221.751C217.092 225.695 221.278 228.389 225.538 228.99C229.798 229.59 234.107 228.5 238.183 227.189C244.303 225.229 250.24 222.669 254.892 218.505C259.543 214.34 262.689 208.363 261.991 202.361C261.526 198.319 259.409 194.62 257.242 191.104C253.268 184.645 248.971 178.374 244.352 172.29C239.884 176.283 235.037 181.183 235.784 186.989C236.261 190.945 239.456 194.62 238.575 198.527C237.718 202.655 232.711 205.484 232.797 209.686C233.012 210.865 233.094 212.065 233.042 213.262C232.809 214.487 231.328 215.516 230.288 214.818C230.288 212.772 227.093 211.829 225.391 213.091C224.619 213.78 224.073 214.687 223.824 215.692C223.575 216.697 223.635 217.754 223.996 218.725L220.936 215.246L213.469 218.149L216.125 221.751Z" fill="#212529"/>
<path d="M254.524 215.981C254.78 217.562 255.486 219.035 256.556 220.225C257.626 221.416 259.016 222.273 260.559 222.694C263.67 223.486 266.955 223.236 269.911 221.983C274.147 220.379 278.259 216.9 278.345 212.38C278.419 208.118 274.954 204.664 271.478 202.202C269.939 201.007 268.197 200.098 266.337 199.519C264.187 199.011 261.929 199.245 259.929 200.184C257.929 201.122 256.305 202.71 255.32 204.688L254.524 215.981Z" fill="#212529"/>
<path d="M163.282 101.688C165.926 108.033 164.506 115.235 165.228 122.07C166.269 132.678 172.169 142.097 177.897 151.075C183.357 159.649 189.453 168.689 198.927 172.278C205.354 174.727 212.527 174.25 219.284 172.976C224.058 172.082 229.236 170.845 233.593 172.976C236.237 174.299 238.147 176.651 239.946 179.1C247.544 188.997 254.794 199.147 261.698 209.551C266.386 216.63 271.026 223.931 277.611 229.271C288.053 237.723 302.24 240.295 312.889 248.477C315.925 250.817 318.667 253.61 322.07 255.361C325.987 257.382 330.504 257.811 334.899 258.191C341.753 258.693 350.714 258.362 357.862 258.117C358.005 258.115 358.143 258.069 358.257 257.983C358.371 257.898 358.456 257.779 358.498 257.643C358.54 257.507 358.538 257.361 358.492 257.226C358.446 257.091 358.358 256.974 358.242 256.892C355.767 255.465 352.906 254.857 350.065 255.153C354.668 256.306 359.445 256.597 364.154 256.01C364.284 255.982 364.403 255.916 364.495 255.82C364.588 255.724 364.65 255.603 364.673 255.471C364.697 255.34 364.681 255.205 364.628 255.083C364.575 254.961 364.486 254.857 364.375 254.785C361.99 253.576 359.314 253.058 356.651 253.291C359.1 254.069 361.685 254.328 364.24 254.05C364.401 254.029 364.549 253.949 364.656 253.826C364.764 253.703 364.823 253.546 364.823 253.383C364.823 253.22 364.764 253.063 364.656 252.94C364.549 252.817 364.401 252.737 364.24 252.715L336.196 247.742C333.022 247.323 329.921 246.47 326.979 245.207C323.671 243.363 320.69 240.988 318.153 238.176L294.467 214.634C290.55 210.751 286.535 206.795 281.602 204.333C278.64 202.863 262.763 170.306 240.375 141.276C220.361 115.333 194.141 93.7632 183.149 74.7041C178.233 76.5982 173.844 79.6446 170.349 83.5876C166.853 87.5305 164.354 92.2549 163.062 97.3643L163.282 101.688Z" fill="#FFAF80"/>
<path d="M164.714 109.282C163.587 103.28 161.041 98.9322 157.296 96.2987C156.247 95.6863 155.048 95.38 153.834 95.4147C152.62 95.4493 151.441 95.8234 150.429 96.4947C148.433 97.8681 146.762 99.6616 145.532 101.749C138.873 111.548 134.197 122.572 129.619 133.474C127.416 138.679 125.2 143.959 121.736 148.417C118.59 152.472 114.538 155.705 110.597 158.976C91.6235 174.691 73.6294 192.892 64.5467 215.81C59.3933 213.666 46.1855 209.404 46.3691 208.461C51.192 184.771 66.236 159.466 86.5436 146.396C89.5915 144.424 92.8476 142.562 94.9653 139.61C96.2965 137.559 97.2962 135.31 97.9275 132.947C101.752 120.931 104.401 108.571 105.835 96.0415C106.741 88.239 107.169 80.3141 109.397 72.7688C111.845 64.4807 116.361 56.9524 122.519 50.8926C127.514 45.9931 133.952 42.0122 140.954 42.0122C149.804 42.0122 157.308 48.2223 163.808 54.261C170.308 60.2996 177.505 73.9937 186.331 74.8389C185.866 80.853 183.577 79.4934 180.015 84.3684C177.04 88.435 173.148 91.7177 169.928 95.6618C166.709 99.6059 164.714 109.282 164.714 109.282Z" fill="#F98A73"/>
<path d="M195.01 171.322C195.487 171.057 195.874 170.655 196.122 170.169C196.371 169.683 196.469 169.133 196.405 168.591C195.781 163.691 200.751 158.792 205.916 158.486C211.682 158.081 217.007 161.425 221.609 164.953C226.212 168.481 230.814 172.425 236.482 173.527C231.341 169.693 226.15 165.725 222.49 160.445C218.83 155.166 216.909 148.307 218.99 142.232C221.071 136.156 227.938 131.649 234.058 133.572C226.34 123.604 217.864 114.246 208.707 105.583C196.332 116.386 182.504 125.399 167.627 132.359C172.278 148.135 180.627 163.336 195.01 171.286V171.322Z" fill="#0D6EFD"/>
<path d="M86.593 247.436C86.7475 247.418 86.9036 247.418 87.0582 247.436H87.1805C87.3274 247.436 87.0336 247.436 87.1805 247.436H87.3887C87.4693 247.449 87.5476 247.474 87.6213 247.51H87.7191C87.8171 247.51 87.7191 247.51 87.7191 247.51C87.803 247.531 87.882 247.569 87.9517 247.62L88.1476 247.742H88.2333C88.2333 247.742 88.368 247.804 88.2333 247.742C88.2986 247.781 88.3565 247.831 88.4046 247.889L88.5638 248.049L88.6495 248.147C88.6495 248.147 88.7351 248.257 88.6495 248.147C88.6742 248.176 88.6948 248.209 88.7106 248.245L88.8331 248.453V248.539C88.9065 248.673 88.8331 248.416 88.8331 248.539L88.9065 248.771C88.9496 248.93 89.0535 249.065 89.1955 249.148C89.3376 249.23 89.5064 249.253 89.6655 249.212C89.8227 249.164 89.9551 249.057 90.0349 248.913C90.1148 248.769 90.1359 248.6 90.0939 248.441C89.8725 247.662 89.3814 246.988 88.7085 246.539C88.0355 246.09 87.2248 245.896 86.4216 245.991C86.2598 245.998 86.1049 246.058 85.981 246.162C85.8715 246.283 85.8104 246.44 85.8096 246.603C85.8096 246.909 86.0789 247.265 86.4216 247.228L86.593 247.436Z" fill="#EC795C"/>
<path d="M83.2144 248.587H83.447C83.5205 248.587 83.3124 248.587 83.447 248.587H83.5695C83.7153 248.611 83.8587 248.648 83.9979 248.698H84.0958C84.2427 248.698 83.9734 248.636 84.0958 248.698L84.2794 248.783C84.4183 248.858 84.5532 248.94 84.6834 249.028L84.8548 249.188L85.0139 249.347C85.0623 249.397 85.1073 249.45 85.1485 249.506C85.1485 249.506 85.1485 249.433 85.1485 249.506L85.2097 249.592L85.3199 249.788C85.3598 249.849 85.3926 249.915 85.4178 249.984V249.984C85.4301 250.024 85.4301 250.066 85.4178 250.106C85.4661 250.264 85.5734 250.396 85.7172 250.476C85.8609 250.556 86.03 250.577 86.189 250.535C86.3452 250.489 86.4775 250.384 86.5575 250.243C86.6376 250.101 86.6591 249.933 86.6174 249.776C86.3515 249.044 85.8745 248.408 85.2469 247.948C84.6193 247.488 83.8694 247.224 83.0921 247.191C82.9286 247.191 82.7717 247.255 82.6549 247.37C82.5382 247.484 82.471 247.64 82.4678 247.804C82.4738 247.967 82.5415 248.123 82.6573 248.239C82.7731 248.354 82.9284 248.422 83.0921 248.428L83.2144 248.587Z" fill="#EC795C"/>
<path d="M78.8437 249.825C78.9661 249.852 79.0852 249.894 79.1988 249.947V249.947H79.2722L79.4436 250.033L79.6027 250.143H79.6884C79.6884 250.143 79.7863 250.241 79.6884 250.143L79.9699 250.388L80.0923 250.535V250.596C80.1658 250.694 79.9944 250.474 80.0923 250.596C80.1903 250.719 80.227 250.805 80.2882 250.903L80.3738 251.074V251.148C80.2882 250.988 80.3738 251.074 80.3738 251.148C80.4219 251.272 80.4629 251.398 80.4963 251.527C80.542 251.684 80.6469 251.816 80.7886 251.896C80.9304 251.976 81.0978 251.998 81.2552 251.956C81.4098 251.908 81.5401 251.802 81.6197 251.661C81.6993 251.52 81.7221 251.354 81.6836 251.196C81.5359 250.591 81.2322 250.035 80.8026 249.583C80.373 249.132 79.8326 248.801 79.2354 248.624C79.075 248.586 78.9059 248.61 78.7627 248.692C78.6194 248.774 78.5127 248.907 78.4643 249.065C78.4231 249.224 78.4463 249.393 78.5287 249.535C78.6112 249.678 78.7465 249.782 78.905 249.825H78.8437Z" fill="#EC795C"/>
<path d="M74.2413 250.988H74.0943H74.2779H74.1188H74.3147H74.1556H74.3759H74.229C74.3172 251.026 74.3997 251.075 74.4738 251.135L74.3514 251.037C74.4296 251.102 74.4995 251.176 74.5595 251.258L74.4616 251.135C74.5245 251.208 74.5742 251.291 74.6085 251.38V251.233C74.6151 251.307 74.6151 251.381 74.6085 251.454V251.282C74.6208 251.355 74.6208 251.43 74.6085 251.503V251.344C74.614 251.405 74.614 251.466 74.6085 251.527V251.38V251.442C74.5544 251.596 74.5544 251.765 74.6085 251.919C74.6559 252.075 74.761 252.206 74.9022 252.287C74.972 252.332 75.0512 252.362 75.1339 252.372C75.2166 252.383 75.3006 252.375 75.3797 252.348C75.533 252.304 75.6641 252.203 75.7469 252.066C75.8735 251.844 75.9401 251.593 75.9401 251.337C75.9401 251.082 75.8735 250.831 75.7469 250.609C75.6075 250.394 75.4289 250.207 75.2205 250.058C75.1554 250.01 75.0856 249.969 75.0124 249.935C74.9001 249.876 74.7809 249.83 74.6574 249.8C74.5234 249.782 74.3874 249.782 74.2534 249.8C74.1641 249.789 74.0736 249.789 73.9842 249.8L73.7148 249.898C73.5758 249.984 73.475 250.12 73.4333 250.278C73.4006 250.353 73.3838 250.435 73.3838 250.517C73.3838 250.599 73.4006 250.68 73.4333 250.756C73.517 250.892 73.6477 250.992 73.8005 251.037H73.9597C74.0711 251.035 74.1804 251.006 74.2779 250.952L74.2413 250.988Z" fill="#EC795C"/>
<path d="M51.5833 227.997C52.2785 228.978 52.5732 230.187 52.4071 231.378C52.241 232.569 51.6266 233.651 50.6897 234.404C50.5768 234.52 50.5137 234.676 50.5137 234.838C50.5137 235.001 50.5768 235.157 50.6897 235.273C50.8096 235.384 50.967 235.446 51.1304 235.446C51.2938 235.446 51.4512 235.384 51.5711 235.273C52.7021 234.328 53.4404 232.995 53.6419 231.534C53.8433 230.073 53.4934 228.589 52.6605 227.373C52.5743 227.235 52.4389 227.136 52.2819 227.095C52.1249 227.054 51.9583 227.074 51.8159 227.152C51.674 227.234 51.5701 227.369 51.5265 227.527C51.483 227.685 51.5035 227.854 51.5833 227.997V227.997Z" fill="#EC795C"/>
<path d="M97.1688 237.502L97.2789 237.404H97.3402L97.6217 237.245C97.7441 237.245 97.5238 237.245 97.6217 237.245H97.7686C97.8633 237.209 97.9619 237.184 98.0623 237.172C98.0623 237.172 98.2092 237.172 98.0623 237.172H98.6989H98.7968H99.1029L99.3966 237.27C99.5313 237.27 99.3109 237.27 99.3966 237.27L99.5313 237.331L99.8128 237.502H99.8985L99.9964 237.576L100.204 237.796C100.204 237.796 100.327 237.943 100.204 237.796C100.226 237.842 100.255 237.883 100.29 237.919L100.437 238.188C100.437 238.286 100.437 238.103 100.437 238.188C100.442 238.245 100.442 238.303 100.437 238.36C100.485 238.517 100.593 238.65 100.736 238.729C100.88 238.809 101.049 238.831 101.208 238.788C101.363 238.74 101.493 238.635 101.573 238.494C101.652 238.353 101.675 238.186 101.637 238.029C101.45 237.496 101.137 237.017 100.724 236.632C100.312 236.247 99.8119 235.968 99.268 235.819C98.724 235.67 98.1519 235.655 97.6008 235.775C97.0498 235.895 96.5361 236.148 96.1038 236.51C95.9909 236.627 95.9277 236.783 95.9277 236.945C95.9277 237.107 95.9909 237.263 96.1038 237.38C96.2224 237.494 96.3802 237.557 96.5445 237.557C96.7087 237.557 96.8666 237.494 96.9851 237.38L97.1688 237.502Z" fill="#EC795C"/>
<path d="M70.459 218.223C70.7978 219.026 70.9411 219.897 70.8773 220.766C70.8134 221.635 70.5442 222.476 70.0918 223.221C69.6756 223.894 70.7406 224.519 71.1568 223.845C71.6994 222.961 72.0275 221.962 72.1147 220.928C72.2018 219.895 72.0456 218.855 71.6586 217.892C71.6055 217.738 71.4979 217.608 71.356 217.527C71.2141 217.445 71.0476 217.419 70.8874 217.451C70.7319 217.502 70.6015 217.61 70.522 217.753C70.4426 217.896 70.4201 218.064 70.459 218.223V218.223Z" fill="#EC795C"/>
<path d="M213.543 178.219L224.755 173.466L212.539 175.475L213.543 178.219Z" fill="#EC795C"/>
<path d="M209.564 190.676L213.555 189.561C213.709 189.513 213.84 189.407 213.919 189.266C213.999 189.125 214.022 188.959 213.983 188.802C213.938 188.645 213.833 188.513 213.691 188.433C213.549 188.353 213.382 188.331 213.224 188.373L209.234 189.475C209.077 189.524 208.944 189.631 208.864 189.775C208.784 189.919 208.763 190.088 208.805 190.247C208.851 190.403 208.956 190.536 209.098 190.616C209.239 190.696 209.407 190.717 209.564 190.676V190.676Z" fill="#EC795C"/>
<path d="M217.472 204.737C217.393 204.13 217.524 203.513 217.842 202.99C218.16 202.467 218.647 202.068 219.222 201.859C219.798 201.696 220.411 201.728 220.966 201.949C221.522 202.171 221.988 202.569 222.295 203.083C222.377 203.225 222.513 203.327 222.671 203.369C222.83 203.41 222.998 203.387 223.139 203.304C223.28 203.221 223.383 203.085 223.424 202.927C223.466 202.768 223.442 202.6 223.36 202.459C222.915 201.711 222.236 201.131 221.428 200.81C220.619 200.489 219.728 200.444 218.892 200.683C218.056 200.963 217.34 201.517 216.858 202.254C216.376 202.992 216.157 203.871 216.235 204.749C216.238 204.912 216.303 205.067 216.417 205.183C216.531 205.3 216.685 205.368 216.847 205.374C217.013 205.374 217.172 205.308 217.289 205.191C217.406 205.074 217.472 204.915 217.472 204.749V204.737Z" fill="#381F0A"/>
<path d="M218.279 209.208C218.285 209.702 218.48 210.176 218.824 210.531C219.167 210.887 219.634 211.097 220.128 211.119C221.127 211.11 222.096 210.77 222.882 210.151C224.077 209.332 225.145 208.342 226.052 207.211C224.089 207.919 222.019 208.284 219.932 208.289C219.659 208.246 219.38 208.261 219.114 208.335C218.848 208.409 218.601 208.54 218.389 208.718L218.279 209.208Z" fill="#92563A"/>
<path d="M231.035 205.46C233.255 207.238 235.631 208.812 238.135 210.163C238.845 210.543 239.469 209.477 238.759 209.098C236.346 207.801 234.056 206.288 231.916 204.578C231.796 204.467 231.639 204.405 231.476 204.405C231.312 204.405 231.155 204.467 231.035 204.578C230.924 204.698 230.862 204.855 230.862 205.019C230.862 205.182 230.924 205.34 231.035 205.46V205.46Z" fill="#29319F"/>
<path d="M233.262 202.606L239.97 206.28C240.668 206.66 241.292 205.594 240.594 205.202L233.886 201.528C233.189 201.148 232.564 202.214 233.262 202.593V202.606Z" fill="#29319F"/>
<path d="M344.421 255.851C348.961 256.365 353.525 256.635 358.094 256.66C358.236 256.631 358.363 256.555 358.454 256.443C358.546 256.331 358.596 256.192 358.596 256.047C358.596 255.903 358.546 255.763 358.454 255.651C358.363 255.54 358.236 255.463 358.094 255.435C353.526 255.398 348.962 255.128 344.421 254.626C343.626 254.541 343.638 255.778 344.421 255.851Z" fill="#EC795C"/>
<path d="M347.102 252.96C352.529 253.156 357.935 253.593 363.321 254.271C364.105 254.369 364.093 253.132 363.321 253.046C357.935 252.377 352.529 251.94 347.102 251.736C346.294 251.736 346.307 252.96 347.102 252.96Z" fill="#EC795C"/>
<path d="M347.188 250.168C345.823 252.388 344.254 254.475 342.5 256.402C341.961 256.99 342.83 257.872 343.369 257.284C345.204 255.281 346.843 253.107 348.265 250.792C348.681 250.106 347.616 249.494 347.2 250.168H347.188Z" fill="#EC795C"/>
<path d="M322.547 239.928C324.877 240.493 327.262 240.797 329.659 240.834C329.801 240.806 329.928 240.729 330.019 240.618C330.111 240.506 330.16 240.366 330.16 240.222C330.16 240.078 330.111 239.938 330.019 239.826C329.928 239.714 329.801 239.638 329.659 239.609C327.374 239.58 325.1 239.296 322.878 238.764C322.107 238.568 321.776 239.769 322.547 239.989V239.928Z" fill="#EC795C"/>
<path d="M274.991 208.265C275.608 208.758 276.107 209.382 276.454 210.091C276.802 210.801 276.987 211.578 276.999 212.368C277.027 212.509 277.104 212.637 277.215 212.728C277.327 212.82 277.467 212.87 277.611 212.87C277.755 212.87 277.895 212.82 278.006 212.728C278.118 212.637 278.194 212.509 278.223 212.368C278.205 211.364 277.96 210.378 277.507 209.482C277.053 208.587 276.402 207.806 275.603 207.199C275.462 207.118 275.294 207.096 275.136 207.137C274.978 207.178 274.843 207.28 274.759 207.419C274.681 207.562 274.66 207.729 274.701 207.886C274.742 208.043 274.842 208.178 274.979 208.265H274.991Z" fill="#EC795C"/>
<path d="M168.619 136.879C183.585 128.272 198.229 119.143 212.551 109.491L208.01 104.775C194.85 114.517 181.084 123.411 166.795 131.404C167.657 132.987 168.256 134.699 168.57 136.475L168.619 136.879Z" fill="#29319F"/>
<path d="M213.456 147.719C212.93 144.387 214.472 141.105 216.259 138.385C217.843 135.872 219.926 133.713 222.38 132.041C223.743 131.13 225.249 130.455 226.836 130.044C226.998 130.002 227.137 129.897 227.222 129.752C227.307 129.607 227.331 129.435 227.288 129.272C227.246 129.11 227.141 128.971 226.997 128.886C226.852 128.801 226.68 128.777 226.517 128.819C223.451 129.659 220.674 131.324 218.487 133.633C216.09 136.02 214.218 138.882 212.991 142.036C212.247 143.935 212.011 145.995 212.306 148.013C212.428 148.797 213.615 148.466 213.53 147.682L213.456 147.719Z" fill="#29319F"/>
<path d="M179.011 140.198C180.529 146.116 181.629 152.132 182.304 158.204C182.389 158.988 183.638 159 183.528 158.204C182.846 152.008 181.726 145.868 180.174 139.831C180.13 139.668 180.023 139.53 179.878 139.446C179.732 139.362 179.559 139.34 179.396 139.384C179.234 139.428 179.096 139.534 179.012 139.68C178.928 139.826 178.906 139.999 178.95 140.162L179.011 140.198Z" fill="#29319F"/>
<path d="M184.605 144.657C185.087 148.193 185.687 151.708 186.405 155.203C186.564 155.987 187.764 155.656 187.629 154.884C186.894 151.381 186.291 147.862 185.817 144.326C185.796 144.248 185.76 144.174 185.71 144.11C185.66 144.046 185.598 143.993 185.527 143.953C185.457 143.913 185.379 143.888 185.298 143.878C185.218 143.868 185.136 143.875 185.058 143.897C184.902 143.943 184.77 144.048 184.69 144.19C184.61 144.332 184.588 144.499 184.63 144.657H184.605Z" fill="#29319F"/>
<path d="M158.214 96.4702C163.306 90.1376 166.905 82.8006 171.679 76.2597C173.036 74.3955 174.525 72.6312 176.135 70.9805C176.227 70.8609 176.274 70.7116 176.265 70.5604C176.256 70.4092 176.193 70.2663 176.086 70.1585C175.98 70.0506 175.838 69.9851 175.687 69.9741C175.536 69.9631 175.386 70.0073 175.265 70.0986C169.561 75.9168 165.791 83.1925 161.372 89.9416C160.114 91.8913 158.757 93.7759 157.308 95.5883C156.806 96.213 157.675 97.0949 158.177 96.4702H158.214Z" fill="#E8563A"/>
<path d="M160.772 94.0695C162.127 95.3825 163.187 96.9692 163.882 98.724C163.93 98.8787 164.035 99.0091 164.176 99.0887C164.317 99.1684 164.483 99.1913 164.64 99.1528C164.72 99.1329 164.794 99.0972 164.86 99.048C164.925 98.9988 164.98 98.937 165.021 98.8662C165.062 98.7954 165.089 98.717 165.099 98.6358C165.109 98.5546 165.103 98.4722 165.081 98.3933C164.323 96.4338 163.15 94.6619 161.641 93.1998C161.078 92.6364 160.197 93.5183 160.772 94.0695Z" fill="#E8563A"/>
<path d="M163.881 89.9171C165.111 91.4547 166.208 93.0937 167.161 94.8166C167.553 95.5147 168.618 94.89 168.239 94.1919C167.237 92.365 166.086 90.6238 164.799 88.9861C164.682 88.8695 164.523 88.804 164.358 88.804C164.193 88.804 164.034 88.8695 163.917 88.9861C163.807 89.1041 163.746 89.2595 163.746 89.421C163.746 89.5824 163.807 89.7379 163.917 89.8558L163.881 89.9171Z" fill="#E8563A"/>
<path d="M167.161 86.3896L169.046 89.3415C169.135 89.4799 169.272 89.5797 169.431 89.6206C169.59 89.6615 169.759 89.6405 169.903 89.562C170.043 89.4778 170.144 89.3423 170.186 89.1844C170.227 89.0264 170.205 88.8586 170.124 88.7168L168.226 85.7649C168.14 85.6273 168.005 85.5279 167.848 85.4869C167.691 85.446 167.524 85.4665 167.382 85.5444C167.242 85.6285 167.14 85.7641 167.099 85.922C167.058 86.08 167.08 86.2478 167.161 86.3896V86.3896Z" fill="#E8563A"/>
<path d="M145.495 103.538C148.384 98.0379 151.138 92.4158 152.338 86.2791C153.46 80.5416 153.398 74.6351 152.154 68.9226C151.46 65.7273 150.396 62.6238 148.984 59.6748C148.641 58.9644 147.576 59.5891 147.919 60.2995C150.349 65.4368 151.695 71.0199 151.873 76.7006C152.055 82.4759 151.042 88.2265 148.898 93.5916C147.581 96.7942 146.089 99.9222 144.43 102.962C144.063 103.66 145.128 104.285 145.495 103.587V103.538Z" fill="#E8563A"/>
<path d="M96.0183 141.105C96.4395 141.295 96.8484 141.512 97.2424 141.754C97.5931 141.976 97.9285 142.222 98.2461 142.489C98.5779 142.768 98.8926 143.066 99.1886 143.383C99.4877 143.692 99.762 144.023 100.009 144.375C100.097 144.514 100.235 144.613 100.394 144.654C100.553 144.695 100.722 144.674 100.866 144.596C100.984 144.508 101.068 144.382 101.104 144.239C101.139 144.096 101.125 143.945 101.062 143.812C99.919 142.246 98.4101 140.984 96.667 140.137C96.5232 140.06 96.3555 140.042 96.1984 140.085C96.0412 140.128 95.9066 140.23 95.8224 140.37C95.7415 140.511 95.7193 140.679 95.7605 140.837C95.8016 140.995 95.903 141.131 96.0428 141.215L96.0183 141.105Z" fill="#E8563A"/>
<path d="M98.2953 137.834L102.91 140.823C103.054 140.9 103.222 140.919 103.379 140.875C103.536 140.832 103.67 140.73 103.755 140.59C103.833 140.448 103.853 140.281 103.812 140.124C103.771 139.967 103.672 139.831 103.534 139.745L98.9196 136.769C98.7779 136.688 98.6102 136.666 98.4523 136.707C98.2945 136.748 98.159 136.849 98.075 136.989C98.0333 137.059 98.0059 137.136 97.9944 137.217C97.9829 137.297 97.9876 137.379 98.0081 137.458C98.0286 137.537 98.0646 137.611 98.1139 137.675C98.1632 137.74 98.2248 137.794 98.2953 137.834V137.834Z" fill="#E8563A"/>
<path d="M49.417 203.586C54.9377 206.035 60.5317 208.412 66.5542 209.134C67.3376 209.232 67.3376 207.995 66.5542 207.91C60.7521 207.211 55.3171 204.847 50.0168 202.532C49.2946 202.214 48.6581 203.28 49.3925 203.598L49.417 203.586Z" fill="#E8563A"/>
</svg>
