<svg width="480" height="210" viewBox="0 0 480 210" fill="none" xmlns="http://www.w3.org/2000/svg">
<mask id="path-1-inside-1_4783_45122" fill="white">
<path fill-rule="evenodd" clip-rule="evenodd" d="M298.412 0H16C7.16344 0 0 7.16344 0 16V194C0 202.837 7.16346 210 16 210H298.412C301.143 203.536 307.542 199 315 199C322.458 199 328.857 203.536 331.588 210H464C472.837 210 480 202.837 480 194V16C480 7.16344 472.837 0 464 0H331.588C328.857 6.46388 322.458 11 315 11C307.542 11 301.143 6.46388 298.412 0Z"/>
</mask>
<path fill-rule="evenodd" clip-rule="evenodd" d="M298.412 0H16C7.16344 0 0 7.16344 0 16V194C0 202.837 7.16346 210 16 210H298.412C301.143 203.536 307.542 199 315 199C322.458 199 328.857 203.536 331.588 210H464C472.837 210 480 202.837 480 194V16C480 7.16344 472.837 0 464 0H331.588C328.857 6.46388 322.458 11 315 11C307.542 11 301.143 6.46388 298.412 0Z" fill="white"/>
<path d="M298.412 0L299.333 -0.389192L299.075 -1H298.412V0ZM298.412 210V211H299.075L299.333 210.389L298.412 210ZM331.588 210L330.667 210.389L330.925 211H331.588V210ZM331.588 0V-1H330.925L330.667 -0.389192L331.588 0ZM298.412 -1H16V1H298.412V-1ZM16 -1C6.61116 -1 -1 6.61116 -1 16H1C1 7.71573 7.71573 1 16 1V-1ZM-1 16V194H1V16H-1ZM-1 194C-1 203.389 6.61117 211 16 211V209C7.71574 209 1 202.284 1 194H-1ZM16 211H298.412V209H16V211ZM299.333 210.389C301.913 204.282 307.958 200 315 200V198C307.126 198 300.373 202.79 297.491 209.611L299.333 210.389ZM315 200C322.042 200 328.087 204.282 330.667 210.389L332.509 209.611C329.627 202.79 322.874 198 315 198V200ZM331.588 211H464V209H331.588V211ZM464 211C473.389 211 481 203.389 481 194H479C479 202.284 472.284 209 464 209V211ZM481 194V16H479V194H481ZM481 16C481 6.61116 473.389 -1 464 -1V1C472.284 1 479 7.71573 479 16H481ZM464 -1H331.588V1H464V-1ZM330.667 -0.389192C328.087 5.71757 322.042 10 315 10V12C322.874 12 329.627 7.2102 332.509 0.389192L330.667 -0.389192ZM315 10C307.958 10 301.913 5.71757 299.333 -0.389192L297.491 0.389192C300.373 7.2102 307.126 12 315 12V10Z" fill="#E0E0E0" mask="url(#path-1-inside-1_4783_45122)"/>
</svg>
